<svg width="20" height="20" viewBox="0 0 20 20" fill="none" xmlns="http://www.w3.org/2000/svg">
<path fill-rule="evenodd" clip-rule="evenodd" d="M8.33333 3.33333C8.33333 2.8731 7.96024 2.5 7.5 2.5C7.03976 2.5 6.66667 2.8731 6.66667 3.33333V5H5.83333C5.3731 5 5 5.3731 5 5.83333V10C5 12.4775 6.80191 14.5341 9.16667 14.9309V16.6667C9.16667 17.1269 9.53976 17.5 10 17.5C10.4602 17.5 10.8333 17.1269 10.8333 16.6667V14.9309C13.1981 14.5341 15 12.4775 15 10L15 5.83333C15 5.3731 14.6269 5 14.1667 5H13.3333V3.33333C13.3333 2.8731 12.9602 2.5 12.5 2.5C12.0398 2.5 11.6667 2.8731 11.6667 3.33333V5L8.33333 5V3.33333ZM10.001 13.3333C11.8415 13.3328 13.3333 11.8406 13.3333 10L13.3333 6.66667L6.66667 6.66667L6.66667 10C6.66667 11.841 8.15905 13.3333 10 13.3333C10.0003 13.3333 10.0007 13.3333 10.001 13.3333Z" fill="black"/>
</svg>
