<svg width="24" height="32" viewBox="0 0 24 32" fill="none" xmlns="http://www.w3.org/2000/svg">
<path d="M12 0.5C18.3513 0.5 23.5 5.64873 23.5 12C23.5 13.5318 22.7982 15.5212 21.6807 17.6924C20.5714 19.8474 19.0864 22.1178 17.5938 24.1934C16.1024 26.2671 14.6104 28.1369 13.4902 29.4883C12.9304 30.1637 12.4637 30.7088 12.1377 31.085C12.0888 31.1414 12.0424 31.1935 12 31.2422C11.9576 31.1935 11.9112 31.1414 11.8623 31.085C11.5363 30.7088 11.0696 30.1637 10.5098 29.4883C9.38962 28.1369 7.8976 26.2671 6.40625 24.1934C4.91359 22.1178 3.42856 19.8474 2.31934 17.6924C1.20178 15.5212 0.5 13.5318 0.5 12C0.5 5.64873 5.64873 0.5 12 0.5Z" fill="#DAFF74" stroke="white"/>
</svg>
