<svg preserveAspectRatio="none" width="100%" height="100%" overflow="visible" style="display: block;" viewBox="0 0 86 64" fill="none" xmlns="http://www.w3.org/2000/svg">
<g id="Simplification">
<path id="Vector" d="M30.8223 7C30.9054 7.04125 30.9054 7.04125 30.9902 7.08333C30.9692 7.15763 30.9481 7.23192 30.9265 7.30847C30.4763 8.90038 30.0363 10.4944 29.6157 12.0943C29.5814 12.225 29.547 12.3556 29.5126 12.4863C29.4959 12.5501 29.4791 12.6139 29.4618 12.6797C29.3467 13.1164 29.2284 13.5522 29.1085 13.9876C29.0766 14.1037 29.0448 14.2198 29.013 14.3358C28.9543 14.5502 28.8948 14.7643 28.8348 14.9783C28.8088 15.0731 28.7829 15.1679 28.7561 15.2656C28.7333 15.3476 28.7105 15.4296 28.687 15.514C28.6347 15.7691 28.619 15.9903 28.6387 16.25C28.7218 16.3738 28.7218 16.3738 28.8066 16.5C29.0165 16.538 29.0165 16.538 29.2661 16.5315C29.3637 16.5322 29.4613 16.5329 29.5618 16.5336C29.6695 16.5331 29.7771 16.5326 29.888 16.5321C30.0021 16.5324 30.1162 16.5329 30.2302 16.5334C30.4763 16.5344 30.7223 16.5346 30.9684 16.5342C31.3577 16.5337 31.747 16.535 32.1363 16.5366C32.9633 16.5397 33.7903 16.5408 34.6173 16.5417C35.5087 16.5426 36.4 16.5439 37.2913 16.5476C37.678 16.5491 38.0647 16.5494 38.4514 16.5488C38.6926 16.5487 38.9338 16.5496 39.1749 16.5508C39.3394 16.5513 39.5039 16.5505 39.6684 16.5497C40.1978 16.5534 40.6057 16.5667 41.0684 16.8333C41.4457 17.2176 41.4988 17.5193 41.4986 18.0408C41.4988 18.1344 41.4989 18.2279 41.4991 18.3243C41.4989 18.4271 41.4986 18.5299 41.4984 18.6358C41.4985 18.7996 41.4985 18.7996 41.4986 18.9666C41.4988 19.2699 41.4985 19.5732 41.498 19.8765C41.4977 20.2035 41.4978 20.5304 41.4979 20.8574C41.4979 21.424 41.4976 21.9906 41.4972 22.5571C41.4965 23.3763 41.4963 24.1955 41.4962 25.0147C41.496 26.3437 41.4954 27.6727 41.4946 29.0017C41.4938 30.2928 41.4933 31.584 41.4929 32.8751C41.4929 32.9944 41.4929 32.9944 41.4928 33.1162C41.4927 33.5153 41.4926 33.9145 41.4925 34.3136C41.4916 37.6258 41.4902 40.9379 41.4883 44.25C41.1883 44.1508 41.1632 44.0871 41.0054 43.8255C40.9399 43.7185 40.9399 43.7185 40.8731 43.6093C40.8034 43.4933 40.8034 43.4933 40.7324 43.375C40.6334 43.213 40.5342 43.0511 40.4349 42.8893C40.3856 42.8087 40.3363 42.7281 40.2855 42.645C40.0949 42.3363 39.8978 42.0322 39.6984 41.7292C39.3189 41.1513 38.9438 40.5709 38.5698 39.9896C38.1223 39.2943 37.671 38.6017 37.2156 37.9115C36.8393 37.3408 36.4676 36.7681 36.1055 36.1885C35.7271 35.5838 35.3391 34.9852 34.9519 34.386C34.5765 33.8051 34.2027 33.2232 33.83 32.6406C33.4201 32.0005 33.0057 31.3634 32.5883 30.7282C32.2261 30.1764 31.8674 29.6225 31.5099 29.0677C31.454 28.9811 31.3982 28.8945 31.3407 28.8052C31.0767 28.3955 30.813 27.9857 30.5498 27.5755C30.4594 27.4345 30.3688 27.2936 30.2783 27.1527C30.1652 26.9768 30.0524 26.8009 29.9397 26.6248C29.177 25.2589 29.177 25.2589 27.9789 24.3692C27.7799 24.3296 27.5977 24.3224 27.3946 24.3218C27.3135 24.3214 27.2324 24.3209 27.1488 24.3205C27.0603 24.3204 26.9719 24.3203 26.8808 24.3202C26.7872 24.3198 26.6936 24.3193 26.5972 24.3189C26.394 24.318 26.1907 24.3173 25.9875 24.3167C25.6659 24.3157 25.3444 24.3141 25.0229 24.3123C24.1087 24.3072 23.1945 24.3026 22.2803 24.2999C21.7212 24.2982 21.1621 24.2952 20.603 24.2915C20.3898 24.2903 20.1766 24.2896 19.9634 24.2893C19.6654 24.2889 19.3675 24.287 19.0696 24.2847C18.9371 24.2851 18.9371 24.2851 18.8021 24.2855C18.3303 24.2801 17.988 24.2652 17.6367 23.9167C17.5435 23.1995 17.7903 22.8105 18.2246 22.25C18.4722 21.9485 18.7285 21.6549 18.987 21.3626C19.2493 21.066 19.4975 20.7596 19.7442 20.4502C19.9754 20.1611 20.2117 19.8764 20.4476 19.5911C20.6466 19.3498 20.8448 19.1078 21.0427 18.8657C21.5778 18.211 22.1166 17.5595 22.6571 16.9092C23.0005 16.496 23.3421 16.0814 23.6836 15.6667C23.8096 15.5139 23.9355 15.3611 24.0615 15.2083C24.1243 15.1322 24.1871 15.056 24.2518 14.9775C24.3734 14.8301 24.495 14.6828 24.6166 14.5355C24.9926 14.0801 25.3672 13.6237 25.7412 13.1667C26.0556 12.7825 26.3702 12.3986 26.686 12.0156C26.7449 11.9442 26.8038 11.8728 26.8645 11.7992C26.9902 11.6472 27.1162 11.4955 27.2424 11.3441C27.5214 11.0086 27.7974 10.6765 28.0455 10.3177C28.1027 10.2404 28.1599 10.163 28.2187 10.0833C28.2742 10.0833 28.3296 10.0833 28.3867 10.0833C28.4096 10.0344 28.4324 9.98553 28.456 9.93514C28.5528 9.75347 28.6573 9.6117 28.7899 9.45443C28.8369 9.39835 28.8839 9.34227 28.9322 9.28448C29.0078 9.19523 29.0078 9.19523 29.0848 9.10417C29.1906 8.97801 29.2964 8.85181 29.4021 8.72559C29.4562 8.66109 29.5103 8.5966 29.5661 8.53015C29.8296 8.21464 30.0898 7.89647 30.3499 7.57813C30.3973 7.52009 30.4448 7.46206 30.4936 7.40226C30.6032 7.26821 30.7128 7.13411 30.8223 7Z" fill="var(--fill-0, white)" fill-opacity="0.5"/>
<path id="Vector_2" d="M55.0098 7C55.3462 7.11128 55.4764 7.33279 55.6816 7.60417C55.7644 7.71118 55.8473 7.81805 55.9303 7.9248C55.9726 7.97917 56.0149 8.03354 56.0585 8.08956C56.2521 8.33409 56.4543 8.571 56.658 8.80729C57.0671 9.28287 57.4676 9.76485 57.8652 10.25C58.3118 10.7928 58.7599 11.3342 59.209 11.875C59.7199 12.4902 60.2293 13.1066 60.7371 13.7243C61.0616 14.1187 61.3881 14.5111 61.718 14.901C62.0193 15.2586 62.3117 15.6216 62.5999 15.9896C62.9606 16.4498 63.3364 16.8946 63.7209 17.3353C64.0197 17.6783 64.3084 18.0276 64.5919 18.3831C64.7604 18.5939 64.9316 18.8024 65.1036 19.0104C65.461 19.4429 65.8169 19.8766 66.1719 20.311C66.4109 20.6033 66.6505 20.8951 66.8916 21.1859C68.3691 22.9715 68.3691 22.9715 68.4 23.5313C68.4051 23.5955 68.4102 23.6597 68.4154 23.7259C68.3499 23.9655 68.2356 24.0498 68.0275 24.1798C67.6753 24.3269 67.2945 24.2942 66.9185 24.2902C66.8245 24.2905 66.7305 24.2909 66.6336 24.2912C66.4299 24.2917 66.2262 24.2914 66.0224 24.2905C65.6997 24.289 65.3771 24.2897 65.0544 24.2908C64.311 24.2931 63.5677 24.2924 62.8243 24.2915C62.0889 24.2906 61.3535 24.291 60.6181 24.2937C60.3006 24.2943 59.9832 24.2929 59.6657 24.2914C59.4704 24.2919 59.2751 24.2925 59.0798 24.2931C58.9919 24.2922 58.904 24.2912 58.8134 24.2903C58.1859 24.2955 57.7164 24.4094 57.2552 24.8471C57.2065 24.9117 57.1577 24.9764 57.1074 25.043C57.0519 25.1164 56.9964 25.1898 56.9392 25.2655C56.6584 25.6628 56.3929 26.0681 56.1331 26.4792C56.075 26.57 56.017 26.6609 55.9572 26.7546C55.8381 26.9411 55.7192 27.1278 55.6005 27.3146C55.3488 27.7105 55.0953 28.1052 54.8418 28.5C54.7457 28.65 54.6495 28.7999 54.5534 28.9499C53.8248 30.0859 53.0949 31.221 52.3538 32.349C51.8806 33.0691 51.4148 33.7938 50.9503 34.5195C50.1948 35.6997 49.4361 36.8776 48.6637 38.0469C48.1789 38.7811 47.7073 39.5228 47.2404 40.2683C46.8625 40.8708 46.4767 41.4675 46.0845 42.0609C45.8527 42.4122 45.6245 42.7652 45.4014 43.1221C45.3552 43.1959 45.3089 43.2697 45.2612 43.3458C45.1727 43.4875 45.0847 43.6295 44.9972 43.7719C44.9579 43.8347 44.9186 43.8975 44.8782 43.9622C44.8438 44.018 44.8094 44.0737 44.7739 44.1311C44.7428 44.1703 44.7117 44.2096 44.6797 44.25C44.6243 44.25 44.5688 44.25 44.5117 44.25C44.506 40.8507 44.5015 37.4514 44.4989 34.0522C44.4985 33.651 44.4982 33.2498 44.4979 32.8486C44.4978 32.7688 44.4977 32.6889 44.4977 32.6066C44.4966 31.3128 44.4946 30.0191 44.4923 28.7253C44.4899 27.3981 44.4885 26.0709 44.488 24.7437C44.4877 23.9245 44.4866 23.1053 44.4845 22.2862C44.4832 21.7247 44.4828 21.1632 44.4831 20.6017C44.4833 20.2776 44.483 19.9535 44.4817 19.6294C44.4802 19.2781 44.4807 18.9269 44.4814 18.5757C44.4807 18.473 44.48 18.3704 44.4792 18.2647C44.4838 17.3983 44.4838 17.3983 44.7637 17C45.1632 16.6239 45.4619 16.5734 45.9988 16.5707C46.0965 16.57 46.1943 16.5693 46.295 16.5686C46.4019 16.5683 46.5088 16.5679 46.6189 16.5675C46.7329 16.5669 46.8468 16.5662 46.9608 16.5655C47.206 16.5639 47.4511 16.5627 47.6963 16.5616C48.0837 16.56 48.4712 16.5576 48.8586 16.5552C49.7507 16.5498 50.6428 16.5452 51.5349 16.5406C52.353 16.5363 53.1711 16.5319 53.9892 16.5269C54.3746 16.5245 54.76 16.5225 55.1454 16.5209C55.3847 16.5198 55.624 16.5183 55.8633 16.5168C56.0278 16.5158 56.1922 16.5153 56.3567 16.5147C56.454 16.514 56.5512 16.5133 56.6514 16.5126C56.7363 16.5122 56.8212 16.5118 56.9086 16.5113C57.1107 16.5131 57.1106 16.5131 57.2773 16.4167C57.4187 15.8933 57.2975 15.4749 57.1537 14.9626C57.1306 14.877 57.1076 14.7915 57.0838 14.7033C57.0076 14.4217 56.9299 14.1406 56.8522 13.8594C56.799 13.6637 56.7459 13.4681 56.6929 13.2724C56.5819 12.8633 56.4702 12.4544 56.358 12.0456C56.1582 11.3175 55.9606 10.5889 55.7631 9.86016C55.6318 9.3759 55.5004 8.89169 55.3683 8.40765C55.3321 8.27474 55.3321 8.27474 55.2951 8.13914C55.2498 7.97296 55.2045 7.80679 55.159 7.64065C55.1293 7.53167 55.1293 7.53167 55.099 7.42049C55.0817 7.35702 55.0644 7.29354 55.0465 7.22814C55.0098 7.08333 55.0098 7.08333 55.0098 7Z" fill="var(--fill-0, white)" fill-opacity="0.5"/>
<path id="Vector_3" d="M34.0982 49.4853C34.2572 49.4836 34.2572 49.4836 34.4194 49.482C34.5356 49.4813 34.6519 49.4807 34.7682 49.4801C34.8267 49.4798 34.8853 49.4795 34.9455 49.4791C35.2554 49.4774 35.5653 49.4762 35.8752 49.4754C36.1947 49.4745 36.5141 49.4716 36.8336 49.4683C37.0798 49.4661 37.3259 49.4654 37.572 49.4651C37.6897 49.4647 37.8075 49.4638 37.9252 49.4622C38.0904 49.4602 38.2556 49.4605 38.4208 49.4608C38.5147 49.4604 38.6085 49.4599 38.7052 49.4594C39.0407 49.5111 39.2138 49.6166 39.4727 49.8333C39.7017 50.183 39.7558 50.4513 39.7532 50.8644C39.7532 50.9678 39.7532 51.0712 39.7532 51.1777C39.7519 51.2893 39.7506 51.4008 39.7492 51.5124C39.7487 51.6275 39.7484 51.7426 39.7481 51.8577C39.7472 52.1594 39.7447 52.4611 39.7419 52.7627C39.7393 53.0711 39.7382 53.3795 39.7369 53.6878C39.7342 54.2919 39.7299 54.8959 39.7246 55.5C39.4475 55.5 39.1703 55.5 38.8848 55.5C38.8848 55.445 38.8848 55.39 38.8848 55.3333C38.8392 55.3604 38.7936 55.3874 38.7466 55.4152C38.5081 55.5175 38.3311 55.5217 38.0715 55.5229C37.9757 55.5237 37.8798 55.5245 37.781 55.5253C37.6262 55.5252 37.6262 55.5252 37.4682 55.5251C37.3617 55.5254 37.2553 55.5258 37.1456 55.5262C36.9204 55.5266 36.6952 55.5267 36.47 55.5263C36.1823 55.5258 35.8947 55.5272 35.6071 55.5292C35.3316 55.5307 35.0561 55.5304 34.7807 55.5303C34.6263 55.5314 34.6263 55.5314 34.4689 55.5326C33.5686 55.5278 33.5686 55.5278 33.1738 55.25C32.7836 54.7426 32.8252 54.197 32.8484 53.5885C32.8493 53.5151 32.8501 53.4417 32.851 53.3661C32.8649 53.0113 32.8865 52.7444 33.1102 52.458C33.4596 52.1442 33.7518 52.0626 34.2177 52.0618C34.3068 52.0612 34.396 52.0607 34.4878 52.0602C34.5833 52.0605 34.6787 52.0609 34.7771 52.0612C34.876 52.061 34.9748 52.0609 35.0767 52.0607C35.2856 52.0606 35.4945 52.0609 35.7033 52.0616C36.0226 52.0625 36.3418 52.0616 36.661 52.0606C36.8641 52.0607 37.0672 52.0609 37.2704 52.0612C37.4133 52.0607 37.4133 52.0607 37.5591 52.0602C38.0047 52.0628 38.3853 52.0687 38.8008 52.25C38.8081 51.9618 38.8126 51.6737 38.8165 51.3854C38.8186 51.3034 38.8208 51.2213 38.8229 51.1367C38.8237 51.0583 38.8246 50.9799 38.8254 50.8991C38.8267 50.8266 38.828 50.7542 38.8294 50.6796C38.8199 50.6203 38.8105 50.5611 38.8008 50.5C38.5214 50.3152 38.4334 50.3123 38.1079 50.3118C38.0179 50.3112 37.928 50.3107 37.8353 50.3102C37.7382 50.3105 37.6411 50.3109 37.541 50.3112C37.4413 50.311 37.3416 50.3109 37.2389 50.3107C37.0279 50.3106 36.817 50.3109 36.606 50.3116C36.2825 50.3125 35.9591 50.3116 35.6356 50.3106C35.4309 50.3107 35.2262 50.3109 35.0215 50.3112C34.9244 50.3109 34.8273 50.3105 34.7272 50.3102C34.5923 50.311 34.5923 50.311 34.4546 50.3118C34.3753 50.3119 34.2961 50.312 34.2144 50.3122C33.9915 50.3201 33.9915 50.3201 33.7617 50.5C33.7001 50.7555 33.7001 50.7555 33.6777 51C33.4283 51 33.1789 51 32.9219 51C32.7641 50.687 32.9012 50.3205 33.0059 50C33.3562 49.5742 33.5594 49.49 34.0982 49.4853ZM33.7763 53.0243C33.6071 53.2686 33.6382 53.5476 33.641 53.8333C33.6393 53.8937 33.6376 53.9541 33.6359 54.0163C33.6318 54.3642 33.6318 54.3642 33.8192 54.6422C34.0565 54.7737 34.2085 54.7817 34.4795 54.7824C34.5729 54.7831 34.6662 54.7839 34.7623 54.7847C34.8627 54.7842 34.963 54.7837 35.0664 54.7832C35.2214 54.7836 35.2214 54.7836 35.3795 54.7839C35.5979 54.7841 35.8162 54.7836 36.0346 54.7826C36.2587 54.7817 36.4827 54.7815 36.7069 54.7826C37.0296 54.7841 37.3524 54.784 37.6752 54.7832C37.7757 54.7837 37.8762 54.7842 37.9798 54.7847C38.0729 54.784 38.1659 54.7832 38.2618 54.7824C38.3438 54.7822 38.4257 54.782 38.5102 54.7817C38.7503 54.7449 38.8262 54.692 38.9688 54.5C38.9971 54.3323 38.9971 54.3323 38.9779 54.1504C38.9737 54.0839 38.9695 54.0174 38.9651 53.9489C38.9565 53.8453 38.9565 53.8453 38.9478 53.7396C38.9433 53.6699 38.9389 53.6002 38.9343 53.5283C38.9407 53.1953 38.9407 53.1953 38.8008 52.9167C38.6501 52.9075 38.4991 52.9042 38.3481 52.9032C38.2514 52.9024 38.1547 52.9016 38.0551 52.9008C37.9497 52.9005 37.8444 52.9001 37.7359 52.8997C37.6285 52.8993 37.5211 52.8988 37.4104 52.8983C37.1827 52.8974 36.9549 52.8969 36.7271 52.8967C36.4352 52.8962 36.1433 52.8942 35.8514 52.8918C35.5732 52.8899 35.2951 52.8897 35.0169 52.8893C34.9119 52.8883 34.8069 52.8873 34.6988 52.8862C34.6015 52.8865 34.5043 52.8867 34.4041 52.887C34.3184 52.8867 34.2327 52.8864 34.1443 52.886C33.9282 52.9004 33.9282 52.9004 33.7763 53.0243Z" fill="var(--fill-0, white)" fill-opacity="0.5"/>
<path id="Vector_4" d="M17.6367 49.5C18.5409 49.4931 19.4451 49.4863 20.3767 49.4792C20.8039 49.4746 20.8039 49.4746 21.2397 49.47C21.4658 49.469 21.6919 49.4681 21.918 49.4674C22.0054 49.4661 22.0054 49.4661 22.0946 49.4648C22.2677 49.4624 22.4406 49.462 22.6137 49.4622C22.7597 49.461 22.7597 49.461 22.9087 49.4599C23.2416 49.5092 23.4219 49.6269 23.6836 49.8333C23.956 50.2303 23.9744 50.578 23.967 51.0417C23.968 51.1028 23.969 51.1639 23.97 51.2269C23.9672 51.7434 23.8043 52.0703 23.5156 52.5C23.5641 52.5172 23.6126 52.5344 23.6626 52.5521C23.9353 52.7175 24.0356 52.8869 24.1875 53.1667C24.2349 53.432 24.2345 53.6895 24.2295 53.9583C24.2314 54.0619 24.2314 54.0619 24.2334 54.1676C24.2305 54.6219 24.1645 54.897 23.8516 55.25C23.5131 55.4992 23.2695 55.5307 22.852 55.5284C22.7945 55.5284 22.737 55.5284 22.6778 55.5285C22.4928 55.5283 22.3079 55.5264 22.123 55.5244C22.0084 55.524 21.8937 55.5238 21.7791 55.5237C21.3554 55.5223 20.9316 55.5189 20.5079 55.5156C19.5604 55.5105 18.6129 55.5053 17.6367 55.5C17.6367 53.52 17.6367 51.54 17.6367 49.5ZM18.3926 50.25C18.3926 50.855 18.3926 51.46 18.3926 52.0833C18.7098 52.1358 18.9644 52.1772 19.2759 52.1801C19.3462 52.1809 19.4166 52.1817 19.4891 52.1825C19.5636 52.1829 19.6382 52.1832 19.715 52.1836C19.8321 52.1843 19.8321 52.1843 19.9515 52.185C20.1161 52.1858 20.2806 52.1864 20.4451 52.1867C20.6958 52.1875 20.9464 52.1901 21.197 52.1927C21.3574 52.1933 21.5178 52.1937 21.6781 52.194C21.7525 52.195 21.8269 52.1961 21.9035 52.1971C22.3654 52.1955 22.6838 52.1264 23.0957 51.9167C23.1048 51.6857 23.1114 51.455 23.1167 51.224C23.1195 51.1585 23.1223 51.093 23.1252 51.0256C23.1263 50.9624 23.1274 50.8993 23.1285 50.8343C23.1303 50.7763 23.132 50.7182 23.1338 50.6584C23.1081 50.4871 23.1081 50.4871 22.9528 50.3669C22.7215 50.2268 22.5901 50.2197 22.3207 50.2216C22.2333 50.2216 22.1459 50.2217 22.0559 50.2217C21.9621 50.223 21.8683 50.2243 21.7716 50.2256C21.6269 50.2261 21.6269 50.2261 21.4793 50.2267C21.1713 50.2281 20.8632 50.2312 20.5552 50.2344C20.3463 50.2356 20.1374 50.2368 19.9286 50.2378C19.4166 50.2405 18.9046 50.2449 18.3926 50.25ZM18.3926 52.9167C18.3926 53.5217 18.3926 54.1267 18.3926 54.75C19.0562 54.7582 19.7198 54.7643 20.3835 54.7683C20.6093 54.7698 20.8352 54.7721 21.061 54.7751C21.3854 54.7792 21.7097 54.7811 22.0341 54.7826C22.1352 54.7843 22.2364 54.786 22.3406 54.7878C22.4818 54.7878 22.4818 54.7878 22.6258 54.7878C22.7086 54.7886 22.7914 54.7893 22.8768 54.7901C23.1594 54.7383 23.258 54.6399 23.4316 54.4167C23.4817 54.1365 23.4817 54.1365 23.4684 53.8333C23.4683 53.7319 23.4682 53.6305 23.4681 53.526C23.4286 53.2271 23.3913 53.1266 23.1797 52.9167C22.9617 52.8683 22.9617 52.8683 22.7116 52.8788C22.6158 52.8789 22.52 52.8789 22.4213 52.8789C22.2662 52.8815 22.2662 52.8815 22.1079 52.8841C22.002 52.8846 21.8961 52.8851 21.787 52.8855C21.5057 52.8871 21.2245 52.8901 20.9433 52.8938C20.6562 52.8972 20.3691 52.8987 20.0819 52.9004C19.5188 52.9041 18.9557 52.9098 18.3926 52.9167Z" fill="var(--fill-0, white)" fill-opacity="0.5"/>
<path id="Vector_5" d="M51.0625 49.5C52.2383 49.5 52.2383 49.5 52.5411 49.7783C52.6177 49.9035 52.6898 50.0315 52.7579 50.1615C52.8409 50.301 52.9239 50.4405 53.0069 50.5801C53.067 50.6864 53.067 50.6864 53.1283 50.7948C53.3013 51.0961 53.4941 51.383 53.687 51.6719C53.9366 52.0536 54.1833 52.4371 54.4285 52.8215C54.5513 53.0139 54.6743 53.2061 54.7974 53.3982C54.8879 53.5399 54.978 53.6819 55.0681 53.8239C55.1511 53.9536 55.1511 53.9536 55.2358 54.0859C55.2853 54.1638 55.3349 54.2416 55.3859 54.3218C55.499 54.509 55.499 54.509 55.6816 54.5833C55.7048 54.5219 55.7279 54.4605 55.7517 54.3972C55.8427 54.1828 55.9436 54.0049 56.0724 53.8112C56.1163 53.7446 56.1603 53.6781 56.2056 53.6095C56.2527 53.539 56.2998 53.4685 56.3483 53.3958C56.4477 53.2456 56.5471 53.0953 56.6465 52.945C56.6962 52.87 56.746 52.795 56.7973 52.7177C57.0044 52.4049 57.2092 52.0905 57.4138 51.776C57.4882 51.6619 57.5625 51.5477 57.6369 51.4336C57.6738 51.3769 57.7107 51.3203 57.7488 51.2619C57.874 51.0699 57.9995 50.878 58.1251 50.6862C58.1676 50.6211 58.2102 50.5559 58.2541 50.4888C58.3361 50.3635 58.4181 50.2382 58.5002 50.1129C58.6983 49.8132 58.6983 49.8132 58.873 49.5C59.0673 49.4978 59.2615 49.4961 59.4557 49.4948C59.5638 49.4938 59.672 49.4929 59.7834 49.4919C60.0488 49.5 60.0488 49.5 60.1328 49.5833C60.1407 49.7674 60.1427 49.9517 60.1423 50.1359C60.1424 50.1936 60.1424 50.2514 60.1424 50.3108C60.1423 50.5025 60.1417 50.6941 60.141 50.8857C60.1409 51.0183 60.1407 51.1508 60.1407 51.2833C60.1403 51.6328 60.1395 51.9823 60.1386 52.3318C60.1377 52.6882 60.1373 53.0445 60.1369 53.4009C60.136 54.1006 60.1346 54.8003 60.1328 55.5C59.8557 55.5 59.5785 55.5 59.293 55.5C59.2653 53.8775 59.2375 52.255 59.209 50.5833C58.5264 51.6301 58.5264 51.6301 57.8442 52.6771C57.5726 53.0941 57.2998 53.5104 57.026 53.9261C56.9686 54.0134 56.9111 54.1006 56.8519 54.1905C56.738 54.3635 56.624 54.5364 56.5099 54.7092C56.4581 54.7879 56.4063 54.8665 56.3529 54.9476C56.3064 55.018 56.2599 55.0884 56.2121 55.1609C56.1001 55.3291 56.1001 55.3291 56.0176 55.5C55.7117 55.5872 55.4828 55.5962 55.1777 55.5C54.882 55.1898 54.6809 54.8321 54.4656 54.464C54.2165 54.0466 53.9467 53.642 53.6818 53.2344C53.5762 53.07 53.4706 52.9056 53.3652 52.7412C52.8812 51.9918 52.3912 51.2463 51.9023 50.5C51.8746 52.15 51.8469 53.8 51.8184 55.5C51.5689 55.5 51.3195 55.5 51.0625 55.5C51.0625 53.52 51.0625 51.54 51.0625 49.5Z" fill="var(--fill-0, white)" fill-opacity="0.5"/>
<path id="Vector_6" d="M40.9004 49.5C42.0762 49.5 42.0762 49.5 42.3338 49.6827C42.3851 49.7675 42.4364 49.8522 42.4892 49.9395C42.5186 49.9854 42.548 50.0313 42.5783 50.0786C42.6723 50.2273 42.7599 50.3789 42.8478 50.5313C42.9118 50.6349 42.9762 50.7384 43.0409 50.8416C43.1992 51.0958 43.3527 51.3524 43.5048 51.6102C43.6234 51.8098 43.7459 52.007 43.8687 52.2041C44.0212 52.4489 44.1719 52.6946 44.3211 52.9414C44.5252 53.2762 44.7467 53.5969 44.9789 53.9131C45.0996 54.0833 45.0996 54.0833 45.2308 54.3083C45.3342 54.5095 45.3342 54.5095 45.5195 54.5833C45.5427 54.5221 45.5659 54.4608 45.5897 54.3977C45.6807 54.1827 45.7819 54.0002 45.908 53.804C45.9527 53.7342 45.9975 53.6643 46.0437 53.5923C46.0924 53.5172 46.1412 53.442 46.1914 53.3646C46.2422 53.2857 46.293 53.2069 46.3454 53.1256C46.8427 52.3577 47.3534 51.5986 47.8675 50.8418C48.1651 50.4022 48.4559 49.9654 48.7109 49.5C49.0989 49.5 49.487 49.5 49.8867 49.5C49.8867 51.48 49.8867 53.46 49.8867 55.5C49.6373 55.5 49.3879 55.5 49.1309 55.5C49.1031 53.8775 49.0754 52.255 49.0469 50.5833C48.2113 51.8477 47.3802 53.1143 46.5602 54.3887C46.5111 54.4645 46.462 54.5403 46.4115 54.6184C46.3244 54.756 46.2397 54.8951 46.1582 55.0361C45.9037 55.4731 45.9037 55.4731 45.6603 55.609C45.4034 55.623 45.2527 55.6051 45.0156 55.5C44.723 55.1825 44.5165 54.8262 44.2992 54.4554C44.0684 54.0712 43.8154 53.7012 43.5669 53.3281C42.9482 52.3916 42.3462 51.4448 41.7402 50.5C41.7125 52.15 41.6848 53.8 41.6562 55.5C41.4068 55.5 41.1574 55.5 40.9004 55.5C40.9004 53.52 40.9004 51.54 40.9004 49.5Z" fill="var(--fill-0, white)" fill-opacity="0.5"/>
<path id="Vector_7" d="M25.4473 49.5C26.7828 49.4897 26.7828 49.4897 28.1453 49.4792C28.5659 49.4746 28.5659 49.4746 28.995 49.47C29.2176 49.469 29.4403 49.4681 29.6629 49.4674C29.7203 49.4666 29.7777 49.4657 29.8368 49.4648C30.0072 49.4624 30.1776 49.4622 30.3479 49.4622C30.4438 49.4614 30.5396 49.4607 30.6384 49.4599C31.0341 49.5191 31.2937 49.7112 31.5654 49.996C31.7478 50.3178 31.7016 50.6707 31.6989 51.0313C31.7005 51.109 31.7022 51.1868 31.7039 51.2669C31.7036 51.7639 31.6465 52.0324 31.3262 52.4167C31.2846 52.4992 31.2846 52.4992 31.2422 52.5833C31.2959 52.6349 31.3496 52.6865 31.4049 52.7396C31.6944 53.0355 31.6721 53.223 31.6703 53.6283C31.6699 53.791 31.6699 53.791 31.6695 53.957C31.6688 54.072 31.6681 54.1871 31.6674 54.3021C31.6669 54.4178 31.6666 54.5334 31.6662 54.6491C31.6652 54.9327 31.6638 55.2164 31.6621 55.5C31.4127 55.5 31.1632 55.5 30.9062 55.5C30.905 55.4332 30.9038 55.3663 30.9025 55.2974C30.8963 54.9951 30.8882 54.6929 30.88 54.3906C30.8781 54.2854 30.8762 54.1802 30.8743 54.0718C30.8713 53.9711 30.8683 53.8704 30.8652 53.7666C30.863 53.6736 30.8608 53.5807 30.8586 53.4849C30.8172 53.2173 30.7838 53.1596 30.5703 53C30.369 52.9607 30.369 52.9607 30.1408 52.964C30.0534 52.9623 29.966 52.9607 29.8759 52.959C29.7817 52.9584 29.6875 52.9579 29.5904 52.9574C29.4455 52.9551 29.4455 52.9551 29.2977 52.9528C28.9888 52.9483 28.6799 52.9455 28.371 52.9427C28.1617 52.9399 27.9525 52.9371 27.7432 52.9341C27.2299 52.9268 26.7165 52.9218 26.2031 52.9167C26.2031 53.7692 26.2031 54.6217 26.2031 55.5C25.9537 55.5 25.7043 55.5 25.4473 55.5C25.4473 53.52 25.4473 51.54 25.4473 49.5ZM26.2031 50.25C26.2031 50.855 26.2031 51.46 26.2031 52.0833C26.8324 52.0895 27.4617 52.094 28.091 52.0971C28.3052 52.0983 28.5194 52.1 28.7335 52.1022C29.041 52.1052 29.3485 52.1066 29.656 52.1077C29.8001 52.1097 29.8001 52.1097 29.9471 52.1117C30.0807 52.1117 30.0807 52.1117 30.2171 52.1117C30.2956 52.1123 30.3741 52.1128 30.455 52.1134C30.6579 52.0983 30.6579 52.0983 30.8053 51.9744C30.9712 51.7425 30.9459 51.4872 30.943 51.2135C30.9446 51.1036 30.9462 50.9938 30.9479 50.8805C30.8995 50.535 30.841 50.4612 30.5703 50.25C30.3611 50.2022 30.3611 50.2022 30.1313 50.2122C30.0002 50.2122 30.0002 50.2122 29.8664 50.2122C29.7726 50.214 29.6788 50.2157 29.5822 50.2174C29.4375 50.2182 29.4375 50.2182 29.2899 50.2189C28.9818 50.2207 28.6738 50.2249 28.3657 50.2292C28.1569 50.2308 27.948 50.2324 27.7391 50.2337C27.2271 50.2374 26.7151 50.2432 26.2031 50.25Z" fill="var(--fill-0, white)" fill-opacity="0.5"/>
<path id="Vector_8" d="M63.0902 49.4758C63.2181 49.4742 63.2181 49.4742 63.3485 49.4726C63.4854 49.4723 63.4854 49.4723 63.6251 49.472C63.7198 49.4714 63.8145 49.4709 63.9122 49.4703C64.1124 49.4695 64.3127 49.4691 64.513 49.4691C64.8182 49.4687 65.1234 49.4657 65.4286 49.4626C65.6235 49.4621 65.8184 49.4617 66.0134 49.4616C66.1495 49.4598 66.1495 49.4598 66.2883 49.458C66.9669 49.462 67.4087 49.5964 67.9276 50.0312C68.3379 50.5197 68.4025 50.9245 68.4026 51.5381C68.4036 51.6509 68.4036 51.6509 68.4046 51.766C68.4055 51.9246 68.4057 52.0832 68.4054 52.2419C68.4053 52.4828 68.4088 52.7235 68.4125 52.9644C68.4129 53.1191 68.4132 53.2739 68.4131 53.4287C68.4145 53.4998 68.4159 53.5709 68.4173 53.6442C68.4113 54.1735 68.2712 54.5778 67.9434 55C67.525 55.3318 67.1403 55.5088 66.6007 55.5147C66.4728 55.5163 66.4728 55.5163 66.3424 55.518C66.2503 55.5186 66.1581 55.5192 66.0632 55.5199C65.9207 55.5209 65.9207 55.5209 65.7754 55.5219C65.5741 55.523 65.3728 55.5239 65.1716 55.5246C64.8648 55.526 64.5582 55.5297 64.2515 55.5334C64.0558 55.5342 63.8601 55.5349 63.6644 55.5355C63.5731 55.5369 63.4819 55.5384 63.3878 55.5399C62.754 55.5381 62.3007 55.4464 61.8105 55.0182C61.7543 54.9473 61.7543 54.9473 61.697 54.875C61.6583 54.8277 61.6195 54.7805 61.5796 54.7318C61.3882 54.4561 61.2879 54.2386 61.2829 53.9014C61.2815 53.8335 61.2802 53.7657 61.2788 53.6957C61.2783 53.623 61.2779 53.5502 61.2774 53.4753C61.2767 53.3996 61.2759 53.324 61.2751 53.2461C61.2739 53.0861 61.2732 52.9261 61.2729 52.7661C61.2719 52.5228 61.2677 52.2797 61.2635 52.0365C61.2627 51.8806 61.2621 51.7248 61.2617 51.569C61.26 51.4969 61.2584 51.4249 61.2567 51.3506C61.261 50.7704 61.4458 50.3732 61.8527 49.956C62.2336 49.6213 62.5858 49.4801 63.0902 49.4758ZM62.1612 50.77C62.0334 51.0738 62.0267 51.3555 62.028 51.6794C62.0276 51.7442 62.0272 51.809 62.0267 51.8758C62.0262 52.0124 62.0263 52.1491 62.027 52.2857C62.0277 52.4939 62.0253 52.7018 62.0226 52.91C62.0225 53.0432 62.0225 53.1764 62.0228 53.3096C62.0218 53.3713 62.0209 53.433 62.0199 53.4966C62.0257 53.9269 62.1144 54.1768 62.4004 54.5C62.8358 54.8083 63.2696 54.7852 63.7838 54.7803C63.9099 54.7803 63.9099 54.7803 64.0385 54.7804C64.2156 54.7802 64.3927 54.7794 64.5698 54.778C64.8406 54.776 65.1112 54.7763 65.382 54.7769C65.5544 54.7764 65.7268 54.7758 65.8992 54.7751C66.0203 54.7752 66.0203 54.7752 66.1439 54.7753C66.6862 54.7729 66.6862 54.7729 67.1875 54.5833C67.5699 54.1618 67.6214 53.895 67.6245 53.3421C67.625 53.2768 67.6254 53.2114 67.6259 53.144C67.6267 53.0056 67.6273 52.8671 67.6276 52.7286C67.6284 52.5173 67.631 52.3061 67.6337 52.0949C67.6342 51.9603 67.6347 51.8257 67.635 51.6911C67.6365 51.5967 67.6365 51.5967 67.6381 51.5003C67.6365 51.1216 67.6016 50.8772 67.3555 50.5833C66.9148 50.186 66.5034 50.2012 65.9382 50.2057C65.8507 50.2054 65.7631 50.2051 65.6729 50.2048C65.4882 50.2045 65.3035 50.2051 65.1189 50.2065C64.8369 50.2083 64.555 50.2066 64.273 50.2044C64.0932 50.2046 63.9134 50.2051 63.7336 50.2057C63.6076 50.2047 63.6076 50.2047 63.4791 50.2037C62.8958 50.2114 62.5473 50.3055 62.1612 50.77Z" fill="var(--fill-0, white)" fill-opacity="0.5"/>
<path id="Vector_9" d="M33.5098 52.1667C33.5652 52.1942 33.6206 52.2217 33.6777 52.25C33.6372 52.2892 33.5968 52.3284 33.555 52.3688C33.4755 52.4466 33.4755 52.4466 33.3943 52.526C33.3154 52.6029 33.3154 52.6029 33.2348 52.6813C33.0747 52.8407 33.0747 52.8407 32.9219 53.0833C32.9337 52.8319 32.9465 52.6468 33.1236 52.4574C33.2485 52.3556 33.3789 52.2606 33.5098 52.1667Z" fill="var(--fill-0, white)" fill-opacity="0.5"/>
<path id="Vector_10" d="M30.8223 7C30.8777 7.0275 30.9331 7.055 30.9902 7.08333C30.9348 7.27583 30.8794 7.46833 30.8223 7.66667C30.7668 7.61167 30.7114 7.55667 30.6543 7.5C30.488 7.5825 30.488 7.5825 30.3184 7.66667C30.4846 7.44667 30.6509 7.22667 30.8223 7Z" fill="var(--fill-0, white)" fill-opacity="0.5"/>
</g>
</svg>
