<svg preserveAspectRatio="none" width="100%" height="100%" overflow="visible" style="display: block;" viewBox="0 0 92 16" fill="none" xmlns="http://www.w3.org/2000/svg">
<g id="Simplification" clip-path="url(#clip0_8066_21285)">
<path id="Vector" d="M4.60007 0.247613C7.29675 0.21388 9.99336 0.188114 12.6902 0.172362C13.9426 0.1648 15.1949 0.154551 16.4472 0.138046C17.6571 0.122202 18.8668 0.113568 20.0767 0.109815C20.537 0.107143 20.9973 0.101925 21.4576 0.0940528C26.1318 0.0173319 26.1318 0.0173319 27.8876 1.69999C28.901 2.77512 29.1149 3.59658 29.1634 5.04047C29.1239 6.37779 28.7654 7.18816 28.1751 8.38095C28.2996 8.59063 28.4241 8.80032 28.5524 9.01636C29.3163 10.3027 29.2533 11.5677 29.0376 13.0286C28.4759 14.4604 27.4452 15.3297 26.075 15.9887C24.3032 16.5262 22.3809 16.3627 20.5473 16.3373C20.0865 16.3351 19.6257 16.3334 19.1649 16.3323C17.9587 16.3279 16.7526 16.3165 15.5464 16.3036C14.313 16.2916 13.0795 16.2864 11.846 16.2805C9.4306 16.2681 7.01536 16.2483 4.60007 16.2238C4.60007 15.0735 4.60007 13.9232 4.60007 12.7381C4.84732 12.7357 5.09457 12.7334 5.34931 12.731C7.67616 12.7084 10.003 12.683 12.3297 12.6546C13.5261 12.64 14.7224 12.6266 15.9187 12.6155C17.0726 12.6049 18.2265 12.5914 19.3804 12.576C19.8212 12.5706 20.2621 12.5662 20.703 12.5628C21.3191 12.5579 21.9352 12.5495 22.5513 12.5402C22.9024 12.5364 23.2535 12.5325 23.6153 12.5285C24.4751 12.5327 24.4751 12.5327 25.0126 11.8667C25.0126 11.3874 25.0126 10.9081 25.0126 10.4143C18.2764 10.3184 11.5403 10.2226 4.60007 10.1238C4.60007 8.87766 4.60007 7.63152 4.60007 6.34761C5.198 6.34186 5.79593 6.3361 6.41197 6.33017C8.38459 6.31076 10.3572 6.2882 12.3297 6.26409C13.5261 6.24957 14.7224 6.23611 15.9187 6.22507C17.0726 6.21438 18.2265 6.20092 19.3804 6.18551C19.8212 6.18011 20.2621 6.17573 20.703 6.17236C21.3191 6.16747 21.9352 6.15904 22.5513 6.14975C22.9024 6.14588 23.2535 6.14201 23.6153 6.13803C24.4751 6.14224 24.4751 6.14224 25.0126 5.47618C25.0126 4.9969 25.0126 4.51761 25.0126 4.0238C18.2764 3.92795 11.5403 3.83209 4.60007 3.73333C4.60007 2.58304 4.60007 1.43276 4.60007 0.247613Z" fill="var(--fill-0, white)" fill-opacity="0.5"/>
<path id="Vector_2" d="M62.675 0.247622C65.0243 0.220577 67.3737 0.199993 69.7232 0.187422C70.8144 0.181385 71.9056 0.173209 72.9967 0.159969C74.0518 0.147248 75.1069 0.140377 76.162 0.137384C76.5625 0.135254 76.963 0.131096 77.3634 0.124774C80.6747 0.0746237 83.322 0.510018 85.7626 2.89595C87.5192 4.86704 87.6385 6.93946 87.528 9.52017C87.364 11.5478 86.4774 12.8842 85.064 14.2813C82.4747 16.2515 79.6487 16.3877 76.5165 16.3373C76.1149 16.3351 75.7134 16.3335 75.3118 16.3323C74.2658 16.3279 73.22 16.3165 72.174 16.3036C71.1024 16.2916 70.0307 16.2864 68.959 16.2805C66.8642 16.2682 64.7696 16.2484 62.675 16.2238C62.675 15.1694 62.675 14.115 62.675 13.0286C63.0034 13.0213 63.3319 13.014 63.6703 13.0065C64.9173 12.9787 66.1642 12.9497 67.4111 12.9204C67.9454 12.908 68.4798 12.8959 69.0142 12.8841C70.5735 12.8496 72.1324 12.809 73.6914 12.7607C74.205 12.7457 74.7187 12.7325 75.2324 12.7211C75.9684 12.7044 76.7039 12.6806 77.4396 12.6553C77.6568 12.6518 77.874 12.6483 78.0977 12.6447C80.0465 12.5644 81.6032 11.961 82.9437 10.5051C83.5012 9.26113 83.6109 8.27205 83.375 6.92858C82.7349 5.63529 82.0783 4.93378 80.7875 4.31429C79.8437 4.01573 78.967 3.98104 77.9807 3.96878C77.6479 3.96393 77.3151 3.95907 76.9722 3.95407C76.6143 3.95012 76.2564 3.94618 75.8876 3.94212C75.3258 3.93395 74.764 3.92578 74.2021 3.91751C73.0165 3.90051 71.8308 3.88594 70.6451 3.871C69.2959 3.8539 67.9468 3.83469 66.5978 3.81503C66.2381 3.81109 65.8784 3.80715 65.5079 3.80308C65.0127 3.7958 65.0127 3.7958 64.5076 3.78837C64.2154 3.78473 63.9233 3.78109 63.6223 3.77734C62.9625 3.73334 62.9625 3.73334 62.675 3.44286C62.6542 2.90464 62.6509 2.36568 62.657 1.82709C62.6596 1.53315 62.6622 1.23921 62.6648 0.936369C62.6682 0.709082 62.6715 0.481796 62.675 0.247622Z" fill="var(--fill-0, white)" fill-opacity="0.5"/>
<path id="Vector_3" d="M55.4875 0.247628C56.8158 0.247628 58.144 0.247628 59.5125 0.247628C59.5358 1.52462 59.5529 2.80118 59.5664 4.07828C59.5736 4.44018 59.5809 4.80208 59.5883 5.17494C59.5911 5.52411 59.5939 5.87328 59.5967 6.23303C59.6012 6.55399 59.6058 6.87496 59.6104 7.20565C59.4973 8.22801 59.2766 8.73564 58.65 9.54287C57.5417 10.4263 56.7029 10.5187 55.3112 10.4994C54.9526 10.4966 54.5941 10.4938 54.2246 10.4909C53.8527 10.4836 53.4808 10.4763 53.0977 10.4688C52.5315 10.4629 52.5315 10.4629 51.9538 10.4568C51.0233 10.4466 50.0929 10.431 49.1625 10.4143C49.1625 12.3314 49.1625 14.2486 49.1625 16.2238C47.6445 16.2238 46.1265 16.2238 44.5625 16.2238C44.5625 13.1564 44.5625 10.089 44.5625 6.92858C45.6421 6.90218 45.6421 6.90218 46.7435 6.87525C47.439 6.85731 48.1345 6.83889 48.8301 6.82043C49.3142 6.80784 49.7983 6.79573 50.2825 6.78412C50.9776 6.76737 51.6726 6.74887 52.3677 6.73001C52.5848 6.72516 52.802 6.7203 53.0257 6.7153C54.1499 6.7033 54.1499 6.7033 55.2 6.34763C55.2949 4.33463 55.3898 2.32163 55.4875 0.247628Z" fill="var(--fill-0, white)" fill-opacity="0.5"/>
<path id="Vector_4" d="M32.4874 0.247628C33.8157 0.247628 35.1439 0.247628 36.5124 0.247628C36.5299 0.684602 36.5473 1.12158 36.5652 1.57179C36.5895 2.14102 36.6138 2.71025 36.6382 3.27947C36.6495 3.56798 36.6608 3.85649 36.6725 4.15374C36.6905 4.56516 36.6905 4.56516 36.709 4.98489C36.7195 5.23892 36.7301 5.49296 36.7409 5.75469C36.7372 6.34552 36.7372 6.34552 37.0874 6.6381C37.5568 6.68375 38.028 6.71097 38.4991 6.73001C38.9258 6.74827 38.9258 6.74827 39.3611 6.76689C39.6603 6.77831 39.9596 6.78973 40.2679 6.8015C40.5683 6.81404 40.8687 6.82659 41.1781 6.83951C41.9229 6.87043 42.6677 6.89966 43.4124 6.92858C43.4124 8.07887 43.4124 9.22915 43.4124 10.4143C42.2104 10.4359 41.0085 10.4517 39.8064 10.4622C39.3979 10.4665 38.9894 10.4725 38.5809 10.48C37.9921 10.4907 37.4034 10.4956 36.8145 10.4994C36.2838 10.5062 36.2838 10.5062 35.7424 10.5132C34.4418 10.3785 33.7503 9.94421 32.8341 9.02574C32.3618 8.14725 32.3898 7.48467 32.4032 6.48833C32.406 6.12512 32.4088 5.76191 32.4116 5.3877C32.4225 4.82042 32.4225 4.82042 32.4335 4.24168C32.4394 3.66766 32.4394 3.66766 32.4453 3.08204C32.4555 2.13719 32.471 1.19239 32.4874 0.247628Z" fill="var(--fill-0, white)" fill-opacity="0.5"/>
</g>
<defs>
<clipPath id="clip0_8066_21285">
<rect width="92" height="16" fill="white"/>
</clipPath>
</defs>
</svg>
