<svg preserveAspectRatio="none" width="100%" height="100%" overflow="visible" style="display: block;" viewBox="0 0 203 40" fill="none" xmlns="http://www.w3.org/2000/svg">
<g id="Simplification">
<path id="Vector" d="M104.995 11.197C105.671 11.197 106.347 11.197 107.043 11.197C107.043 16.7246 107.043 22.2521 107.043 27.9472C106.407 27.9472 105.771 27.9472 105.115 27.9472C105.055 27.5235 105.055 27.5235 104.995 27.0913C104.9 27.1503 104.805 27.2092 104.708 27.27C103.37 28.0861 102.227 28.4297 100.657 28.1205C99.4344 27.7348 98.5239 26.8403 97.9147 25.7144C97.4839 24.7538 97.2041 23.7458 97.1621 22.6898C97.1573 22.5888 97.1524 22.4878 97.1475 22.3837C97.0988 20.3881 97.5096 18.4997 98.8641 16.9969C99.8393 16.0331 100.947 15.7976 102.262 15.8086C103.335 15.8919 104.001 16.3107 104.874 16.9434C104.914 15.0471 104.954 13.1508 104.995 11.197ZM100.175 18.7774C99.1809 20.0228 99.2176 21.6562 99.3311 23.1789C99.4681 24.1731 99.8495 25.1234 100.61 25.7966C101.375 26.3353 102.168 26.3096 103.067 26.2355C103.886 26.0316 104.401 25.5871 104.874 24.8906C105.011 24.6133 105.012 24.4554 105.016 24.1473C105.017 24.0445 105.019 23.9416 105.021 23.8356C105.021 23.7242 105.022 23.6127 105.023 23.4979C105.024 23.3833 105.025 23.2687 105.026 23.1506C105.028 22.9077 105.029 22.6647 105.03 22.4217C105.032 22.0511 105.037 21.6806 105.043 21.3101C105.044 21.074 105.045 20.8379 105.046 20.6018C105.048 20.4913 105.05 20.3809 105.052 20.2671C105.05 19.5845 104.962 19.1959 104.513 18.6551C103.715 17.8807 103.047 17.7471 101.971 17.7687C101.182 17.8375 100.692 18.1669 100.175 18.7774Z" fill="var(--fill-0, white)" fill-opacity="0.5"/>
<path id="Vector_2" d="M118.129 16.7338C119.071 17.5524 119.382 18.5483 119.489 19.7863C119.503 20.2075 119.508 20.6274 119.508 21.0488C119.51 21.2783 119.51 21.2783 119.513 21.5125C119.517 21.9149 119.519 22.3173 119.521 22.7197C119.524 23.2874 119.528 23.855 119.533 24.4226C119.536 24.7236 119.538 25.0246 119.539 25.3257C119.545 26.0836 119.611 26.7303 119.816 27.4581C119.816 27.6195 119.816 27.7809 119.816 27.9472C119.06 27.9472 118.305 27.9472 117.527 27.9472C117.447 27.6244 117.367 27.3016 117.286 26.9691C117.204 27.04 117.204 27.04 117.121 27.1124C115.924 28.0958 114.715 28.3494 113.189 28.1917C112.133 27.9846 111.35 27.4287 110.658 26.6023C110.113 25.7413 110.057 24.7885 110.176 23.7902C110.438 22.7586 110.932 22.0257 111.818 21.4443C113.164 20.6689 114.634 20.589 116.148 20.6037C116.313 20.6045 116.313 20.6045 116.482 20.6054C116.75 20.6068 117.018 20.6088 117.286 20.6113C117.255 19.7578 117.196 18.9938 116.683 18.2883C115.996 17.7479 115.233 17.7318 114.394 17.7993C113.816 17.9083 113.35 18.0624 112.955 18.5176C112.675 18.9204 112.675 18.9204 112.466 19.511C111.79 19.511 111.114 19.511 110.417 19.511C110.468 18.409 110.787 17.7475 111.569 16.9816C113.345 15.4849 116.264 15.3493 118.129 16.7338ZM112.624 23.2037C112.328 23.6138 112.229 24.0191 112.225 24.5238C112.316 25.0566 112.493 25.4051 112.865 25.7923C113.643 26.27 114.385 26.3437 115.269 26.1873C116.06 25.9699 116.607 25.4863 117.165 24.8906C117.307 24.6034 117.299 24.4336 117.297 24.114C117.297 24.01 117.297 23.906 117.296 23.7988C117.295 23.6901 117.294 23.5813 117.293 23.4693C117.293 23.3596 117.292 23.2499 117.291 23.1369C117.29 22.8656 117.288 22.5943 117.286 22.323C114.784 22.1425 114.784 22.1425 112.624 23.2037Z" fill="var(--fill-0, white)" fill-opacity="0.5"/>
<path id="Vector_3" d="M72.2454 16.6463C73.1208 17.3608 73.579 18.2757 73.7093 19.4127C73.7274 19.84 73.7312 20.2649 73.7295 20.6925C73.7309 20.8481 73.7323 21.0037 73.7338 21.164C73.7373 21.5741 73.7389 21.984 73.7394 22.394C73.7404 22.9715 73.7438 23.549 73.7485 24.1265C73.7508 24.4328 73.752 24.7391 73.7517 25.0455C73.756 25.7555 73.7858 26.407 73.9745 27.093C74.026 27.3358 74.026 27.3358 74.026 27.9472C73.3103 27.9472 72.5945 27.9472 71.857 27.9472C71.7377 27.6244 71.6184 27.3016 71.4955 26.9691C71.4142 27.04 71.4142 27.04 71.3313 27.1123C70.1671 28.0687 69.0037 28.3334 67.519 28.1917C66.5003 28.0192 65.7672 27.5489 65.0714 26.7857C64.4245 25.8133 64.2461 24.8763 64.4373 23.7262C64.6365 22.9203 64.9969 22.3977 65.591 21.834C65.6838 21.7453 65.6838 21.7453 65.7784 21.6549C67.044 20.6039 68.8662 20.5894 70.4186 20.6037C70.5923 20.6045 70.5923 20.6045 70.7695 20.6053C71.0517 20.6068 71.3338 20.6088 71.616 20.6113C71.568 20.3179 71.5175 20.0253 71.4654 19.7325C71.4522 19.6502 71.439 19.5678 71.4254 19.483C71.3228 18.9212 71.1702 18.5711 70.7725 18.166C70.1272 17.7472 69.3458 17.6983 68.6035 17.7992C67.9669 17.9635 67.521 18.1429 67.0897 18.6551C66.8969 19.0319 66.8969 19.0319 66.796 19.5109C66.0803 19.5109 65.3645 19.5109 64.627 19.5109C64.6599 18.4592 64.9694 17.8022 65.7172 17.068C67.4883 15.5737 70.3082 15.2877 72.2454 16.6463ZM66.796 23.3011C66.4895 23.8219 66.4752 24.2979 66.555 24.8906C66.7175 25.3547 66.9459 25.6771 67.3383 25.9757C68.1962 26.3674 69.0186 26.3289 69.8989 26.0215C70.7061 25.6948 71.1945 25.3065 71.616 24.5238C71.6722 24.1391 71.662 23.7653 71.6462 23.3775C71.644 23.2759 71.6418 23.1742 71.6396 23.0695C71.6339 22.8206 71.6253 22.5718 71.616 22.323C71.1817 22.3122 70.7475 22.3058 70.3131 22.3001C70.192 22.297 70.071 22.2939 69.9462 22.2908C68.7681 22.2792 67.6386 22.4024 66.796 23.3011Z" fill="var(--fill-0, white)" fill-opacity="0.5"/>
<path id="Vector_4" d="M92.8768 16.653C93.5075 17.1845 93.9879 17.9594 94.1496 18.7774C94.162 19.0011 94.1683 19.2252 94.1705 19.4493C94.1721 19.5841 94.1737 19.7188 94.1754 19.8577C94.1773 20.0756 94.1773 20.0756 94.1792 20.298C94.1832 20.6073 94.1872 20.9167 94.1912 21.226C94.1969 21.7124 94.2023 22.1987 94.207 22.6851C94.2119 23.1554 94.2181 23.6256 94.2244 24.0958C94.2254 24.2392 94.2264 24.3825 94.2275 24.5302C94.2408 25.447 94.342 26.3138 94.5111 27.2136C94.5508 27.4557 94.5906 27.6978 94.6316 27.9472C93.876 27.9472 93.1205 27.9472 92.3421 27.9472C92.1789 27.616 92.2137 27.3347 92.2216 26.9691C92.1399 27.0266 92.0582 27.0841 91.974 27.1434C90.6765 28.0241 89.5768 28.3518 88.0041 28.1917C86.9169 27.9423 85.9771 27.4236 85.3606 26.4647C84.831 25.5575 84.8709 24.3812 85.0429 23.3647C85.3535 22.396 86.0411 21.7588 86.912 21.2991C88.2286 20.686 89.532 20.5898 90.9639 20.6037C91.1289 20.6045 91.1289 20.6045 91.2973 20.6054C91.5653 20.6068 91.8332 20.6088 92.1011 20.6113C92.0227 19.2774 92.0227 19.2774 91.3409 18.1904C90.6861 17.7193 89.8608 17.7206 89.0886 17.7992C88.416 17.9514 87.9562 18.2203 87.5221 18.7774C87.4425 19.0194 87.363 19.2615 87.2811 19.5109C86.6051 19.5109 85.9291 19.5109 85.2326 19.5109C85.2326 18.4428 85.4443 17.9377 86.1514 17.165C87.8982 15.4912 90.8852 15.3059 92.8768 16.653ZM87.4016 23.1789C87.045 23.749 86.9813 24.22 87.0843 24.8729C87.2603 25.4779 87.6275 25.7878 88.1472 26.0979C89.077 26.3763 89.8508 26.2998 90.7356 25.9026C91.3092 25.5838 91.7392 25.1968 92.1011 24.646C92.1341 24.386 92.1341 24.386 92.1246 24.1021C92.1234 23.9466 92.1234 23.9466 92.1223 23.788C92.1202 23.6803 92.1182 23.5726 92.1161 23.4616C92.1151 23.3525 92.114 23.2433 92.1128 23.1309C92.11 22.8616 92.106 22.5923 92.1011 22.323C91.6818 22.3158 91.2626 22.3115 90.8434 22.3077C90.726 22.3057 90.6086 22.3036 90.4877 22.3015C89.3574 22.2939 88.2813 22.3908 87.4016 23.1789Z" fill="var(--fill-0, white)" fill-opacity="0.5"/>
<path id="Vector_5" d="M200.634 16.5384C201.938 17.4879 202.379 18.564 202.72 20.1223C202.72 20.9696 202.72 21.8169 202.72 22.6898C200.175 22.6898 197.63 22.6898 195.008 22.6898C195.43 24.59 195.43 24.59 196.722 25.8773C197.594 26.3402 198.52 26.3419 199.459 26.1209C200.214 25.8755 200.728 25.3308 201.274 24.7683C201.61 24.9299 201.908 25.1111 202.208 25.3338C202.282 25.3883 202.356 25.4428 202.432 25.499C202.487 25.5403 202.543 25.5816 202.599 25.6242C202.509 26.4287 201.985 26.8399 201.394 27.3359C200.018 28.2275 198.449 28.4143 196.863 28.1076C195.409 27.6922 194.266 26.8838 193.497 25.5463C192.678 23.8423 192.542 21.5751 193.08 19.7555C193.625 18.3086 194.359 17.0819 195.746 16.3397C195.94 16.2523 196.136 16.1678 196.333 16.0876C196.527 16.0081 196.527 16.0081 196.725 15.9271C198.113 15.669 199.426 15.781 200.634 16.5384ZM195.851 18.6551C195.346 19.3881 195.208 19.9449 195.008 20.8559C196.877 20.8559 198.746 20.8559 200.671 20.8559C200.556 19.8006 200.4 18.9112 199.61 18.166C198.354 17.367 196.873 17.5716 195.851 18.6551Z" fill="var(--fill-0, white)" fill-opacity="0.5"/>
<path id="Vector_6" d="M53.0591 12.0528C56.28 12.0528 59.501 12.0528 62.8196 12.0528C62.8196 12.6984 62.8196 13.3439 62.8196 14.009C60.3144 14.009 57.8092 14.009 55.2281 14.009C55.2281 15.7036 55.2281 17.3982 55.2281 19.1441C57.3754 19.1441 59.5227 19.1441 61.7351 19.1441C61.7351 19.7897 61.7351 20.4352 61.7351 21.1003C59.5878 21.1003 57.4405 21.1003 55.2281 21.1003C55.2281 23.3598 55.2281 25.6192 55.2281 27.9471C54.5123 27.9471 53.7965 27.9471 53.0591 27.9471C53.0591 22.702 53.0591 17.4569 53.0591 12.0528Z" fill="var(--fill-0, white)" fill-opacity="0.5"/>
<path id="Vector_7" d="M140.903 12.0528C144.085 12.0528 147.266 12.0528 150.543 12.0528C150.543 12.6984 150.543 13.3439 150.543 14.009C148.078 14.009 145.613 14.009 143.072 14.009C143.072 15.7036 143.072 17.3982 143.072 19.1441C145.22 19.1441 147.367 19.1441 149.579 19.1441C149.579 19.7897 149.579 20.4352 149.579 21.1003C147.432 21.1003 145.285 21.1003 143.072 21.1003C143.072 23.3598 143.072 25.6192 143.072 27.9471C142.357 27.9471 141.641 27.9471 140.903 27.9471C140.903 22.702 140.903 17.4569 140.903 12.0528Z" fill="var(--fill-0, white)" fill-opacity="0.5"/>
<path id="Vector_8" d="M121.382 16.0876C122.138 16.0876 122.894 16.0876 123.672 16.0876C124.079 17.0503 124.079 17.0503 124.218 17.4883C124.249 17.5864 124.281 17.6844 124.313 17.7855C124.362 17.941 124.362 17.941 124.412 18.0997C124.465 18.2651 124.465 18.2651 124.519 18.4338C124.631 18.7851 124.743 19.1366 124.854 19.488C125.001 19.9474 125.147 20.4066 125.294 20.8659C125.329 20.9777 125.365 21.0894 125.401 21.2046C125.742 22.2725 126.091 23.3374 126.443 24.4015C127.172 22.2654 127.819 20.1077 128.455 17.9417C128.488 17.8283 128.522 17.715 128.556 17.5982C128.62 17.3823 128.683 17.1663 128.746 16.9503C128.96 16.2236 128.96 16.2236 129.094 16.0876C129.265 16.077 129.436 16.0745 129.607 16.0756C129.761 16.0762 129.761 16.0762 129.919 16.0768C130.081 16.0784 130.081 16.0784 130.247 16.0799C130.355 16.0805 130.464 16.081 130.576 16.0816C130.845 16.083 131.115 16.0851 131.384 16.0876C131.038 17.3086 130.629 18.5076 130.224 19.7096C130.166 19.8829 130.166 19.8829 130.106 20.0597C129.457 21.9901 128.794 23.9154 128.123 25.8381C128.08 25.9607 128.037 26.0833 127.993 26.2096C127.591 27.3644 127.185 28.5184 126.767 29.6675C126.713 29.8172 126.659 29.967 126.603 30.1213C126.17 31.1919 125.484 32.1079 124.418 32.578C123.647 32.8364 122.887 32.7519 122.105 32.5932C122.105 31.9477 122.105 31.3021 122.105 30.637C122.424 30.637 122.742 30.637 123.069 30.637C123.378 30.5869 123.378 30.5869 123.642 30.4918C123.728 30.4649 123.815 30.4379 123.904 30.4102C124.517 30.0671 124.787 29.41 125.05 28.7801C125.086 28.7057 125.121 28.6312 125.157 28.5545C125.36 28.0669 125.371 27.7574 125.21 27.2522C125.175 27.1446 125.141 27.037 125.106 26.9261C124.944 26.4432 124.776 25.9633 124.601 25.4852C124.564 25.3832 124.527 25.2813 124.488 25.1762C124.41 24.9602 124.331 24.7442 124.253 24.5283C124.048 23.9659 123.844 23.4031 123.64 22.8403C123.601 22.7305 123.561 22.6207 123.52 22.5075C123.182 21.5724 122.856 20.6337 122.538 19.6915C122.252 18.8448 121.948 18.0051 121.633 17.1689C121.493 16.7923 121.382 16.4936 121.382 16.0876Z" fill="var(--fill-0, white)" fill-opacity="0.5"/>
<path id="Vector_9" d="M172.956 16.0875C173.672 16.0875 174.388 16.0875 175.125 16.0875C175.127 16.3423 175.129 16.5971 175.131 16.8596C175.137 17.7034 175.145 18.5471 175.154 19.3908C175.159 19.9022 175.164 20.4135 175.167 20.9249C175.17 21.4188 175.175 21.9126 175.181 22.4065C175.183 22.5945 175.185 22.7825 175.185 22.9705C175.187 23.2348 175.19 23.499 175.194 23.7632C175.195 23.9134 175.197 24.0635 175.198 24.2182C175.279 24.9384 175.522 25.5233 176.089 25.9909C176.866 26.2537 177.888 26.2355 178.673 25.9909C179.239 25.7017 179.639 25.3351 179.945 24.7683C180.069 24.1037 180.061 23.4469 180.054 22.7738C180.055 22.5806 180.057 22.3874 180.059 22.1942C180.063 21.6884 180.061 21.1828 180.059 20.677C180.058 20.1599 180.061 19.6427 180.064 19.1255C180.07 18.1128 180.069 17.1002 180.066 16.0875C180.782 16.0875 181.498 16.0875 182.235 16.0875C182.235 20.0012 182.235 23.9149 182.235 27.9471C181.559 27.9471 180.883 27.9471 180.186 27.9471C180.127 27.5235 180.127 27.5235 180.066 27.0913C180.002 27.14 179.937 27.1887 179.871 27.2389C178.629 28.1353 177.487 28.3167 175.969 28.1917C175.059 28.0107 174.279 27.5761 173.699 26.8262C173.085 25.8456 172.941 24.796 172.943 23.6522C172.943 23.5698 172.943 23.4874 172.943 23.4024C172.943 23.1332 172.944 22.864 172.945 22.5947C172.945 22.4068 172.945 22.2189 172.945 22.031C172.946 21.5387 172.947 21.0465 172.948 20.5543C172.949 20.051 172.95 19.5478 172.951 19.0445C172.952 18.0589 172.954 17.0732 172.956 16.0875Z" fill="var(--fill-0, white)" fill-opacity="0.5"/>
<path id="Vector_10" d="M152.471 16.0875C153.148 16.0875 153.824 16.0875 154.52 16.0875C154.522 16.3268 154.525 16.5662 154.527 16.8128C154.535 17.6063 154.545 18.3997 154.555 19.1932C154.561 19.674 154.566 20.1548 154.571 20.6355C154.575 21.1001 154.581 21.5646 154.587 22.0292C154.589 22.2058 154.591 22.3825 154.593 22.5591C154.584 24.3288 154.584 24.3288 155.363 25.8687C156.146 26.2777 157.144 26.2429 157.983 26.0291C158.677 25.7449 159.122 25.3324 159.46 24.646C159.475 24.3752 159.482 24.1039 159.485 23.8326C159.486 23.7491 159.488 23.6656 159.489 23.5795C159.493 23.303 159.496 23.0265 159.499 22.75C159.501 22.5584 159.504 22.3669 159.506 22.1754C159.513 21.6709 159.519 21.1663 159.525 20.6618C159.531 20.1472 159.537 19.6325 159.544 19.1179C159.557 18.1078 159.569 17.0976 159.581 16.0875C160.257 16.0875 160.933 16.0875 161.629 16.0875C161.629 20.0012 161.629 23.9149 161.629 27.9471C160.993 27.9471 160.357 27.9471 159.701 27.9471C159.662 27.7051 159.622 27.463 159.581 27.2136C159.466 27.2739 159.351 27.3343 159.233 27.3965C159.081 27.4756 158.928 27.5548 158.775 27.6338C158.7 27.6736 158.624 27.7134 158.547 27.7544C157.448 28.3203 155.974 28.4015 154.776 28.0771C154 27.7534 153.306 27.1425 152.895 26.4021C152.571 25.6056 152.456 24.8744 152.458 24.0131C152.458 23.9271 152.458 23.8412 152.458 23.7526C152.458 23.4701 152.459 23.1877 152.46 22.9052C152.46 22.7087 152.46 22.5122 152.46 22.3157C152.461 21.7997 152.462 21.2838 152.463 20.7678C152.464 20.2408 152.465 19.7139 152.466 19.1869C152.467 18.1538 152.469 17.1206 152.471 16.0875Z" fill="var(--fill-0, white)" fill-opacity="0.5"/>
<path id="Vector_11" d="M166.088 13.2755C166.804 13.2755 167.52 13.2755 168.257 13.2755C168.257 14.2035 168.257 15.1315 168.257 16.0876C168.933 16.0876 169.609 16.0876 170.306 16.0876C170.306 16.6524 170.306 17.2173 170.306 17.7993C169.63 17.7993 168.954 17.7993 168.257 17.7993C168.262 18.8111 168.269 19.8229 168.279 20.8346C168.284 21.3045 168.288 21.7743 168.29 22.2441C168.292 22.6976 168.296 23.151 168.301 23.6045C168.303 23.7774 168.304 23.9504 168.304 24.1233C168.305 24.3657 168.308 24.608 168.312 24.8503C168.313 24.9883 168.314 25.1262 168.315 25.2683C168.392 25.7037 168.514 25.8501 168.86 26.1132C169.254 26.1722 169.254 26.1722 169.673 26.1438C169.921 26.1337 170.17 26.1236 170.426 26.1132C170.426 26.7184 170.426 27.3236 170.426 27.9472C169.454 28.276 168.345 28.4054 167.379 27.9586C166.686 27.5093 166.378 26.9001 166.16 26.1165C166.017 25.3802 166.044 24.6358 166.053 23.8886C166.053 23.7122 166.054 23.5357 166.054 23.3593C166.056 22.899 166.059 22.4387 166.063 21.9785C166.067 21.5072 166.069 21.0358 166.07 20.5645C166.074 19.6427 166.081 18.721 166.088 17.7993C165.412 17.7993 164.736 17.7993 164.04 17.7993C164.04 17.2344 164.04 16.6695 164.04 16.0876C164.716 16.0876 165.392 16.0876 166.088 16.0876C166.088 15.1596 166.088 14.2316 166.088 13.2755Z" fill="var(--fill-0, white)" fill-opacity="0.5"/>
<path id="Vector_12" d="M191.393 15.9653C191.393 16.6512 191.393 17.3371 191.393 18.0438C191.115 18.0539 190.836 18.064 190.549 18.0744C189.714 18.1226 189.045 18.2314 188.435 18.8419C187.963 19.3937 187.883 19.7062 187.874 20.4242C187.872 20.5459 187.872 20.5459 187.87 20.67C187.866 20.9386 187.863 21.2072 187.86 21.4758C187.858 21.6618 187.855 21.8479 187.853 22.0339C187.846 22.524 187.84 23.014 187.834 23.5041C187.828 24.004 187.822 24.5039 187.815 25.0038C187.802 25.9849 187.79 26.966 187.778 27.9472C187.102 27.9472 186.426 27.9472 185.729 27.9472C185.729 24.0335 185.729 20.1198 185.729 16.0876C186.405 16.0876 187.082 16.0876 187.778 16.0876C187.818 16.4103 187.858 16.7331 187.898 17.0657C187.957 17.0082 188.015 16.9506 188.075 16.8914C189.031 15.991 190.088 15.5238 191.393 15.9653Z" fill="var(--fill-0, white)" fill-opacity="0.5"/>
<path id="Vector_13" d="M82.9429 15.9653C82.9429 16.6512 82.9429 17.3371 82.9429 18.0438C82.6447 18.0538 82.3464 18.0639 82.0392 18.0743C81.0705 18.1275 80.4332 18.2673 79.73 18.9806C79.2479 19.6952 79.3607 20.6084 79.3632 21.4399C79.3616 21.6278 79.3598 21.8158 79.3577 22.0037C79.3529 22.4959 79.3517 22.9881 79.3512 23.4804C79.3501 23.9837 79.3456 24.4869 79.3413 24.9901C79.3336 25.9758 79.3299 26.9614 79.3279 27.9472C78.6519 27.9472 77.9759 27.9472 77.2794 27.9472C77.2794 24.0335 77.2794 20.1198 77.2794 16.0875C77.9554 16.0875 78.6314 16.0875 79.3279 16.0875C79.3677 16.37 79.4074 16.6524 79.4484 16.9434C79.4981 16.8947 79.5478 16.846 79.599 16.7958C80.544 15.9162 81.6771 15.5372 82.9429 15.9653Z" fill="var(--fill-0, white)" fill-opacity="0.5"/>
<path id="Vector_14" d="M17.2706 25.8687C17.5719 26.0742 17.8151 26.2799 17.9936 26.6023C18.0508 27.1196 18.0516 27.3729 17.756 27.807C17.6447 27.9203 17.5334 28.0335 17.4188 28.1501C17.3577 28.2134 17.2965 28.2768 17.2335 28.342C17.0317 28.5499 16.827 28.7546 16.6219 28.9592C16.4804 29.1031 16.3389 29.2472 16.1976 29.3914C15.9013 29.6927 15.6035 29.9925 15.3047 30.2912C14.9219 30.6741 14.5427 31.0603 14.1645 31.4478C13.8731 31.7457 13.58 32.0417 13.2862 32.3373C13.1457 32.4791 13.0057 32.6214 12.8663 32.7642C12.671 32.9636 12.4736 33.1605 12.2754 33.3569C12.1076 33.5257 12.1076 33.5257 11.9365 33.6979C11.5468 33.9821 11.3539 34.0027 10.8841 33.9381C10.629 33.781 10.629 33.781 10.4171 33.5637C10.3454 33.4942 10.2736 33.4247 10.1997 33.3531C9.96663 32.9564 9.99468 32.6822 10.0406 32.2264C10.2768 31.883 10.2768 31.883 10.6119 31.5476C10.6727 31.4856 10.7334 31.4237 10.796 31.3599C10.9963 31.1566 11.1994 30.9565 11.4028 30.7564C11.5429 30.6155 11.6828 30.4745 11.8225 30.3333C12.1902 29.9628 12.5604 29.5949 12.9312 29.2276C13.234 28.9267 13.5349 28.624 13.8358 28.3212C14.4567 27.6964 15.0787 27.0728 15.704 26.4526C15.8148 26.3425 15.9256 26.2324 16.0397 26.119C16.4798 25.7062 16.6945 25.7001 17.2706 25.8687Z" fill="var(--fill-0, white)" fill-opacity="0.5"/>
<path id="Vector_15" d="M21.488 25.8687C21.8075 26.1185 21.8075 26.1185 22.1323 26.4511C22.1922 26.5115 22.252 26.572 22.3137 26.6342C22.5102 26.8334 22.7044 27.0347 22.8987 27.236C23.0351 27.3752 23.1715 27.5142 23.3081 27.6532C23.5935 27.944 23.8779 28.2359 24.1616 28.5286C24.5256 28.9041 24.8911 29.278 25.2573 29.6514C25.6063 30.0073 25.9546 30.3639 26.3028 30.7206C26.4028 30.8229 26.4028 30.8229 26.5048 30.9272C26.6926 31.1198 26.8799 31.3128 27.0672 31.5059C27.1739 31.6158 27.2806 31.7257 27.3906 31.8388C27.665 32.1385 27.7409 32.2772 27.8143 32.6773C27.7361 33.2029 27.5225 33.4049 27.1656 33.7767C26.8103 34.0015 26.602 33.9878 26.1875 33.9381C25.8581 33.6979 25.8581 33.6979 25.5192 33.3569C25.4568 33.295 25.3944 33.2332 25.3301 33.1695C25.1248 32.9651 24.9223 32.758 24.7199 32.5507C24.5778 32.4074 24.4357 32.2641 24.2934 32.121C23.9958 31.8207 23.6997 31.5191 23.4044 31.2166C23.0261 30.8293 22.6444 30.4457 22.2616 30.0631C21.9674 29.7681 21.6751 29.4711 21.3834 29.1735C21.2435 29.0312 21.1029 28.8896 20.9617 28.7487C20.7643 28.5511 20.5698 28.3511 20.3758 28.1501C20.2645 28.0369 20.1533 27.9237 20.0386 27.807C19.7424 27.372 19.7397 27.1208 19.801 26.6023C19.9865 26.3272 19.9865 26.3272 20.2378 26.1132C20.3189 26.0401 20.4 25.9669 20.4835 25.8916C20.8745 25.69 21.0681 25.7522 21.488 25.8687Z" fill="var(--fill-0, white)" fill-opacity="0.5"/>
<path id="Vector_16" d="M30.8032 15.8579C31.2349 16.0006 31.4477 16.2268 31.7696 16.5511C31.8306 16.612 31.8916 16.6728 31.9545 16.7355C32.1553 16.9365 32.3543 17.1393 32.5532 17.3422C32.6925 17.4829 32.8318 17.6235 32.9712 17.764C33.2629 18.0587 33.5537 18.3543 33.8439 18.6505C34.2155 19.0297 34.5895 19.4063 34.9643 19.7823C35.2525 20.072 35.5393 20.3632 35.8258 20.6549C35.9631 20.7943 36.1009 20.9333 36.2392 21.0718C36.4325 21.2658 36.6237 21.4616 36.8146 21.6581C36.9238 21.769 37.0331 21.8799 37.1456 21.9943C37.4251 22.3643 37.4944 22.5942 37.5144 23.0566C37.2468 23.5755 36.8686 23.9707 36.3169 24.1493C35.3057 23.8353 34.4679 22.6749 33.7384 21.9357C33.6215 21.8175 33.5046 21.6992 33.3877 21.581C33.1446 21.3352 32.9018 21.089 32.6592 20.8427C32.3486 20.5276 32.0372 20.2134 31.7256 19.8993C31.4848 19.6563 31.2445 19.4127 31.0043 19.169C30.8342 18.9966 30.6635 18.8247 30.4929 18.6529C30.3898 18.548 30.2868 18.4431 30.1807 18.335C30.0899 18.2431 29.9992 18.1512 29.9057 18.0565C29.6048 17.7106 29.432 17.4708 29.4579 17.0036C29.5819 16.6386 29.7283 16.4784 30.0133 16.2251C30.0947 16.1498 30.1761 16.0744 30.2599 15.9968C30.5254 15.843 30.5254 15.843 30.8032 15.8579Z" fill="var(--fill-0, white)" fill-opacity="0.5"/>
<path id="Vector_17" d="M11.3008 15.8665C11.6314 15.9732 11.7953 16.0853 12.0486 16.3226C12.1316 16.4001 12.2147 16.4777 12.3003 16.5575C12.813 17.0568 13.3188 17.5625 13.8207 18.0729C13.9379 18.1917 14.0551 18.3105 14.1724 18.4293C14.4159 18.6763 14.6592 18.9234 14.9024 19.1707C15.2142 19.4878 15.5266 19.8044 15.8392 20.1208C16.0804 20.365 16.3213 20.6096 16.5621 20.8542C16.7331 21.0279 16.9044 21.2014 17.0757 21.3748C17.1788 21.4797 17.2818 21.5846 17.3879 21.6928C17.5245 21.8314 17.5245 21.8314 17.6637 21.9729C17.9182 22.2499 17.9853 22.4005 18.0538 22.7739C17.9756 23.2995 17.762 23.5015 17.4052 23.8733C17.0498 24.0982 16.8416 24.0845 16.427 24.0347C16.0976 23.7937 16.0976 23.7937 15.7587 23.4515C15.6963 23.3895 15.6339 23.3275 15.5696 23.2636C15.3643 23.0585 15.1618 22.8509 14.9594 22.643C14.8173 22.4994 14.6752 22.3559 14.5329 22.2124C14.2354 21.9116 13.9392 21.6095 13.6439 21.3065C13.2654 20.9183 12.8838 20.5335 12.5012 20.1496C12.2071 19.8539 11.9148 19.5565 11.6229 19.2585C11.4829 19.1159 11.3423 18.9738 11.2012 18.8324C11.0041 18.6342 10.8095 18.4339 10.6153 18.2328C10.4484 18.0626 10.4484 18.0626 10.2781 17.8889C9.99509 17.4908 9.96713 17.3017 10.0405 16.8211C10.7411 15.8221 10.7411 15.8221 11.3008 15.8665Z" fill="var(--fill-0, white)" fill-opacity="0.5"/>
<path id="Vector_18" d="M21.3675 6.06186C21.6969 6.30293 21.6969 6.30293 22.0359 6.64506C22.0983 6.70708 22.1607 6.76911 22.225 6.83301C22.4302 7.03806 22.6327 7.24567 22.8352 7.45357C22.9772 7.5972 23.1194 7.74072 23.2617 7.88414C23.5592 8.18496 23.8554 8.48705 24.1507 8.79011C24.5291 9.17828 24.9107 9.56307 25.2934 9.94694C25.5875 10.2427 25.8798 10.5401 26.1716 10.8381C26.3117 10.9807 26.4523 11.1227 26.5934 11.2642C26.7905 11.4623 26.9851 11.6627 27.1793 11.8637C27.2905 11.9772 27.4018 12.0907 27.5165 12.2076C27.7975 12.603 27.8191 12.7983 27.754 13.2754C27.5865 13.53 27.5865 13.53 27.3624 13.7416C27.2897 13.813 27.217 13.8844 27.1421 13.9579C26.8807 14.1536 26.7551 14.2457 26.4285 14.2536C25.9231 13.9449 25.5103 13.5968 25.0944 13.1741C25.0381 13.1172 24.9818 13.0603 24.9237 13.0016C24.7399 12.8155 24.5569 12.6286 24.3739 12.4416C24.2456 12.3112 24.1173 12.1809 23.9889 12.0507C23.721 11.7787 23.4536 11.5064 23.1864 11.2337C22.8437 10.8838 22.5002 10.5348 22.1564 10.1861C21.8918 9.91764 21.6276 9.64885 21.3634 9.37995C21.2368 9.25109 21.1101 9.1223 20.9834 8.99358C20.8068 8.81421 20.6307 8.63444 20.4547 8.45454C20.3544 8.35231 20.2541 8.25007 20.1508 8.14473C19.8776 7.84815 19.81 7.71758 19.7559 7.31506C19.8188 6.76177 20.023 6.57939 20.4035 6.18412C20.7515 6.00758 20.9811 6.01796 21.3675 6.06186Z" fill="var(--fill-0, white)" fill-opacity="0.5"/>
<path id="Vector_19" d="M26.5716 15.843C27.0752 16.0247 27.485 16.3482 27.754 16.8211C27.7279 17.5365 27.5481 17.8559 27.0561 18.3578C26.9961 18.4199 26.9361 18.482 26.8744 18.5461C26.6768 18.7497 26.4768 18.9505 26.2765 19.1513C26.1378 19.2925 25.9992 19.4338 25.8607 19.5753C25.5706 19.8707 25.2793 20.1647 24.987 20.4579C24.6127 20.8335 24.2417 21.2123 23.8716 21.5922C23.5862 21.8844 23.2992 22.1748 23.0116 22.4647C22.8741 22.6038 22.7371 22.7433 22.6007 22.8834C22.4098 23.079 22.2167 23.2721 22.0229 23.4647C21.9135 23.575 21.8042 23.6854 21.6915 23.7991C21.3052 24.08 21.1099 24.098 20.6445 24.0347C20.1763 23.7385 19.8529 23.3558 19.6956 22.8197C19.9889 21.7782 21.1675 20.9185 21.9046 20.1724C22.0244 20.0508 22.1442 19.9291 22.2639 19.8074C22.513 19.5546 22.7622 19.3019 23.0116 19.0494C23.3315 18.7256 23.6508 18.4012 23.9699 18.0767C24.2162 17.8263 24.4628 17.5763 24.7095 17.3263C24.8275 17.2067 24.9453 17.087 25.0631 16.9672C25.2268 16.8008 25.391 16.6347 25.5553 16.4687C25.6485 16.3742 25.7418 16.2797 25.8378 16.1823C26.0986 15.9354 26.2136 15.843 26.5716 15.843Z" fill="var(--fill-0, white)" fill-opacity="0.5"/>
<path id="Vector_20" d="M7.17862 15.8507C7.63756 16.0094 7.98748 16.2691 8.233 16.6989C8.29059 17.2163 8.29103 17.4695 7.99541 17.9036C7.88413 18.0169 7.77286 18.1301 7.65821 18.2467C7.59708 18.31 7.53595 18.3734 7.47297 18.4386C7.27115 18.6465 7.06643 18.8512 6.86137 19.0558C6.71978 19.1997 6.57833 19.3438 6.43701 19.488C6.14071 19.7893 5.84297 20.0891 5.54411 20.3878C5.16133 20.7707 4.78216 21.1569 4.40397 21.5444C4.11254 21.8423 3.81938 22.1383 3.52566 22.4339C3.38515 22.5757 3.24515 22.718 3.1057 22.8608C2.91045 23.0602 2.71303 23.2571 2.51484 23.4535C2.34706 23.6223 2.34706 23.6223 2.1759 23.7945C1.78618 24.0787 1.59335 24.1024 1.1235 24.0347C0.868379 23.8422 0.868379 23.8422 0.656562 23.5839C0.584799 23.5002 0.513036 23.4165 0.439097 23.3303C0.240428 22.9885 0.224837 22.838 0.28 22.4453C0.520834 22.1266 0.520834 22.1266 0.862436 21.783C0.955292 21.6883 0.955292 21.6883 1.05002 21.5918C1.25479 21.3838 1.46163 21.1781 1.66857 20.9724C1.81131 20.8284 1.95391 20.6843 2.0964 20.54C2.39517 20.2382 2.69487 19.9374 2.99537 19.6373C3.38103 19.2522 3.76512 18.8656 4.14862 18.4783C4.51392 18.1095 4.87984 17.7413 5.24592 17.3732C5.31599 17.3027 5.38607 17.2322 5.45826 17.1596C5.65613 16.9608 5.85442 16.7625 6.05288 16.5643C6.1658 16.4513 6.27872 16.3383 6.39506 16.2219C6.79907 15.84 6.79907 15.84 7.17862 15.8507Z" fill="var(--fill-0, white)" fill-opacity="0.5"/>
<path id="Vector_21" d="M17.15 6.06188C17.4051 6.2233 17.4051 6.2233 17.617 6.44395C17.7246 6.55034 17.7246 6.55034 17.8344 6.65887C18.0561 7.01952 18.0429 7.2306 17.9935 7.65131C17.7543 7.98471 17.7543 7.98471 17.4149 8.32749C17.3534 8.39061 17.2919 8.45372 17.2285 8.51875C17.0252 8.72638 16.8194 8.93126 16.6134 9.13615C16.4713 9.27996 16.3292 9.4239 16.1873 9.56798C15.8898 9.8693 15.5911 10.1694 15.2914 10.4685C14.9073 10.852 14.5256 11.2379 14.1447 11.6246C13.8516 11.9219 13.5576 12.2182 13.2633 12.5141C13.1222 12.6561 12.9814 12.7983 12.8407 12.9407C12.6441 13.1395 12.4462 13.337 12.248 13.5342C12.1356 13.6469 12.0232 13.7595 11.9074 13.8755C11.6283 14.1132 11.4853 14.2318 11.125 14.2536C10.8713 14.0826 10.8713 14.0826 10.6204 13.8409C10.5367 13.7618 10.453 13.6827 10.3667 13.6012C10.041 13.279 10.041 13.279 9.99707 12.9434C10.0549 12.4086 10.2438 12.2426 10.6153 11.8638C10.6764 11.8004 10.7376 11.7371 10.8006 11.6719C11.0026 11.4636 11.2073 11.2582 11.4122 11.0527C11.5537 10.9086 11.6952 10.7644 11.8365 10.62C12.133 10.3181 12.4307 10.0176 12.7294 9.71798C13.112 9.33399 13.4912 8.9468 13.8696 8.55853C14.161 8.26015 14.4542 7.96355 14.7479 7.66745C14.8884 7.52536 15.0284 7.38271 15.1678 7.23952C15.3631 7.03954 15.5605 6.84207 15.7587 6.64508C15.8705 6.53217 15.9824 6.41927 16.0976 6.30295C16.4873 6.01773 16.6797 5.99667 17.15 6.06188Z" fill="var(--fill-0, white)" fill-opacity="0.5"/>
</g>
</svg>
