<svg preserveAspectRatio="none" width="100%" height="100%" overflow="visible" style="display: block;" viewBox="0 0 93 35" fill="none" xmlns="http://www.w3.org/2000/svg">
<g id="Simplification">
<path id="Vector" d="M22.0456 2.13875C22.2367 2.132 22.4265 2.135 22.6176 2.14286C22.6604 2.1446 22.7031 2.14635 22.7472 2.14814C24.1596 2.21081 25.5463 2.42009 26.8956 2.85714C26.9298 2.86807 26.9639 2.879 26.9991 2.89026C28.3869 3.33924 29.7175 4.00908 30.9132 4.84962C30.9534 4.87759 30.9936 4.90555 31.035 4.93436C31.3546 5.15919 31.6582 5.40165 31.9572 5.65369C32.0025 5.69181 32.048 5.72974 32.0937 5.76739C32.4509 6.06157 32.7771 6.38704 33.1034 6.71523C33.125 6.73692 33.1467 6.75861 33.169 6.78095C33.4394 7.05231 33.6907 7.32853 33.9264 7.63158C33.9641 7.67831 34.0019 7.72497 34.0397 7.77153C35.9328 10.1263 37.1113 13.0283 37.386 16.0526C37.3901 16.0953 37.3942 16.138 37.3985 16.182C37.4242 16.4963 37.4249 16.809 37.4241 17.1242C37.424 17.1695 37.4239 17.2147 37.4239 17.2613C37.4237 17.3722 37.4235 17.4831 37.4232 17.594C36.6193 17.5949 35.8154 17.5955 35.0114 17.5959C34.6381 17.5961 34.2648 17.5964 33.8914 17.5968C33.5658 17.5972 33.2401 17.5974 32.9145 17.5975C32.7423 17.5976 32.5701 17.5977 32.3979 17.598C32.2353 17.5982 32.0727 17.5983 31.9101 17.5982C31.8509 17.5982 31.7917 17.5983 31.7326 17.5985C31.4326 17.5992 31.1338 17.5947 30.8344 17.5779C30.809 17.5765 30.7836 17.5751 30.7575 17.5737C30.2015 17.5388 29.7696 17.3938 29.3665 16.9994C29.1092 16.6896 28.9993 16.2828 28.8905 15.9023C28.5487 14.7474 28.0529 13.7053 27.2092 12.8371C27.1584 12.7845 27.1088 12.7308 27.0592 12.6771C26.6233 12.2153 26.1072 11.8496 25.5564 11.5414C25.5213 11.5215 25.4861 11.5016 25.4499 11.4811C23.878 10.6408 21.9916 10.4984 20.2948 11.0045C20.1114 11.0633 19.9319 11.131 19.7532 11.203C19.7082 11.2208 19.6632 11.2386 19.6169 11.2569C18.1796 11.8511 17.0192 12.9872 16.2936 14.3609C16.2747 14.3956 16.2558 14.4303 16.2363 14.466C15.9565 15.0013 15.7674 15.5845 15.6062 16.1658C15.4674 16.653 15.2429 17.0781 14.801 17.3473C14.4653 17.514 14.0992 17.5572 13.73 17.5777C13.7027 17.5793 13.6754 17.5808 13.6473 17.5824C13.3482 17.5981 13.0494 17.599 12.7499 17.5983C12.6886 17.5982 12.6273 17.5982 12.566 17.5983C12.4018 17.5983 12.2376 17.5981 12.0734 17.5978C11.901 17.5976 11.7286 17.5975 11.5561 17.5975C11.2306 17.5974 10.9051 17.5971 10.5796 17.5967C10.2085 17.5963 9.83752 17.5961 9.46651 17.5959C8.7042 17.5955 7.9419 17.5948 7.1796 17.594C6.87672 16.6757 7.2936 15.1586 7.4772 14.2481C7.4886 14.1909 7.4886 14.1909 7.50023 14.1326C7.83257 12.5088 8.47882 10.9209 9.3372 9.51128C9.35411 9.48315 9.37102 9.45503 9.38844 9.42605C9.89142 8.59097 10.476 7.81252 11.1368 7.09821C11.2019 7.02769 11.2662 6.95641 11.3297 6.8844C11.7006 6.46496 12.1051 6.07524 12.5411 5.72515C12.6219 5.66013 12.7014 5.59427 12.7805 5.5272C13.3549 5.04274 13.9748 4.6304 14.6196 4.24812C14.6577 4.22542 14.6577 4.22542 14.6965 4.20227C16.9566 2.86577 19.4433 2.2484 22.0456 2.13875Z" fill="var(--fill-0, white)" fill-opacity="0.5"/>
<path id="Vector_2" d="M16.1059 17.5515C16.1506 17.5513 16.1952 17.5512 16.2413 17.551C16.3147 17.5511 16.3147 17.5511 16.3896 17.5511C16.4422 17.551 16.4948 17.5509 16.5475 17.5508C16.6921 17.5505 16.8367 17.5504 16.9813 17.5504C17.1373 17.5503 17.2933 17.55 17.4493 17.5498C17.7904 17.5493 18.1315 17.549 18.4726 17.5489C18.6857 17.5488 18.8987 17.5486 19.1118 17.5484C19.7019 17.548 20.292 17.5476 20.882 17.5475C20.9198 17.5475 20.9576 17.5474 20.9965 17.5474C21.0533 17.5474 21.0533 17.5474 21.1112 17.5474C21.1879 17.5474 21.2646 17.5474 21.3413 17.5474C21.3984 17.5473 21.3984 17.5473 21.4566 17.5473C22.0728 17.5472 22.689 17.5465 23.3053 17.5457C23.9382 17.5448 24.5711 17.5443 25.204 17.5443C25.5593 17.5442 25.9145 17.544 26.2698 17.5433C26.5723 17.5427 26.8749 17.5425 27.1775 17.5429C27.3318 17.543 27.4861 17.543 27.6403 17.5424C27.7818 17.542 27.9233 17.542 28.0648 17.5425C28.1397 17.5426 28.2146 17.5421 28.2895 17.5417C29.3041 17.5472 29.8368 18.2296 30.5059 18.9074C30.5645 18.9667 30.6233 19.026 30.682 19.0853C30.84 19.2451 30.998 19.4049 31.1559 19.5648C31.3215 19.7324 31.4872 19.8998 31.6528 20.0672C31.9304 20.3479 32.208 20.6286 32.4854 20.9094C32.771 21.1983 33.0567 21.4873 33.3424 21.7761C33.3688 21.8029 33.3688 21.8029 33.3959 21.8302C33.4845 21.9198 33.5731 22.0094 33.6617 22.0991C34.3949 22.8404 35.1279 23.5818 35.8608 24.3233C35.7912 24.539 35.6989 24.7263 35.5911 24.9248C35.5714 24.961 35.5518 24.9972 35.5315 25.0346C34.9405 26.109 34.2181 27.0948 33.3835 27.9884C33.2987 28.0803 33.2165 28.1746 33.1336 28.2683C32.4044 29.0793 31.522 29.757 30.6212 30.3599C30.567 30.3963 30.5131 30.4332 30.4596 30.4707C30.4336 30.4883 30.4077 30.5058 30.3809 30.524C30.3466 30.5477 30.3466 30.5477 30.3115 30.572C30.2223 30.6108 30.1857 30.5958 30.0948 30.5639C30.0354 30.5178 30.0354 30.5178 29.9768 30.4584C29.9542 30.4358 29.9317 30.4133 29.9085 30.39C29.8841 30.365 29.8597 30.3399 29.8345 30.3142C29.8083 30.2878 29.7821 30.2613 29.7551 30.2341C29.667 30.1452 29.5794 30.056 29.4917 29.9667C29.4288 29.903 29.3659 29.8393 29.3029 29.7757C29.1495 29.6206 28.9964 29.4652 28.8434 29.3097C28.6653 29.1288 28.4868 28.9482 28.3084 28.7676C27.99 28.4454 27.6719 28.123 27.354 27.8005C27.0452 27.4873 26.7364 27.1742 26.4275 26.8612C26.4085 26.8419 26.3895 26.8226 26.3699 26.8027C26.1622 26.5923 25.9545 26.3819 25.7468 26.1716C25.7286 26.1531 25.7103 26.1346 25.6915 26.1156C25.6186 26.0418 25.5457 25.9679 25.4728 25.8941C25.2591 25.6777 25.0454 25.4612 24.832 25.2446C24.6823 25.0928 24.5326 24.941 24.3829 24.7893C24.3213 24.7269 24.2598 24.6645 24.1983 24.602C24.1147 24.5171 24.031 24.4323 23.9473 24.3475C23.9227 24.3225 23.8981 24.2974 23.8728 24.2717C23.8504 24.2491 23.8281 24.2265 23.8051 24.2033C23.7857 24.1836 23.7664 24.164 23.7465 24.1438C23.6962 24.0934 23.6962 24.0934 23.622 24.0602C23.622 24.0353 23.622 24.0105 23.622 23.985C23.5974 23.985 23.5729 23.985 23.5476 23.985C23.4972 23.9229 23.4477 23.8602 23.3988 23.797C23.3742 23.7846 23.3497 23.7722 23.3244 23.7594C23.3244 23.7346 23.3244 23.7098 23.3244 23.6842C23.2926 23.6696 23.2926 23.6696 23.2602 23.6547C23.168 23.6049 23.0937 23.5465 23.0129 23.4798C22.7223 23.2479 22.465 23.1585 22.0968 23.1955C21.5137 23.3387 21.0855 23.9077 20.6818 24.3198C20.6142 24.3884 20.5467 24.4571 20.4791 24.5257C20.3342 24.6729 20.1894 24.8202 20.0446 24.9676C19.8159 25.2005 19.5868 25.433 19.3576 25.6655C19.2791 25.7451 19.2005 25.8248 19.122 25.9045C19.0926 25.9343 19.0926 25.9343 19.0625 25.9648C18.8398 26.1907 18.6172 26.4168 18.3946 26.6428C18.3743 26.6635 18.354 26.6841 18.3331 26.7054C18.0028 27.0408 17.6729 27.3764 17.343 27.7122C17.004 28.0573 16.6645 28.4019 16.3247 28.7462C16.1152 28.9584 15.9061 29.171 15.6974 29.384C15.5378 29.5469 15.3777 29.7092 15.2173 29.8712C15.1515 29.9379 15.0859 30.0048 15.0205 30.0719C14.9315 30.1631 14.8418 30.2536 14.7519 30.344C14.726 30.371 14.7 30.3979 14.6732 30.4257C14.6491 30.4497 14.625 30.4737 14.6001 30.4984C14.5795 30.5193 14.5589 30.5403 14.5376 30.5619C14.4708 30.6015 14.4708 30.6015 14.3776 30.5934C14.2443 30.551 14.1321 30.4796 14.0151 30.4041C13.9893 30.3876 13.9634 30.3711 13.9368 30.3541C13.6559 30.1713 13.3931 29.9657 13.1306 29.7571C13.0628 29.7037 12.9944 29.6512 12.9255 29.5991C12.6638 29.4008 12.4224 29.1891 12.1844 28.9628C12.1199 28.903 12.0538 28.8455 11.9874 28.7879C11.8084 28.6304 11.6412 28.4618 11.4739 28.2918C11.4437 28.2615 11.4135 28.2311 11.3824 28.1998C11.2013 28.0165 11.0286 27.8287 10.8624 27.6316C10.828 27.5914 10.7936 27.5513 10.7592 27.5112C10.5344 27.2461 10.3204 26.9752 10.1184 26.6917C10.0993 26.665 10.0801 26.6383 10.0604 26.6108C9.73192 26.1507 9.43096 25.6798 9.1512 25.188C9.13153 25.1538 9.11185 25.1195 9.09159 25.0843C9.03259 24.9813 8.97435 24.878 8.91638 24.7744C8.89826 24.7427 8.88015 24.711 8.86149 24.6784C8.84522 24.6488 8.82895 24.6193 8.81219 24.5888C8.79769 24.5629 8.78319 24.537 8.76826 24.5103C8.73504 24.4164 8.7465 24.379 8.7792 24.2857C8.83069 24.2199 8.83069 24.2199 8.89773 24.1526C8.92307 24.1269 8.94841 24.1012 8.97452 24.0747C9.01649 24.033 9.01649 24.033 9.05931 23.9904C9.10332 23.946 9.10332 23.946 9.14822 23.9007C9.24554 23.8026 9.34325 23.705 9.44095 23.6073C9.50869 23.5391 9.57641 23.4709 9.64409 23.4027C9.80445 23.2412 9.96504 23.08 10.1258 22.9189C10.4299 22.614 10.7335 22.3086 11.0371 22.0031C11.1366 21.903 11.2363 21.8031 11.336 21.7032C11.3975 21.6414 11.4591 21.5796 11.5206 21.5177C11.5481 21.4902 11.5757 21.4627 11.604 21.4344C11.7521 21.2854 11.8925 21.1325 12.0289 20.9727C12.1207 20.8669 12.218 20.7673 12.3164 20.668C12.3374 20.6466 12.3584 20.6253 12.38 20.6034C12.4481 20.5341 12.5165 20.465 12.5848 20.3959C12.6326 20.3475 12.6804 20.299 12.7283 20.2505C12.8279 20.1496 12.9276 20.0488 13.0274 19.948C13.1555 19.8185 13.2833 19.6889 13.411 19.5591C13.5094 19.4593 13.608 19.3596 13.7066 19.26C13.7538 19.2122 13.801 19.1643 13.8481 19.1164C13.9136 19.0498 13.9794 18.9835 14.0452 18.9172C14.0745 18.8873 14.0745 18.8873 14.1043 18.8568C14.2391 18.7218 14.2391 18.7218 14.322 18.7218C14.3297 18.7016 14.3373 18.6815 14.3453 18.6607C14.4162 18.5369 14.5098 18.4363 14.6196 18.3459C14.6442 18.3459 14.6687 18.3459 14.694 18.3459C14.7035 18.3237 14.7131 18.3015 14.7229 18.2786C14.906 17.944 15.3499 17.7055 15.6984 17.594C15.8364 17.5606 15.9641 17.5516 16.1059 17.5515Z" fill="var(--fill-0, white)" fill-opacity="0.5"/>
<path id="Vector_3" d="M45.6816 9.58647C49.5794 9.58647 49.5794 9.58647 50.1456 10.1504C50.2359 10.2477 50.3207 10.3493 50.406 10.4511C50.4841 10.5429 50.5624 10.6345 50.6408 10.726C50.6618 10.7506 50.6828 10.7751 50.7044 10.8004C50.8292 10.946 50.9559 11.0894 51.0849 11.2312C51.2028 11.361 51.3151 11.4933 51.4243 11.6306C51.5682 11.8109 51.721 11.98 51.8775 12.1489C52.0233 12.3072 52.1586 12.4721 52.2926 12.6407C52.42 12.7961 52.5558 12.9431 52.6915 13.0911C52.7906 13.1996 52.887 13.3101 52.9827 13.4218C53.0573 13.5079 53.1337 13.5925 53.2099 13.6772C53.3608 13.8458 53.5036 14.0202 53.6444 14.1975C53.7128 14.2842 53.7128 14.2842 53.7822 14.3493C53.8284 14.3985 53.8284 14.3985 53.8284 14.4737C53.853 14.4737 53.8775 14.4737 53.9028 14.4737C53.9531 14.5305 54.0006 14.5898 54.0469 14.6499C54.179 14.817 54.3159 14.9757 54.4608 15.1316C54.6266 15.3104 54.7819 15.4947 54.9338 15.6858C55.0613 15.8414 55.1973 15.9886 55.3331 16.1368C55.4902 16.3087 55.6413 16.4856 55.7917 16.6635C55.8301 16.709 55.8685 16.7544 55.9069 16.7998C55.9359 16.834 55.9359 16.834 55.9654 16.8689C56.1062 17.035 56.2498 17.1984 56.3952 17.3605C56.5433 17.5259 56.688 17.6943 56.831 17.8642C57.0133 18.0806 57.1966 18.2951 57.388 18.5033C57.5511 18.6813 57.7042 18.8641 57.8543 19.0534C57.9192 19.1366 57.9192 19.1366 57.9948 19.2105C57.9949 19.168 57.995 19.1255 57.9952 19.0818C57.9982 18.0463 58.0016 17.0107 58.0055 15.9752C58.0074 15.4745 58.0091 14.9737 58.0105 14.4729C58.0117 14.0363 58.0132 13.5997 58.015 13.163C58.0159 12.932 58.0167 12.7009 58.0172 12.4699C58.0177 12.2521 58.0185 12.0343 58.0196 11.8165C58.02 11.7369 58.0202 11.6573 58.0203 11.5776C58.0217 10.27 58.0218 10.27 58.4028 9.84331C59.2985 9.02692 60.8062 9.58647 62.0124 9.58647C62.0124 14.8342 62.0124 20.082 62.0124 25.4887C58.1471 25.4887 58.1471 25.4887 57.6479 25.0022C57.5628 24.9157 57.481 24.8269 57.3996 24.7368C57.3772 24.7121 57.3548 24.6873 57.3317 24.6618C57.2664 24.5875 57.2027 24.512 57.1392 24.4361C57.0664 24.3499 56.9936 24.2637 56.9206 24.1776C56.9014 24.1548 56.8821 24.132 56.8622 24.1085C56.672 23.8842 56.4762 23.6652 56.2795 23.4466C56.2556 23.4196 56.2316 23.3925 56.2069 23.3647C56.1857 23.341 56.1646 23.3174 56.1428 23.293C56.0976 23.2331 56.0976 23.2331 56.0976 23.1579C56.073 23.1579 56.0485 23.1579 56.0232 23.1579C55.8372 22.952 55.8372 22.952 55.8372 22.8571C55.8126 22.8571 55.7881 22.8571 55.7628 22.8571C55.7118 22.7996 55.6634 22.7395 55.6163 22.6786C55.4888 22.5173 55.3577 22.3623 55.2187 22.211C55.2012 22.1918 55.1836 22.1727 55.1656 22.1529C55.1484 22.1342 55.1313 22.1156 55.1137 22.0963C54.9574 21.9253 54.807 21.7495 54.6577 21.5722C54.4753 21.3558 54.2919 21.1411 54.1004 20.9328C53.9744 20.7957 53.8537 20.6558 53.7377 20.5099C53.5947 20.3302 53.4427 20.162 53.2868 19.9938C53.1709 19.868 53.0607 19.7395 52.9542 19.6053C52.7928 19.4021 52.6193 19.2124 52.4436 19.022C52.2834 18.8484 52.1305 18.6689 51.9781 18.4883C51.94 18.4432 51.9019 18.398 51.8638 18.3529C51.8445 18.3301 51.8253 18.3073 51.8055 18.2839C51.6862 18.1432 51.5647 18.0052 51.4406 17.8689C51.3213 17.7375 51.2073 17.6037 51.0965 17.4648C50.9426 17.2721 50.7794 17.0904 50.6129 16.9089C50.514 16.8005 50.4177 16.6902 50.3222 16.5788C50.219 16.4596 50.1135 16.3425 50.0083 16.2252C49.9398 16.1475 49.8724 16.0692 49.8054 15.9902C49.7855 15.9666 49.7655 15.9431 49.745 15.9188C49.7299 15.9009 49.7148 15.8831 49.6992 15.8647C49.6991 15.9074 49.699 15.9501 49.6988 15.9941C49.6958 17.0349 49.6924 18.0758 49.6885 19.1166C49.6881 19.2169 49.6878 19.3172 49.6874 19.4175C49.6873 19.455 49.6873 19.4549 49.6871 19.4931C49.6857 19.8709 49.6846 20.2488 49.6835 20.6266C49.6823 21.0655 49.6808 21.5043 49.679 21.9432C49.6781 22.1754 49.6773 22.4076 49.6768 22.6399C49.6763 22.8588 49.6755 23.0777 49.6744 23.2966C49.674 23.3766 49.6738 23.4567 49.6737 23.5367C49.6723 24.7893 49.6723 24.7893 49.3644 25.1504C48.448 25.9703 46.3837 25.4887 45.6816 25.4887C45.6816 20.241 45.6816 14.9932 45.6816 9.58647Z" fill="var(--fill-0, white)" fill-opacity="0.5"/>
<path id="Vector_4" d="M84.8904 11.0526C84.9229 11.0797 84.9229 11.0797 84.956 11.1074C85.4123 11.4888 85.8309 11.8928 86.1924 12.3684C86.2085 12.3895 86.2245 12.4106 86.2411 12.4323C87.5523 14.1638 88.2067 16.3931 87.9314 18.5692C87.6916 20.2769 87.0139 21.7857 85.8948 23.0827C85.8711 23.1109 85.8473 23.1391 85.8229 23.1682C85.541 23.501 85.2313 23.7901 84.8904 24.0602C84.8666 24.0792 84.8428 24.0982 84.8182 24.1178C83.652 25.0469 82.3319 25.6028 80.8728 25.8647C80.8449 25.8697 80.817 25.8748 80.7883 25.88C79.0342 26.1787 77.1442 25.8042 75.5904 24.9624C75.5499 24.9417 75.5094 24.921 75.4676 24.8997C74.006 24.1404 72.8018 22.8185 72.0564 21.3534C72.043 21.327 72.0296 21.3007 72.0157 21.2735C71.0523 19.355 70.8831 17.0389 71.5365 14.9934C71.6986 14.5141 71.8909 14.0536 72.1308 13.609C72.1536 13.5657 72.1764 13.5225 72.1998 13.4779C72.74 12.4841 73.5133 11.5815 74.4163 10.9081C74.4699 10.8681 74.5227 10.827 74.5755 10.7858C77.3296 8.67744 81.2535 8.66803 84.8904 11.0526ZM76.2417 14.7724C75.4856 15.7032 75.1693 16.8688 75.2789 18.0616C75.4071 19.2397 76.0289 20.2704 76.9296 21.015C77.4139 21.3862 77.9397 21.6502 78.5292 21.8045C78.5684 21.8158 78.6077 21.827 78.6481 21.8386C79.7301 22.1076 80.8852 21.8691 81.8354 21.3064C82.8886 20.6514 83.5392 19.6198 83.8382 18.4278C84.068 17.3192 83.8324 16.1871 83.2603 15.2244C83.1993 15.1338 83.1354 15.0479 83.0676 14.9624C83.0412 14.9282 83.0148 14.894 82.9875 14.8587C82.2777 13.9587 81.2501 13.3364 80.1068 13.2034C78.6012 13.0702 77.2426 13.6277 76.2417 14.7724Z" fill="var(--fill-0, white)" fill-opacity="0.5"/>
<path id="Vector_5" d="M68.82 9.58647C68.82 14.8342 68.82 20.082 68.82 25.4887C67.5065 25.4887 66.1929 25.4887 64.8396 25.4887C64.838 23.6136 64.8366 21.7384 64.8358 19.8633C64.8357 19.6419 64.8356 19.4205 64.8355 19.1991C64.8355 19.155 64.8355 19.111 64.8355 19.0656C64.8351 18.352 64.8345 17.6384 64.8339 16.9248C64.8332 16.1925 64.8328 15.4603 64.8326 14.728C64.8325 14.2762 64.8322 13.8244 64.8316 13.3726C64.8312 13.0627 64.8311 12.7529 64.8312 12.443C64.8312 12.2643 64.8311 12.0855 64.8307 11.9068C64.8304 11.743 64.8304 11.5792 64.8306 11.4154C64.8306 11.3563 64.8305 11.2971 64.8303 11.238C64.8267 10.2584 64.8267 10.2584 65.1295 9.92702C66.0364 9.07792 68.0767 9.58647 68.82 9.58647Z" fill="var(--fill-0, white)" fill-opacity="0.5"/>
</g>
</svg>
