<svg preserveAspectRatio="none" width="100%" height="100%" overflow="visible" style="display: block;" viewBox="0 0 176 35" fill="none" xmlns="http://www.w3.org/2000/svg">
<g id="Simplification">
<path id="Vector" d="M155.513 8.73827C156.934 8.73827 158.356 8.73827 159.821 8.73827C160.018 8.99164 160.214 9.24501 160.417 9.50605C160.64 9.77661 160.64 9.77661 160.864 10.0466C161.017 10.2322 161.164 10.4219 161.31 10.6126C161.53 10.8985 161.756 11.1788 161.987 11.4565C162.211 11.7261 162.429 11.9993 162.647 12.2738C162.751 12.4052 162.856 12.5363 162.96 12.6675C163.003 12.7202 163.045 12.7729 163.087 12.8256C163.107 12.8517 163.128 12.8777 163.15 12.9046C163.339 13.1417 163.339 13.1417 163.402 13.2207C163.444 13.2735 163.486 13.3262 163.528 13.3789C163.632 13.51 163.737 13.6412 163.841 13.7724C164.058 14.045 164.276 14.3167 164.496 14.5869C164.737 14.883 164.975 15.1809 165.213 15.4797C165.317 15.6112 165.422 15.7427 165.527 15.8741C165.569 15.9268 165.611 15.9795 165.653 16.0322C165.674 16.0583 165.695 16.0843 165.716 16.1112C165.905 16.3483 165.905 16.3483 165.968 16.4274C166.01 16.4801 166.052 16.5328 166.094 16.5855C166.199 16.7166 166.303 16.8478 166.408 16.979C166.625 17.2517 166.843 17.5233 167.063 17.7936C167.303 18.0896 167.542 18.3875 167.779 18.6863C167.884 18.8179 167.989 18.9493 168.094 19.0807C168.136 19.1334 168.178 19.1861 168.22 19.2388C168.241 19.2649 168.261 19.291 168.283 19.3178C168.472 19.5549 168.472 19.5549 168.535 19.634C168.577 19.6867 168.619 19.7394 168.661 19.7921C168.766 19.9232 168.87 20.0544 168.975 20.1856C169.261 20.5459 169.55 20.9041 169.841 21.2611C169.923 21.3622 170.005 21.4635 170.088 21.5647C170.103 17.332 170.118 13.0993 170.133 8.73827C171.328 8.73827 172.523 8.73827 173.754 8.73827C173.838 8.82067 173.806 8.95048 173.806 9.06113C173.806 9.0906 173.806 9.12007 173.806 9.15044C173.806 9.25042 173.806 9.35041 173.806 9.45039C173.806 9.52231 173.806 9.59422 173.806 9.66614C173.806 9.86471 173.806 10.0633 173.806 10.2619C173.806 10.4756 173.806 10.6894 173.806 10.9032C173.806 11.3224 173.806 11.7416 173.806 12.1607C173.806 12.5013 173.806 12.8418 173.806 13.1823C173.806 13.2306 173.806 13.279 173.806 13.3288C173.806 13.4271 173.806 13.5253 173.806 13.6235C173.806 14.5459 173.806 15.4682 173.806 16.3905C173.806 17.1828 173.806 17.9751 173.806 18.7674C173.806 19.6863 173.806 20.6052 173.806 21.5241C173.806 21.6219 173.806 21.7198 173.806 21.8177C173.806 21.8659 173.806 21.914 173.806 21.9637C173.806 22.304 173.806 22.6443 173.806 22.9846C173.806 23.399 173.806 23.8135 173.806 24.2279C173.806 24.4396 173.806 24.6512 173.806 24.8629C173.806 25.0563 173.806 25.2498 173.806 25.4432C173.806 25.5135 173.806 25.5838 173.806 25.6541C173.806 25.749 173.806 25.8439 173.806 25.9389C173.806 25.9918 173.806 26.0447 173.806 26.0992C173.8 26.2166 173.8 26.2166 173.754 26.2617C173.623 26.2691 173.492 26.2736 173.361 26.2762C173.32 26.2771 173.278 26.2781 173.236 26.279C172.854 26.2873 172.471 26.2921 172.089 26.2958C171.832 26.2984 171.575 26.3021 171.319 26.3085C171.07 26.3147 170.822 26.3179 170.574 26.3192C170.48 26.3201 170.385 26.3221 170.291 26.3252C169.571 26.3473 169.571 26.3473 169.362 26.204C169.2 26.0484 169.095 25.8692 168.988 25.6746C168.944 25.6162 168.899 25.5586 168.852 25.5028C168.815 25.457 168.779 25.4112 168.741 25.3641C168.441 24.9882 168.138 24.6149 167.833 24.2424C167.645 24.0118 167.461 23.7784 167.278 23.5435C167.134 23.3583 166.987 23.1757 166.839 22.9939C166.658 22.7719 166.481 22.5478 166.303 22.3241C166.197 22.1913 166.091 22.0587 165.985 21.926C165.858 21.7659 165.73 21.6057 165.603 21.4455C165.559 21.3911 165.516 21.3368 165.473 21.2824C165.452 21.2561 165.431 21.2297 165.409 21.2026C165.284 21.0459 165.158 20.8901 165.032 20.7348C164.898 20.5715 164.77 20.4056 164.644 20.2366C164.585 20.1585 164.585 20.1585 164.496 20.0743C164.453 20.0199 164.412 19.965 164.371 19.9097C164.23 19.724 164.084 19.5446 163.934 19.3658C163.692 19.0734 163.456 18.7772 163.223 18.4767C163.121 18.3438 163.018 18.2112 162.915 18.0787C162.895 18.0537 162.876 18.0287 162.856 18.0029C162.78 17.9052 162.705 17.813 162.617 17.7258C162.574 17.6714 162.533 17.6165 162.491 17.5612C162.351 17.3755 162.204 17.1961 162.055 17.0173C161.832 16.7481 161.614 16.4757 161.4 16.1994C160.987 15.6667 160.56 15.1446 160.133 14.6226C159.804 14.2195 159.484 13.8111 159.179 13.3901C159.164 17.6377 159.149 21.8854 159.133 26.2617C157.939 26.2617 156.744 26.2617 155.513 26.2617C155.513 20.479 155.513 14.6962 155.513 8.73827Z" fill="var(--fill-0, white)" fill-opacity="0.5"/>
<path id="Vector_2" d="M22.8196 1.35234C23.2836 1.75181 23.7292 2.17021 24.1598 2.60434C24.2537 2.69719 24.3517 2.783 24.4529 2.86802C24.6938 3.07498 24.9185 3.29746 25.1441 3.52031C25.1901 3.56558 25.2361 3.61084 25.282 3.6561C25.3778 3.75043 25.4735 3.84483 25.5692 3.9393C25.6909 4.05945 25.8128 4.1794 25.9347 4.29929C26.0295 4.39255 26.1242 4.48592 26.2189 4.57932C26.2637 4.62356 26.3086 4.66776 26.3536 4.71192C26.5799 4.93458 26.7998 5.15916 27.0082 5.39826C27.1606 5.56773 27.3253 5.72533 27.4886 5.88452C27.526 5.92124 27.5635 5.95797 27.6021 5.99581C27.7207 6.11219 27.8395 6.22842 27.9584 6.34462C28.1151 6.49786 28.2717 6.65124 28.4282 6.80473C28.4636 6.83927 28.499 6.87381 28.5356 6.9094C28.7239 7.09412 28.9032 7.28304 29.0765 7.48144C29.183 7.60102 29.2958 7.71194 29.4107 7.82373C29.4339 7.84642 29.4571 7.86911 29.481 7.89249C29.5539 7.96377 29.627 8.03491 29.7001 8.106C30.2425 8.63369 30.2425 8.63369 30.4901 8.91965C30.6605 9.10876 30.8465 9.28351 31.0292 9.46091C31.2713 9.69584 31.5075 9.9311 31.7287 10.1853C31.8772 10.3504 32.0383 10.5032 32.198 10.6577C32.4175 10.8702 32.6285 11.085 32.8292 11.3148C32.9632 11.4639 33.1078 11.6022 33.2521 11.7417C33.4513 11.9358 33.6445 12.1302 33.8251 12.3415C33.9933 12.5254 34.1748 12.6969 34.3534 12.8711C34.5231 13.0373 34.6852 13.2059 34.8395 13.3862C34.9867 13.5483 35.1459 13.6989 35.3028 13.8518C35.4606 14.0062 35.6092 14.1644 35.7529 14.3315C35.9015 14.4944 36.0614 14.6462 36.2194 14.8002C36.378 14.9554 36.5277 15.1144 36.6723 15.2826C36.8111 15.4353 36.9601 15.578 37.109 15.7212C37.529 16.1279 37.529 16.1279 37.5605 16.3568C37.5376 16.5064 37.5376 16.5064 37.4745 16.5911C37.2913 16.7161 37.1078 16.6957 36.8924 16.6978C36.8492 16.6984 36.806 16.699 36.7616 16.6996C36.618 16.7015 36.4745 16.703 36.331 16.7045C36.2311 16.7057 36.1311 16.7069 36.0312 16.708C35.821 16.7104 35.6108 16.7126 35.4006 16.7147C35.1329 16.7174 34.8652 16.7208 34.5974 16.7243C34.3906 16.7269 34.1837 16.7291 33.9768 16.7312C33.8782 16.7322 33.7797 16.7334 33.6811 16.7348C32.0683 16.7567 32.0683 16.7567 31.6021 16.3145C31.4709 16.1791 31.3464 16.0385 31.2224 15.8967C31.0846 15.7434 30.9423 15.5944 30.8001 15.4451C30.5383 15.1699 30.2811 14.8926 30.0381 14.6011C29.9336 14.4755 29.9336 14.4755 29.8272 14.3735C29.6781 14.2266 29.5343 14.0756 29.3907 13.9236C29.3625 13.8938 29.3343 13.864 29.3052 13.8333C29.1129 13.6298 28.9231 13.4243 28.7359 13.2162C28.6054 13.0756 28.4677 12.9427 28.3298 12.8092C28.2316 12.7141 28.1337 12.6188 28.0357 12.5236C28.0018 12.4909 27.9678 12.4582 27.9329 12.4245C27.8848 12.3776 27.8848 12.3776 27.8357 12.3297C27.8065 12.3013 27.7772 12.2729 27.7471 12.2437C27.6834 12.1707 27.6834 12.1707 27.6834 12.0804C27.6531 12.0804 27.6229 12.0804 27.5917 12.0804C27.5206 12.0077 27.5206 12.0077 27.4399 11.911C27.3485 11.8049 27.2669 11.716 27.1563 11.6288C27.0566 11.5502 26.9866 11.4782 26.905 11.3829C26.6906 11.1389 26.4585 10.9129 26.2264 10.6854C26.1791 10.6389 26.1318 10.5924 26.0845 10.5458C25.961 10.4243 25.8373 10.3029 25.7136 10.1815C25.588 10.0581 25.4625 9.93465 25.3369 9.81119C25.116 9.59394 24.895 9.3768 24.6739 9.15974C24.5971 9.0843 24.5204 9.00876 24.4438 8.93314C24.3543 8.84507 24.2636 8.75904 24.1709 8.67425C24.1408 8.6467 24.1108 8.61916 24.0799 8.59078C24.0486 8.56214 24.0174 8.53351 23.9852 8.504C23.6995 8.2412 23.42 7.9741 23.1459 7.69953C22.9993 7.55298 22.8497 7.4125 22.6933 7.27612C22.5558 7.1551 22.4214 7.03312 22.2922 6.90352C22.1581 6.7692 22.0176 6.64519 21.8722 6.52281C21.7992 6.45947 21.728 6.39403 21.6581 6.32733C21.1763 5.8721 20.6149 5.50058 19.9261 5.48263C19.0739 5.52026 18.5042 5.97725 17.9161 6.53798C17.766 6.68092 17.6106 6.8163 17.4528 6.95089C17.3522 7.03827 17.258 7.13049 17.1646 7.22531C17.0414 7.34835 16.9172 7.46615 16.7836 7.57815C16.5863 7.74397 16.4064 7.92597 16.2267 8.11002C16.1667 8.17054 16.1044 8.22881 16.0417 8.28665C16.0115 8.28665 15.9812 8.28665 15.9501 8.28665C15.9403 8.31152 15.9305 8.33639 15.9205 8.36201C15.8371 8.50349 15.7216 8.59978 15.5985 8.70683C15.2416 9.02448 14.9021 9.35793 14.5623 9.69325C14.4971 9.75754 14.4318 9.82183 14.3665 9.88611C14.2309 10.0197 14.0953 10.1533 13.9599 10.287C13.7869 10.4578 13.6137 10.6283 13.4404 10.7987C13.306 10.931 13.1718 11.0633 13.0376 11.1957C12.9737 11.2586 12.9099 11.3215 12.846 11.3844C12.7568 11.4722 12.6677 11.5601 12.5786 11.6481C12.5397 11.6863 12.5397 11.6863 12.5 11.7253C12.3463 11.8776 12.2039 12.0349 12.0671 12.2023C12.038 12.2314 12.038 12.2314 12.0084 12.261C11.9781 12.261 11.9479 12.261 11.9167 12.261C11.9052 12.2871 11.8937 12.3132 11.8819 12.3401C11.8175 12.4552 11.7443 12.5308 11.6489 12.6225C11.6144 12.656 11.58 12.6894 11.5445 12.7239C11.5085 12.7584 11.4725 12.7929 11.4355 12.8284C11.3642 12.8971 11.2931 12.9658 11.2221 13.0346C11.1905 13.065 11.1589 13.0953 11.1264 13.1265C11.0376 13.2132 11.0376 13.2132 10.9542 13.345C10.924 13.345 10.8937 13.345 10.8626 13.345C10.8514 13.3708 10.8402 13.3967 10.8287 13.4233C10.7606 13.5439 10.6801 13.6222 10.579 13.7176C10.4517 13.8402 10.328 13.9626 10.2123 14.0958C10.0524 14.2796 9.88479 14.4557 9.71672 14.6321C9.52702 14.8315 9.3395 15.0316 9.15849 15.2387C9.02194 15.3917 8.88105 15.5408 8.7402 15.69C8.6215 15.8157 8.50393 15.9422 8.38881 16.0712C8.3669 16.0955 8.345 16.1198 8.32243 16.1448C8.26239 16.2115 8.20277 16.2786 8.14317 16.3457C7.5982 16.8607 6.7819 16.7441 6.08174 16.7375C5.97826 16.7368 5.87479 16.7361 5.77131 16.7354C5.55546 16.7338 5.33962 16.7319 5.12378 16.7297C4.84719 16.7269 4.57061 16.7254 4.29401 16.7243C4.08078 16.7232 3.86756 16.7213 3.65433 16.7191C3.55231 16.7182 3.45029 16.7176 3.34826 16.7173C3.20598 16.7168 3.06376 16.7151 2.92149 16.7132C2.85845 16.7133 2.85845 16.7133 2.79414 16.7134C2.60493 16.7097 2.50006 16.7018 2.33471 16.6043C2.24589 16.5064 2.24589 16.5064 2.21169 16.3593C2.26044 16.1184 2.38977 16.0034 2.56386 15.8346C2.59532 15.8029 2.62678 15.7711 2.65919 15.7385C2.74982 15.6474 2.8414 15.5574 2.93339 15.4677C2.97504 15.4266 3.01669 15.3854 3.05961 15.3431C3.12594 15.2779 3.19247 15.2128 3.25923 15.148C3.34178 15.0653 3.41857 14.9801 3.49485 14.8918C3.64304 14.7212 3.80271 14.5641 3.96464 14.4063C4.15011 14.2256 4.32802 14.0432 4.49656 13.8469C4.64073 13.6884 4.79572 13.5404 4.95016 13.3917C5.08119 13.2679 5.08119 13.2679 5.17922 13.1192C5.20947 13.1192 5.23972 13.1192 5.27089 13.1192C5.28234 13.0931 5.29379 13.0671 5.30559 13.0402C5.37051 12.9243 5.44456 12.8482 5.5407 12.7557C5.59391 12.704 5.59391 12.704 5.64821 12.6513C5.68534 12.6157 5.72247 12.58 5.76073 12.5433C5.99273 12.3197 6.2177 12.0953 6.42904 11.8526C6.59902 11.6633 6.7855 11.4895 6.96851 11.3126C7.11839 11.1666 7.26356 11.0195 7.40106 10.862C7.573 10.6653 7.75846 10.4839 7.94641 10.3021C8.0118 10.2388 8.0771 10.1754 8.14227 10.1119C8.17071 10.0844 8.19916 10.0569 8.22846 10.0286C8.30022 9.95991 8.30022 9.95991 8.34172 9.86738C8.37197 9.86738 8.40222 9.86738 8.43339 9.86738C8.44381 9.84235 8.45424 9.81732 8.46498 9.79154C8.5425 9.65628 8.64045 9.56371 8.75297 9.45491C8.77511 9.43332 8.79725 9.41174 8.82007 9.3895C8.89052 9.32087 8.96128 9.25256 9.03209 9.18428C9.10301 9.11564 9.17387 9.04693 9.24459 8.97809C9.30861 8.91582 9.37284 8.85376 9.43708 8.79172C9.53488 8.7014 9.53488 8.7014 9.57922 8.6028C9.60947 8.6028 9.63972 8.6028 9.67089 8.6028C9.68496 8.5668 9.68496 8.5668 9.69932 8.53007C9.78897 8.37707 9.91372 8.26305 10.041 8.14058C10.0686 8.11362 10.0961 8.08667 10.1246 8.05889C10.2128 7.97276 10.3013 7.88693 10.3899 7.80115C10.4776 7.71597 10.5653 7.63072 10.6528 7.54533C10.7071 7.49232 10.7616 7.43942 10.8162 7.38667C10.9499 7.2565 11.0773 7.12367 11.1999 6.98328C11.3826 6.77512 11.579 6.5822 11.7774 6.38873C11.8346 6.33268 11.8346 6.33268 11.8929 6.27549C12.0134 6.15729 12.134 6.03923 12.2547 5.92121C12.4147 5.7648 12.5745 5.60824 12.7342 5.45158C12.7711 5.41564 12.8079 5.3797 12.8459 5.34267C12.8797 5.30949 12.9135 5.2763 12.9484 5.24211C12.9932 5.19831 12.9932 5.19831 13.0389 5.15363C13.1124 5.0827 13.1124 5.0827 13.1542 4.98972C13.1845 4.98972 13.2147 4.98972 13.2459 4.98972C13.2459 4.95991 13.2459 4.9301 13.2459 4.89939C13.3204 4.82144 13.3967 4.74769 13.4751 4.67357C13.5353 4.61404 13.5953 4.55435 13.6553 4.49454C13.8406 4.31034 14.0262 4.12642 14.2118 3.94259C14.292 3.86316 14.372 3.78365 14.452 3.70407C14.5675 3.58921 14.6832 3.47464 14.799 3.36013C14.8349 3.32428 14.8708 3.28844 14.9078 3.25151C14.941 3.21878 14.9742 3.18605 15.0084 3.15234C15.0377 3.12333 15.0669 3.09433 15.097 3.06444C15.1709 3.00252 15.1709 3.00252 15.2626 3.00252C15.2626 2.97271 15.2626 2.94291 15.2626 2.9122C15.3291 2.84771 15.3291 2.84771 15.4215 2.77247C15.6321 2.59606 15.8253 2.40634 16.0188 2.21216C16.2359 1.99432 16.455 1.78318 16.6901 1.58415C16.7663 1.51951 16.8411 1.45359 16.9154 1.38687C18.6348 -0.113671 21.0816 -0.117078 22.8196 1.35234Z" fill="var(--fill-0, white)" fill-opacity="0.5"/>
<path id="Vector_3" d="M2.67293 18.3066C2.7145 18.3063 2.75606 18.3061 2.79889 18.3058C2.8675 18.3057 2.8675 18.3057 2.93749 18.3057C2.98556 18.3054 3.03364 18.3052 3.08318 18.305C3.24289 18.3043 3.4026 18.304 3.56231 18.3038C3.6732 18.3035 3.78409 18.3032 3.89498 18.303C4.1279 18.3025 4.36081 18.3022 4.59373 18.3021C4.89169 18.3018 5.18964 18.3008 5.4876 18.2995C5.71688 18.2986 5.94615 18.2984 6.17543 18.2983C6.28523 18.2982 6.39504 18.2978 6.50484 18.2972C6.65886 18.2965 6.81286 18.2965 6.96688 18.2968C7.01197 18.2964 7.05706 18.296 7.10351 18.2956C7.52007 18.298 7.84509 18.3806 8.15102 18.6647C8.358 18.8735 8.55685 19.089 8.75419 19.3065C8.82197 19.3809 8.88977 19.4552 8.95758 19.5295C8.9906 19.5658 9.02363 19.6021 9.05766 19.6394C9.20821 19.8034 9.36069 19.9655 9.51312 20.1278C9.65087 20.2745 9.78753 20.4222 9.92294 20.5711C10.147 20.8172 10.3742 21.0604 10.6025 21.3027C10.6548 21.3581 10.7069 21.4136 10.7591 21.4692C11.1136 21.8465 11.4735 22.2171 11.846 22.5773C11.9864 22.7137 12.1216 22.8517 12.2498 22.9993C12.4124 23.1833 12.5833 23.357 12.7586 23.5292C12.7907 23.5609 12.8228 23.5926 12.8558 23.6253C12.9608 23.729 13.066 23.8325 13.1712 23.936C13.2449 24.0086 13.3186 24.0812 13.3922 24.1539C13.5462 24.3057 13.7003 24.4574 13.8544 24.6091C14.0513 24.8028 14.2479 24.9967 14.4445 25.1907C14.5964 25.3406 14.7485 25.4904 14.9006 25.6402C14.9732 25.7116 15.0456 25.7831 15.1181 25.8546C15.2196 25.9547 15.3213 26.0547 15.423 26.1547C15.4672 26.1984 15.4672 26.1984 15.5123 26.243C15.6871 26.4145 15.8673 26.5774 16.0543 26.7359C16.1528 26.8204 16.2452 26.9095 16.3367 27.0013C16.3883 27.0526 16.3883 27.0526 16.4409 27.105C16.5109 27.1751 16.5808 27.2452 16.6508 27.3153C16.8431 27.5068 17.0391 27.6898 17.2464 27.8654C17.3382 27.9441 17.4239 28.0272 17.5084 28.1134C17.6536 28.2585 17.8039 28.3942 17.961 28.5266C18.0309 28.5867 18.0995 28.6482 18.1672 28.7108C18.6907 29.1927 19.2927 29.5354 20.0292 29.5135C21.0571 29.3873 21.7381 28.6034 22.4502 27.9357C22.5487 27.8437 22.6477 27.7523 22.747 27.6611C23.108 27.329 23.4633 26.9926 23.8092 26.6452C23.9398 26.5147 24.071 26.3886 24.2135 26.2708C24.529 26.0001 24.8197 25.7028 25.1151 25.4112C25.1812 25.346 25.2474 25.2809 25.3136 25.2157C25.4515 25.0799 25.5894 24.9439 25.7272 24.8079C25.9041 24.6334 26.0811 24.459 26.2583 24.2847C26.3946 24.1506 26.5308 24.0163 26.667 23.882C26.7323 23.8176 26.7976 23.7533 26.863 23.689C26.9539 23.5995 27.0447 23.5098 27.1355 23.4201C27.1762 23.3802 27.1762 23.3802 27.2177 23.3395C27.3525 23.2096 27.3525 23.2096 27.4542 23.0551C27.4844 23.0551 27.5147 23.0551 27.5459 23.0551C27.5563 23.0301 27.5667 23.005 27.5774 22.9793C27.655 22.844 27.7529 22.7514 27.8654 22.6426C27.8876 22.621 27.9097 22.5995 27.9325 22.5772C28.003 22.5086 28.0738 22.4403 28.1446 22.372C28.2155 22.3034 28.2863 22.2347 28.3571 22.1658C28.4211 22.1035 28.4853 22.0415 28.5495 21.9794C28.6474 21.8891 28.6474 21.8891 28.6917 21.7905C28.7219 21.7905 28.7522 21.7905 28.7834 21.7905C28.7931 21.7661 28.8029 21.7416 28.8129 21.7164C28.8975 21.5713 29.0143 21.4651 29.1357 21.3502C29.3158 21.1762 29.4888 21.0009 29.6524 20.8116C29.787 20.6604 29.927 20.5145 30.0667 20.3679C30.2564 20.1686 30.4439 19.9684 30.6249 19.7613C30.7614 19.6084 30.9023 19.4594 31.0429 19.3101C31.1625 19.1831 31.2816 19.0558 31.3994 18.9272C31.422 18.9027 31.4445 18.8782 31.4677 18.853C31.5298 18.7854 31.5917 18.7176 31.6537 18.6499C31.9135 18.3846 32.1753 18.3115 32.5447 18.3009C32.6329 18.3 32.721 18.2997 32.8091 18.2998C32.8575 18.2995 32.9059 18.2992 32.9558 18.2989C33.1149 18.298 33.274 18.2979 33.4331 18.2978C33.544 18.2975 33.655 18.2972 33.7659 18.2968C33.998 18.2963 34.23 18.2961 34.462 18.2962C34.7595 18.2962 35.0569 18.295 35.3544 18.2934C35.5833 18.2924 35.8122 18.2922 36.041 18.2923C36.1507 18.2922 36.2604 18.2918 36.3701 18.2911C36.5233 18.2902 36.6764 18.2904 36.8296 18.291C36.8749 18.2905 36.9202 18.29 36.9669 18.2895C37.1638 18.2912 37.2782 18.2955 37.4507 18.3954C37.5375 18.4936 37.5375 18.4936 37.5717 18.6407C37.523 18.8816 37.3936 18.9966 37.2196 19.1654C37.1724 19.213 37.1724 19.213 37.1242 19.2615C37.0336 19.3526 36.942 19.4426 36.85 19.5323C36.7875 19.594 36.7875 19.594 36.7238 19.6569C36.6575 19.7221 36.5909 19.7872 36.5242 19.852C36.4416 19.9347 36.3648 20.0199 36.2886 20.1082C36.1404 20.2788 35.9807 20.4359 35.8188 20.5937C35.6342 20.7736 35.4573 20.9551 35.2895 21.1505C35.1375 21.317 34.9742 21.4728 34.8118 21.6295C34.7072 21.7309 34.6106 21.8271 34.5233 21.9437C34.5046 21.9676 34.4859 21.9916 34.4667 22.0163C34.4364 22.0163 34.4062 22.0163 34.375 22.0163C34.363 22.043 34.3509 22.0696 34.3384 22.0971C34.281 22.2013 34.2214 22.2678 34.1353 22.3501C34.106 22.3785 34.0767 22.4068 34.0466 22.436C34.016 22.4652 33.9854 22.4944 33.9539 22.5244C33.7752 22.6959 33.5996 22.8671 33.4369 23.0535C33.2657 23.2495 33.0812 23.4302 32.894 23.6112C32.8292 23.6739 32.7644 23.7368 32.6998 23.7998C32.6716 23.827 32.6434 23.8543 32.6143 23.8824C32.5326 23.9637 32.5326 23.9637 32.45 24.0939C32.4198 24.0939 32.3895 24.0939 32.3584 24.0939C32.347 24.1198 32.3357 24.1457 32.3241 24.1724C32.2575 24.2908 32.1803 24.3691 32.0821 24.4636C32.0276 24.5166 32.0276 24.5166 31.9721 24.5705C31.9341 24.607 31.8962 24.6434 31.8571 24.681C31.7821 24.7533 31.7072 24.8258 31.6324 24.8983C31.5825 24.9463 31.5825 24.9463 31.5316 24.9952C31.4396 25.0853 31.4396 25.0853 31.3668 25.1896C31.3461 25.2155 31.3255 25.2414 31.3042 25.2681C31.2739 25.2681 31.2437 25.2681 31.2125 25.2681C31.2016 25.2936 31.1907 25.3191 31.1795 25.3454C31.1079 25.4716 31.0211 25.5565 30.9162 25.6576C30.8758 25.697 30.8353 25.7364 30.7937 25.7769C30.7302 25.838 30.7302 25.838 30.6654 25.9004C30.5818 25.9812 30.4983 26.0621 30.4149 26.1432C30.3778 26.1789 30.3407 26.2146 30.3025 26.2515C30.2031 26.3485 30.2031 26.3485 30.128 26.4554C30.1078 26.4809 30.0875 26.5064 30.0667 26.5327C30.0364 26.5327 30.0062 26.5327 29.975 26.5327C29.9651 26.5572 29.9552 26.5817 29.945 26.607C29.8621 26.7501 29.749 26.856 29.6302 26.97C29.5929 27.0064 29.5929 27.0064 29.5548 27.0436C29.4755 27.121 29.3959 27.198 29.3162 27.2751C29.2368 27.352 29.1576 27.429 29.0785 27.5061C29.0293 27.554 28.9801 27.6017 28.9306 27.6493C28.8244 27.7526 28.727 27.8557 28.635 27.9718C28.6083 28.0036 28.5817 28.0354 28.5542 28.0683C28.5239 28.0683 28.4937 28.0683 28.4625 28.0683C28.4448 28.1078 28.4448 28.1078 28.4268 28.1481C28.366 28.2577 28.2999 28.3294 28.2099 28.4171C28.1605 28.4655 28.1605 28.4655 28.1101 28.5149C28.0745 28.5494 28.0389 28.5839 28.0022 28.6194C27.9471 28.6734 27.9471 28.6734 27.8909 28.7284C27.7732 28.8435 27.6553 28.9584 27.5373 29.0731C27.4201 29.1873 27.3031 29.3016 27.1861 29.4159C27.1134 29.487 27.0406 29.558 26.9676 29.6289C26.7783 29.8138 26.5971 30.0024 26.4239 30.202C26.3167 30.3239 26.2031 30.4378 26.0878 30.5522C26.066 30.5743 26.0441 30.5964 26.0216 30.6191C25.9662 30.6739 25.9083 30.7262 25.85 30.7781C25.8198 30.7781 25.7895 30.7781 25.7584 30.7781C25.7584 30.8079 25.7584 30.8377 25.7584 30.8684C25.7281 30.8684 25.6979 30.8684 25.6667 30.8684C25.6667 30.8982 25.6667 30.928 25.6667 30.9587C25.6364 30.9587 25.6062 30.9587 25.575 30.9587C25.575 30.9885 25.575 31.0183 25.575 31.049C25.5448 31.049 25.5145 31.049 25.4834 31.049C25.4834 31.0789 25.4834 31.1087 25.4834 31.1394C25.4531 31.1394 25.4229 31.1394 25.3917 31.1394C25.3917 31.1692 25.3917 31.199 25.3917 31.2297C25.3614 31.2297 25.3312 31.2297 25.3 31.2297C25.3 31.2595 25.3 31.2893 25.3 31.32C25.2698 31.32 25.2395 31.32 25.2084 31.32C25.2084 31.3498 25.2084 31.3796 25.2084 31.4104C25.1781 31.4104 25.1479 31.4104 25.1167 31.4104C25.1064 31.4352 25.0961 31.4601 25.0855 31.4857C25.0062 31.6238 24.9048 31.7196 24.7901 31.8309C24.7484 31.8717 24.7067 31.9126 24.6637 31.9546C24.5605 32.0527 24.4537 32.1457 24.345 32.2379C24.1416 32.4119 23.9532 32.5986 23.7646 32.7878C23.521 33.0322 23.2727 33.2654 23.0084 33.4879C22.9637 33.5265 22.9191 33.5651 22.8732 33.6048C21.9315 34.4004 20.8252 34.8377 19.5769 34.7606C18.2404 34.6493 17.2606 33.9547 16.3172 33.0666C16.178 32.9355 16.0394 32.8062 15.89 32.6862C15.786 32.6005 15.7024 32.5188 15.6177 32.4152C15.5246 32.3005 15.5246 32.3005 15.4 32.2233C15.4 32.1935 15.4 32.1637 15.4 32.133C15.3742 32.1222 15.3484 32.1114 15.3218 32.1003C15.1937 32.0301 15.1061 31.9451 15.0023 31.8431C14.9601 31.8018 14.9179 31.7605 14.8745 31.718C14.8288 31.6728 14.7832 31.6277 14.7376 31.5825C14.6906 31.5363 14.6436 31.4901 14.5966 31.4438C14.4983 31.3471 14.4001 31.2502 14.3021 31.1532C14.1762 31.0286 14.0499 30.9045 13.9235 30.7805C13.8265 30.6852 13.7297 30.5897 13.6329 30.4941C13.5864 30.4482 13.5398 30.4024 13.4932 30.3567C13.4282 30.2929 13.3636 30.2288 13.299 30.1647C13.2621 30.1282 13.2252 30.0918 13.1872 30.0542C13.1084 29.9651 13.1084 29.9651 13.1084 29.8748C13.0781 29.8748 13.0479 29.8748 13.0167 29.8748C12.9488 29.8053 12.9488 29.8053 12.8706 29.7111C12.7654 29.5887 12.6615 29.4795 12.5354 29.378C12.4239 29.2877 12.3299 29.1945 12.2373 29.0855C12.0989 28.9274 11.953 28.7784 11.8023 28.6317C11.7802 28.6102 11.7581 28.5887 11.7353 28.5665C11.6434 28.4772 11.5513 28.388 11.459 28.2991C11.3909 28.2333 11.323 28.1672 11.2552 28.1011C11.2149 28.0622 11.1747 28.0234 11.1333 27.9833C11.0459 27.8876 11.0459 27.8876 11.0459 27.7973C11.0156 27.7973 10.9854 27.7973 10.9542 27.7973C10.8931 27.7361 10.8931 27.7361 10.8253 27.6533C10.7084 27.5116 10.5822 27.383 10.45 27.2553C10.3075 27.1172 10.1653 26.9789 10.0232 26.8404C9.98489 26.8034 9.94657 26.7664 9.9071 26.7283C9.87091 26.6929 9.83472 26.6575 9.79744 26.6211C9.76433 26.5889 9.73123 26.5568 9.69712 26.5237C9.62502 26.4424 9.62502 26.4424 9.62502 26.352C9.59477 26.352 9.56452 26.352 9.53336 26.352C9.46943 26.2879 9.46943 26.2879 9.39425 26.1978C9.1674 25.9348 8.91582 25.6977 8.66512 25.4571C8.62935 25.4223 8.59357 25.3875 8.55671 25.3517C8.52419 25.3205 8.49167 25.2892 8.45817 25.2569C8.38752 25.1778 8.38752 25.1778 8.38752 25.0875C8.35727 25.0875 8.32702 25.0875 8.29586 25.0875C8.23344 25.0132 8.17258 24.9377 8.11252 24.8616C8.03689 24.7856 7.96033 24.7105 7.88336 24.6358C7.70829 24.4652 7.53344 24.2944 7.3595 24.1226C7.33197 24.0955 7.30445 24.0683 7.27609 24.0404C7.16448 23.9263 7.06047 23.8063 6.95553 23.6864C6.87638 23.5986 6.79444 23.5154 6.70977 23.4328C6.67917 23.4028 6.64856 23.3728 6.61703 23.3419C6.55539 23.2818 6.49363 23.2218 6.43173 23.1619C6.27786 23.0123 6.13812 22.8613 6.00419 22.6938C5.92887 22.6175 5.85238 22.5423 5.77502 22.468C5.72783 22.4221 5.68069 22.3762 5.63359 22.3302C5.59685 22.2943 5.59685 22.2943 5.55937 22.2578C5.3473 22.0503 5.14089 21.8424 4.9477 21.6175C4.79702 21.4523 4.63522 21.2979 4.47415 21.1426C4.33119 21.0039 4.20403 20.8617 4.07919 20.7066C4.00385 20.6303 3.9274 20.5551 3.85002 20.4808C3.35718 20.0016 3.35718 20.0016 3.18831 19.8062C3.02739 19.6199 2.85191 19.4495 2.67439 19.2788C2.25444 18.8721 2.25444 18.8721 2.22294 18.6432C2.24586 18.4936 2.24586 18.4936 2.30888 18.4089C2.43798 18.3208 2.51776 18.3072 2.67293 18.3066Z" fill="var(--fill-0, white)" fill-opacity="0.5"/>
<path id="Vector_4" d="M47.025 8.73829C48.9052 8.73642 50.7854 8.73456 52.7226 8.73264C53.6116 8.73141 53.6116 8.73141 54.5186 8.73015C55.2449 8.72974 55.2449 8.72974 55.5854 8.72967C55.8221 8.72958 56.0589 8.72925 56.2956 8.72875C56.5984 8.72811 56.9012 8.72795 57.2041 8.72807C57.3147 8.72805 57.4253 8.72787 57.5359 8.72752C58.3267 8.72512 59.1187 8.73661 59.8898 8.93023C59.9297 8.94 59.9696 8.94976 60.0107 8.95982C60.9017 9.18555 61.6705 9.56104 62.3791 10.1384C62.4135 10.1653 62.4478 10.1922 62.4831 10.2199C63.534 11.0736 64.1652 12.4811 64.3041 13.7966C64.4396 15.2044 64.2362 16.6665 63.3416 17.8162C63.2096 17.9723 63.0718 18.1211 62.9291 18.2678C62.9023 18.2965 62.8755 18.3253 62.8478 18.3549C62.3273 18.8968 61.5434 19.3174 60.8208 19.5324C60.7754 19.5324 60.73 19.5324 60.6833 19.5324C60.6682 19.5622 60.653 19.592 60.6375 19.6227C60.4869 19.6638 60.3329 19.6862 60.1791 19.713C60.3616 19.9907 60.5555 20.2551 60.7635 20.5147C60.8203 20.5861 60.8771 20.6576 60.9339 20.729C60.9615 20.7637 60.9891 20.7983 61.0176 20.834C61.1246 20.9687 61.2307 21.1043 61.3364 21.2401C61.3726 21.2865 61.4087 21.3329 61.446 21.3807C61.4817 21.4265 61.5174 21.4724 61.5541 21.5196C61.6305 21.6174 61.7069 21.7153 61.7833 21.8131C61.8215 21.8621 61.8597 21.911 61.8979 21.9599C61.9168 21.9841 61.9357 22.0083 61.9552 22.0333C62.6236 22.8895 63.292 23.7457 63.9604 24.602C63.9793 24.6262 63.9982 24.6504 64.0177 24.6754C64.0558 24.7243 64.094 24.7732 64.1322 24.822C64.2281 24.945 64.3241 25.0679 64.4203 25.1907C64.5156 25.3123 64.6105 25.4341 64.7053 25.556C64.7444 25.6062 64.7835 25.6563 64.8226 25.7064C64.8811 25.7813 64.9393 25.8563 64.9974 25.9315C65.0315 25.9754 65.0657 26.0194 65.1008 26.0647C65.175 26.1714 65.175 26.1714 65.175 26.2617C64.5861 26.2764 63.9973 26.2876 63.4083 26.2945C63.1348 26.2978 62.8613 26.3022 62.5879 26.3094C62.3237 26.3163 62.0596 26.3201 61.7953 26.3217C61.6948 26.3229 61.5942 26.3252 61.4937 26.3286C60.7285 26.3536 60.7285 26.3536 60.5015 26.2012C60.348 26.0569 60.2387 25.8927 60.136 25.7109C60.0574 25.579 59.961 25.4637 59.864 25.3443C59.8264 25.2961 59.7888 25.2478 59.7512 25.1995C59.7317 25.1744 59.7123 25.1494 59.6922 25.1235C59.5461 24.9354 59.4001 24.7472 59.2541 24.559C59.1044 24.366 58.9545 24.1734 58.8041 23.981C58.6021 23.7224 58.4009 23.4633 58.1999 23.204C58.014 22.9644 57.8275 22.7253 57.6408 22.4863C57.5491 22.3689 57.4577 22.2512 57.3665 22.1335C57.3398 22.0991 57.3132 22.0647 57.2857 22.0293C57.2337 21.9621 57.1816 21.8949 57.1296 21.8277C57.0616 21.7399 56.9933 21.6523 56.925 21.5647C56.8908 21.5209 56.8567 21.4772 56.8215 21.4321C56.7491 21.3351 56.7491 21.3351 56.65 21.2937C56.65 21.2639 56.65 21.2341 56.65 21.2034C56.6197 21.2034 56.5895 21.2034 56.5583 21.2034C56.5366 21.1717 56.5148 21.1401 56.4924 21.1074C56.3183 20.915 56.103 20.8201 55.8708 20.7066C55.8188 20.6805 55.7668 20.6545 55.7132 20.6276C55.2941 20.4827 54.8552 20.4667 54.4149 20.4621C54.3617 20.4612 54.3086 20.4604 54.2538 20.4595C54.0862 20.4568 53.9186 20.4547 53.751 20.4526C53.6365 20.4508 53.522 20.4491 53.4074 20.4473C53.1286 20.443 52.8497 20.4391 52.5708 20.4356C52.5685 20.2526 52.5669 20.0696 52.5658 19.8865C52.5653 19.8245 52.5647 19.7625 52.5639 19.7005C52.5551 19.0027 52.6015 18.342 53.0832 17.7925C53.4881 17.4212 53.9348 17.2642 54.4858 17.2612C54.5194 17.2609 54.553 17.2606 54.5876 17.2603C54.66 17.2597 54.7324 17.2593 54.8048 17.259C54.9202 17.2587 55.0355 17.2577 55.1509 17.2567C55.3966 17.2545 55.6423 17.253 55.888 17.2516C56.1715 17.25 56.4551 17.2481 56.7386 17.2455C56.8507 17.2446 56.9629 17.2442 57.075 17.2438C57.4343 17.2415 57.7894 17.2269 58.1468 17.1892C58.1798 17.1859 58.2128 17.1825 58.2468 17.179C58.9419 17.0983 59.5896 16.8162 60.0416 16.2806C60.5547 15.6088 60.5595 14.7837 60.5458 13.9773C60.5155 13.9624 60.4853 13.9474 60.4541 13.9321C60.4364 13.8495 60.4364 13.8495 60.4226 13.7401C60.3288 13.2367 60.0391 12.8009 59.6196 12.5061C58.9193 12.0635 58.1944 11.9768 57.381 11.9757C57.3075 11.9752 57.234 11.9748 57.1605 11.9743C56.9653 11.973 56.7701 11.9723 56.5749 11.9718C56.3911 11.9711 56.2074 11.97 56.0236 11.9689C55.4876 11.9661 54.9516 11.964 54.4156 11.9618C53.2169 11.9562 52.0183 11.9507 50.7833 11.9449C50.7833 16.6695 50.7833 21.394 50.7833 26.2617C49.543 26.2617 48.3028 26.2617 47.025 26.2617C47.025 20.479 47.025 14.6963 47.025 8.73829Z" fill="var(--fill-0, white)" fill-opacity="0.5"/>
<path id="Vector_5" d="M135.146 8.73265C135.183 8.73282 135.22 8.73298 135.259 8.73315C135.298 8.73314 135.336 8.73313 135.377 8.73313C135.506 8.73316 135.635 8.73351 135.764 8.73386C135.854 8.73395 135.943 8.73401 136.032 8.73406C136.268 8.73423 136.503 8.73467 136.739 8.73517C136.979 8.73563 137.219 8.73584 137.46 8.73607C137.931 8.73655 138.403 8.73733 138.875 8.73827C138.962 8.90837 139.048 9.07851 139.135 9.24866C139.159 9.29612 139.183 9.34359 139.208 9.39249C139.365 9.70272 139.52 10.0142 139.671 10.3275C139.694 10.3747 139.717 10.4219 139.74 10.4705C139.759 10.5082 139.777 10.546 139.796 10.5849C139.946 10.8958 140.098 11.2058 140.25 11.5158C140.462 11.9483 140.673 12.3812 140.883 12.8146C141.067 13.1933 141.252 13.5713 141.437 13.9492C141.613 14.3081 141.789 14.6674 141.963 15.0273C142.169 15.4535 142.378 15.8784 142.587 16.3032C142.859 16.8548 143.129 17.4072 143.397 17.9607C143.531 18.237 143.666 18.513 143.8 18.7891C143.913 19.0214 144.027 19.2537 144.139 19.4861C144.417 20.0559 144.696 20.6248 144.976 21.1932C145.188 21.6244 145.399 22.0562 145.609 22.4888C145.777 22.8362 145.947 23.1828 146.117 23.5293C146.353 24.0107 146.588 24.4925 146.821 24.9751C146.905 25.1485 146.99 25.3217 147.075 25.4948C147.096 25.5387 147.117 25.5827 147.14 25.6279C147.18 25.7117 147.221 25.7955 147.263 25.8792C147.281 25.9163 147.299 25.9534 147.317 25.9916C147.333 26.0243 147.349 26.0569 147.366 26.0906C147.4 26.1714 147.4 26.1714 147.4 26.2617C146.084 26.2617 144.768 26.2617 143.412 26.2617C142.949 25.3994 142.949 25.3994 142.765 25.0007C142.645 24.7424 142.52 24.4866 142.396 24.2304C142.271 23.9741 142.149 23.717 142.027 23.4595C141.867 23.1211 141.706 22.7832 141.545 22.4454C141.521 22.3957 141.521 22.3957 141.497 22.345C141.273 21.8769 141.049 21.4094 140.821 20.9434C140.731 20.7599 140.643 20.576 140.557 20.3906C140.542 20.358 140.527 20.3254 140.512 20.2918C140.479 20.2098 140.479 20.2098 140.479 20.1195C140.449 20.1046 140.419 20.0897 140.387 20.0743C140.354 20.0042 140.324 19.9322 140.296 19.8598C140.163 19.5331 140.008 19.2179 139.851 18.9017C139.822 18.842 139.822 18.842 139.792 18.7812C139.774 18.7453 139.757 18.7095 139.738 18.6726C139.7 18.5839 139.7 18.5839 139.7 18.4936C139.67 18.4787 139.639 18.4638 139.608 18.4484C139.572 18.3717 139.539 18.2932 139.508 18.2141C139.42 17.997 139.322 17.7894 139.213 17.5819C139.119 17.4015 139.037 17.2276 138.975 17.0342C138.957 16.9793 138.939 16.9243 138.921 16.8677C138.891 16.8528 138.86 16.8379 138.829 16.8225C138.776 16.7131 138.727 16.6042 138.68 16.4923C138.58 16.2584 138.475 16.0294 138.356 15.8035C138.281 15.6597 138.217 15.5254 138.176 15.3688C138.165 15.3269 138.153 15.285 138.142 15.2418C138.111 15.2269 138.081 15.212 138.05 15.1967C137.997 15.0872 137.948 14.9783 137.901 14.8664C137.806 14.6456 137.709 14.4279 137.597 14.2144C137.45 13.9313 137.32 13.6413 137.19 13.3502C137.174 13.3132 137.157 13.2763 137.14 13.2382C137.125 13.2055 137.111 13.1727 137.096 13.139C137.024 12.9925 136.941 12.8534 136.858 12.7127C136.739 12.961 136.619 13.2094 136.5 13.4579C136.482 13.4949 136.465 13.5318 136.446 13.5699C136.228 14.0243 136.012 14.4794 135.801 14.937C135.671 15.2181 135.54 15.4973 135.397 15.7725C135.21 16.1352 135.038 16.5045 134.865 16.874C134.602 17.4353 134.332 17.9937 134.063 18.552C134.037 18.6056 134.037 18.6056 134.01 18.6603C133.978 18.7271 133.946 18.7939 133.914 18.8607C133.899 18.891 133.884 18.9213 133.869 18.9525C133.857 18.9785 133.844 19.0045 133.831 19.0312C133.768 19.1671 133.709 19.3046 133.65 19.442C133.693 19.4417 133.737 19.4414 133.781 19.4411C134.193 19.4384 134.604 19.4363 135.015 19.435C135.226 19.4343 135.438 19.4334 135.649 19.4318C135.854 19.4303 136.058 19.4295 136.262 19.4292C136.34 19.4289 136.418 19.4284 136.495 19.4277C137.308 19.4203 138.111 19.5069 138.725 20.0962C139.121 20.5275 139.366 21.0712 139.606 21.5963C139.658 21.7105 139.711 21.8243 139.764 21.9381C139.798 22.0109 139.831 22.0837 139.865 22.1566C139.881 22.1905 139.896 22.2243 139.913 22.2592C140.021 22.4974 140.021 22.4974 140.021 22.6486C139.985 22.6487 139.95 22.6488 139.914 22.6488C139.051 22.6505 138.189 22.6532 137.327 22.6569C136.91 22.6587 136.493 22.6602 136.076 22.6609C135.712 22.6615 135.348 22.6627 134.984 22.6647C134.792 22.6657 134.6 22.6664 134.407 22.6663C134.226 22.6663 134.044 22.6671 133.863 22.6686C133.797 22.6689 133.73 22.669 133.664 22.6688C132.971 22.6665 132.437 22.811 131.913 23.2659C131.737 23.4433 131.624 23.6461 131.514 23.8675C131.499 23.8987 131.483 23.93 131.467 23.9621C131.26 24.3765 131.06 24.7942 130.86 25.2117C130.801 25.3338 130.742 25.456 130.684 25.5781C130.648 25.6533 130.611 25.7285 130.575 25.8037C130.559 25.8375 130.543 25.8713 130.526 25.9062C130.512 25.9357 130.498 25.9652 130.483 25.9956C130.44 26.0848 130.395 26.1732 130.35 26.2617C129.034 26.2617 127.718 26.2617 126.362 26.2617C126.396 26.0961 126.418 25.9998 126.49 25.8568C126.506 25.823 126.523 25.7893 126.54 25.7545C126.559 25.7185 126.577 25.6824 126.596 25.6453C126.614 25.6073 126.633 25.5694 126.653 25.5302C126.714 25.407 126.776 25.2839 126.838 25.1609C126.901 25.0336 126.965 24.9063 127.028 24.7791C127.07 24.6953 127.112 24.6116 127.154 24.5279C127.304 24.2261 127.453 23.9234 127.6 23.6197C127.619 23.58 127.638 23.5403 127.658 23.4994C127.696 23.4213 127.734 23.3431 127.771 23.2649C127.878 23.0442 127.985 22.8238 128.093 22.6035C128.115 22.5572 128.138 22.511 128.161 22.4633C128.29 22.1991 128.419 21.9353 128.549 21.6718C128.608 21.5524 128.667 21.4329 128.726 21.3135C128.748 21.2691 128.748 21.2691 128.77 21.2238C128.984 20.7886 129.193 20.3514 129.394 19.9101C129.52 19.636 129.653 19.3668 129.791 19.0983C129.978 18.7319 130.159 18.3629 130.341 17.994C130.359 17.9575 130.377 17.9209 130.396 17.8833C130.627 17.4149 130.857 16.946 131.084 16.4759C131.248 16.1374 131.413 15.7996 131.579 15.462C131.599 15.4208 131.599 15.4208 131.62 15.3789C131.73 15.1544 131.84 14.93 131.95 14.7055C132.046 14.5098 132.142 14.3141 132.238 14.1184C132.251 14.091 132.265 14.0635 132.278 14.0353C132.474 13.6361 132.669 13.2365 132.862 12.8364C133.046 12.4578 133.231 12.08 133.416 11.7022C133.594 11.3393 133.772 10.9762 133.948 10.6126C134.133 10.2302 134.319 9.84794 134.506 9.46608C134.535 9.40643 134.564 9.34677 134.593 9.28708C134.633 9.20396 134.674 9.12089 134.714 9.03784C134.738 8.98981 134.761 8.94179 134.785 8.89231C134.88 8.70823 134.941 8.73303 135.146 8.73265Z" fill="var(--fill-0, white)" fill-opacity="0.5"/>
<path id="Vector_6" d="M85.7999 8.73827C87.1158 8.73827 88.4317 8.73827 89.7874 8.73827C90.3586 9.91509 90.3586 9.91509 90.5736 10.3864C90.645 10.5427 90.7168 10.6988 90.7886 10.855C90.8038 10.888 90.819 10.921 90.8346 10.955C91.0254 11.3689 91.2201 11.781 91.4145 12.1933C91.6926 12.7831 91.9686 13.3737 92.241 13.966C92.4672 14.4579 92.6951 14.9489 92.9241 15.4394C93.1619 15.9486 93.3991 16.4581 93.6353 16.968C93.9096 17.56 94.1854 18.1513 94.4624 18.742C94.7318 19.3164 95.0004 19.8912 95.2674 20.4667C95.2826 20.4995 95.2979 20.5324 95.3136 20.5663C95.5136 20.9973 95.7126 21.4288 95.9074 21.8621C95.9695 22.0179 95.9695 22.0179 96.0666 22.1518C96.4433 21.3684 96.8171 20.5839 97.1798 19.794C97.4174 19.2766 97.658 18.7606 97.8999 18.2452C98.1539 17.7041 98.4064 17.1623 98.6562 16.6193C98.9042 16.0801 99.1547 15.5421 99.4067 15.0047C99.424 14.9678 99.4413 14.9309 99.4591 14.8929C99.4941 14.8183 99.5291 14.7438 99.5641 14.6692C99.5814 14.6323 99.5987 14.5953 99.6165 14.5573C99.6339 14.5204 99.6512 14.4834 99.669 14.4454C99.8533 14.0525 100.037 13.6592 100.22 13.2659C100.236 13.2315 100.252 13.197 100.269 13.1616C100.488 12.691 100.707 12.2201 100.925 11.7491C101.063 11.453 101.2 11.157 101.337 10.861C101.354 10.8245 101.371 10.788 101.389 10.7504C101.495 10.522 101.601 10.2936 101.707 10.0653C101.741 9.99276 101.775 9.9202 101.808 9.84762C101.855 9.74638 101.902 9.64518 101.95 9.54398C101.97 9.50019 101.97 9.50019 101.991 9.4555C102.104 9.21329 102.225 8.97716 102.346 8.73827C103.662 8.73827 104.978 8.73827 106.333 8.73827C106.179 9.1951 106.179 9.1951 106.07 9.41308C106.046 9.46122 106.022 9.50937 105.997 9.55897C105.972 9.60951 105.947 9.66004 105.921 9.71211C105.867 9.82087 105.813 9.92965 105.76 10.0385C105.746 10.0658 105.733 10.0932 105.719 10.1213C105.588 10.3879 105.461 10.6564 105.336 10.9259C105.306 10.9924 105.306 10.9924 105.274 11.0602C105.177 11.2701 105.081 11.4804 104.986 11.691C104.833 12.0291 104.679 12.3657 104.509 12.6957C104.299 13.1009 104.109 13.5144 103.916 13.9275C103.763 14.2571 103.607 14.5858 103.451 14.9144C103.424 14.9715 103.397 15.0286 103.37 15.0857C103.316 15.2008 103.261 15.3158 103.207 15.4309C103.086 15.6859 102.965 15.941 102.844 16.1961C102.777 16.3372 102.71 16.4782 102.644 16.6193C102.617 16.6758 102.59 16.7322 102.563 16.7887C102.403 17.1274 102.403 17.1274 102.363 17.2121C102.336 17.2685 102.309 17.325 102.283 17.3814C102.216 17.5227 102.149 17.664 102.082 17.8052C101.962 18.0576 101.843 18.3099 101.724 18.5623C101.427 19.1893 101.13 19.8156 100.83 20.4413C100.558 21.0119 100.287 21.5834 100.018 22.1557C99.8633 22.484 99.7081 22.8119 99.5528 23.1398C99.526 23.1964 99.4991 23.253 99.4723 23.3097C99.35 23.5679 99.2276 23.826 99.1051 24.0842C99.0498 24.2006 98.9946 24.3171 98.9394 24.4336C98.902 24.5123 98.8646 24.591 98.8273 24.6697C98.5762 25.199 98.3303 25.7305 98.0833 26.2617C96.7523 26.2617 95.4213 26.2617 94.0499 26.2617C94.0348 26.2021 94.0197 26.1425 94.0041 26.0811C93.9738 26.0662 93.9436 26.0513 93.9124 26.0359C93.8713 25.9626 93.8713 25.9626 93.8297 25.8679C93.8066 25.8159 93.8066 25.8159 93.783 25.7628C93.7671 25.7262 93.7512 25.6897 93.7348 25.652C93.7193 25.6168 93.7037 25.5817 93.6877 25.5455C93.6563 25.4742 93.625 25.403 93.5938 25.3316C93.5297 25.1866 93.4629 25.0428 93.3959 24.8991C93.3624 24.8165 93.3624 24.8165 93.3624 24.7262C93.3322 24.7113 93.3019 24.6964 93.2708 24.681C93.2256 24.5893 93.1844 24.4957 93.1447 24.4015C92.9869 24.0354 92.8176 23.6749 92.6463 23.3148C92.6185 23.2564 92.5908 23.198 92.563 23.1396C92.5207 23.0506 92.4783 22.9615 92.4359 22.8724C92.3375 22.6654 92.2397 22.4581 92.1423 22.2506C92.1289 22.2222 92.1156 22.1938 92.1018 22.1645C92.0384 22.0295 91.9751 21.8945 91.9119 21.7594C91.8087 21.5399 91.7045 21.3213 91.5937 21.1053C91.4809 20.8851 91.3783 20.6612 91.277 20.4356C91.1528 20.1605 91.0244 19.8895 90.8838 19.622C90.8413 19.5318 90.8129 19.4449 90.7872 19.3489C90.7749 19.3051 90.7626 19.2613 90.7499 19.2162C90.7197 19.2013 90.6894 19.1864 90.6583 19.171C90.6171 19.0977 90.6171 19.0977 90.5755 19.0031C90.5601 18.9684 90.5447 18.9337 90.5288 18.8979C90.5129 18.8614 90.497 18.8248 90.4807 18.7872C90.4651 18.752 90.4496 18.7168 90.4336 18.6806C90.4021 18.6094 90.3708 18.5381 90.3396 18.4668C90.2755 18.3218 90.2088 18.178 90.1417 18.0343C90.1083 17.9516 90.1083 17.9516 90.1083 17.8613C90.078 17.8464 90.0478 17.8315 90.0166 17.8161C89.9734 17.734 89.9734 17.734 89.9287 17.6265C89.9118 17.5867 89.895 17.5469 89.8776 17.5059C89.8514 17.4429 89.8514 17.4429 89.8247 17.3786C89.6979 17.0746 89.5611 16.7791 89.41 16.486C89.2276 16.1301 89.0648 15.7654 88.8995 15.4016C88.7267 15.0217 88.548 14.6462 88.3573 14.2747C88.2358 14.0374 88.1227 13.7972 88.0142 13.5538C87.8987 13.2974 87.7807 13.0441 87.6504 12.7945C87.5363 12.5644 87.4325 12.3294 87.3267 12.0954C87.2203 11.8607 87.108 11.6306 86.988 11.4022C86.9455 11.312 86.9171 11.2251 86.8913 11.1291C86.879 11.0853 86.8668 11.0416 86.8541 10.9964C86.8238 10.9815 86.7936 10.9666 86.7624 10.9513C86.7213 10.878 86.7213 10.878 86.6797 10.7833C86.6643 10.7486 86.6489 10.7139 86.633 10.6782C86.6171 10.6416 86.6012 10.6051 86.5848 10.5674C86.5693 10.5322 86.5537 10.4971 86.5377 10.4608C86.5063 10.3896 86.475 10.3184 86.4438 10.247C86.3797 10.102 86.3129 9.95822 86.2459 9.81452C86.2124 9.73187 86.2124 9.73187 86.2124 9.64154C86.1822 9.62664 86.1519 9.61174 86.1208 9.59638C86.0795 9.51024 86.0418 9.42241 86.0062 9.33387C85.929 9.14147 85.929 9.14147 85.8386 8.95509C85.7999 8.87376 85.7999 8.87376 85.7999 8.73827Z" fill="var(--fill-0, white)" fill-opacity="0.5"/>
<path id="Vector_7" d="M20.9001 7.88017C21.1995 7.93833 21.3572 8.1311 21.5589 8.34027C21.6251 8.40783 21.6913 8.47529 21.7577 8.54262C21.7866 8.57256 21.8156 8.6025 21.8455 8.63334C21.936 8.72073 22.0282 8.80201 22.1242 8.8834C22.3042 9.03815 22.475 9.19981 22.6435 9.3665C22.6735 9.39592 22.7034 9.42534 22.7343 9.45565C22.832 9.55179 22.9296 9.64808 23.0272 9.7444C23.0958 9.81194 23.1644 9.87948 23.233 9.94701C23.3762 10.0881 23.5194 10.2293 23.6625 10.3705C23.8452 10.5508 24.0282 10.7309 24.2111 10.911C24.3527 11.0503 24.4941 11.1897 24.6354 11.3291C24.7028 11.3955 24.7702 11.4619 24.8377 11.5282C24.9322 11.6213 25.0265 11.7144 25.1209 11.8076C25.1483 11.8345 25.1757 11.8615 25.2039 11.8892C25.3722 12.0558 25.5314 12.228 25.6868 12.4062C25.7894 12.5218 25.8982 12.6288 26.0091 12.7367C26.0312 12.7583 26.0534 12.78 26.0763 12.8024C26.1459 12.8704 26.2157 12.9384 26.2855 13.0062C26.5533 13.2665 26.8188 13.5257 27.0633 13.8078C27.1722 13.9307 27.2898 14.0442 27.4084 14.1579C27.5886 14.3307 27.7569 14.5098 27.9214 14.6973C28.0574 14.8498 28.2002 14.9959 28.3423 15.143C28.61 15.4225 28.8644 15.7063 29.1042 16.0096C29.1305 16.0419 29.1567 16.0742 29.1837 16.1075C29.5583 16.5798 29.7614 17.1207 29.7001 17.7258C29.5886 18.4225 29.204 18.8916 28.7376 19.3969C28.7142 19.4222 28.6909 19.4475 28.6669 19.4735C28.5301 19.6213 28.392 19.7678 28.2535 19.9141C28.1496 20.0242 28.0469 20.1354 27.9441 20.2465C27.4969 20.7278 27.0471 21.206 26.5734 21.6621C26.479 21.7572 26.3913 21.8522 26.3038 21.9531C26.1134 22.1683 25.9098 22.3688 25.704 22.5696C25.6645 22.6083 25.625 22.6471 25.5843 22.687C25.4169 22.8512 25.2493 23.0151 25.0816 23.1791C24.9586 23.2995 24.8357 23.4201 24.7128 23.5406C24.6754 23.5771 24.638 23.6137 24.5994 23.6513C24.4056 23.8414 24.2201 24.0352 24.0418 24.2395C23.9461 24.3478 23.8449 24.4497 23.7419 24.5513C23.7012 24.5915 23.6604 24.6317 23.6185 24.6731C23.5769 24.7139 23.5353 24.7547 23.4925 24.7967C23.4511 24.8377 23.4097 24.8786 23.3671 24.9208C23.3263 24.961 23.2855 25.0011 23.2435 25.0425C23.2071 25.0783 23.1708 25.114 23.1333 25.1509C23.0344 25.2437 22.9343 25.3322 22.831 25.4201C22.6499 25.5751 22.48 25.7386 22.3116 25.9068C22.2672 25.9507 22.2672 25.9507 22.222 25.9956C22.1288 26.0879 22.0358 26.1805 21.9428 26.273C21.8195 26.3957 21.6961 26.5182 21.5725 26.6407C21.5446 26.6686 21.5166 26.6966 21.4877 26.7254C21.1423 27.0677 21.1423 27.0677 20.9402 27.0916C20.8967 27.086 20.8532 27.0804 20.8084 27.0747C20.7121 26.9324 20.7052 26.8993 20.7048 26.737C20.7045 26.6956 20.7041 26.6542 20.7038 26.6116C20.7039 26.5662 20.704 26.5209 20.7041 26.4742C20.7039 26.4264 20.7037 26.3785 20.7034 26.3293C20.7028 26.1707 20.7028 26.0121 20.703 25.8535C20.7028 25.7433 20.7026 25.633 20.7024 25.5228C20.702 25.2915 20.702 25.0601 20.7023 24.8287C20.7025 24.5327 20.7018 24.2368 20.7007 23.9408C20.7 23.713 20.7 23.4851 20.7001 23.2573C20.7001 23.1482 20.6999 23.0391 20.6994 22.9301C20.6988 22.7771 20.6991 22.6242 20.6997 22.4712C20.6993 22.4264 20.699 22.3817 20.6986 22.3355C20.7019 21.9082 20.8057 21.5783 21.0834 21.2486C21.1137 21.2486 21.1439 21.2486 21.1751 21.2486C21.1751 21.2188 21.1751 21.189 21.1751 21.1582C21.2348 21.1003 21.2348 21.1003 21.3221 21.0302C21.6048 20.7932 21.862 20.5313 22.1232 20.2719C22.1748 20.2209 22.2264 20.1698 22.278 20.1188C22.3728 20.025 22.4675 19.9312 22.5622 19.8373C22.7522 19.6489 22.943 19.4614 23.1352 19.2751C23.219 19.1934 23.3027 19.1117 23.3865 19.0299C23.4279 18.9899 23.4694 18.9498 23.512 18.9085C24.1554 18.3031 24.1554 18.3031 24.4493 17.5056C24.4162 16.9624 24.0576 16.6447 23.6915 16.2784C23.5515 16.137 23.4162 15.9913 23.2805 15.8459C23.1169 15.671 22.951 15.4994 22.7792 15.3321C22.2292 14.7902 22.2292 14.7902 22.1567 14.7171C22.0239 14.5841 21.8896 14.4565 21.7451 14.3357C21.5589 14.1768 21.3822 14.009 21.2066 13.8389C21.1786 13.8123 21.1506 13.7857 21.1217 13.7582C20.8375 13.4803 20.7121 13.2109 20.71 12.8143C20.7097 12.7724 20.7093 12.7306 20.709 12.6874C20.7089 12.6421 20.7088 12.5967 20.7086 12.55C20.7083 12.5018 20.708 12.4536 20.7077 12.4039C20.7068 12.2447 20.7063 12.0856 20.7058 11.9264C20.7056 11.872 20.7054 11.8176 20.7053 11.7616C20.7043 11.4741 20.7036 11.1866 20.7032 10.8991C20.7027 10.6018 20.7011 10.3045 20.6993 10.0072C20.6981 9.7788 20.6977 9.5504 20.6976 9.32201C20.6973 9.21236 20.6968 9.10271 20.696 8.99307C20.6948 8.83997 20.6949 8.6869 20.6952 8.53379C20.6946 8.48834 20.694 8.44289 20.6934 8.39607C20.6958 8.08785 20.6958 8.08785 20.8098 7.94093C20.8396 7.92088 20.8694 7.90083 20.9001 7.88017Z" fill="var(--fill-0, white)" fill-opacity="0.5"/>
<path id="Vector_8" d="M18.9119 7.91686C19.0208 7.97049 19.0208 7.97049 19.0666 8.06081C19.0712 8.12674 19.073 8.19287 19.0734 8.25896C19.0739 8.32144 19.0739 8.32144 19.0744 8.38518C19.0745 8.43102 19.0746 8.47686 19.0747 8.52409C19.075 8.57228 19.0753 8.62046 19.0756 8.67011C19.0766 8.8302 19.0771 8.99029 19.0775 9.15038C19.0777 9.20505 19.0779 9.25971 19.0781 9.31603C19.0791 9.60557 19.0797 9.89512 19.0802 10.1847C19.0807 10.4833 19.0822 10.782 19.0841 11.0807C19.0853 11.3106 19.0856 11.5405 19.0858 11.7704C19.086 11.8805 19.0866 11.9905 19.0874 12.1006C19.0885 12.255 19.0885 12.4095 19.0882 12.5639C19.089 12.6316 19.089 12.6316 19.0899 12.7006C19.0873 13.057 19.0073 13.3623 18.7884 13.6506C18.7386 13.698 18.7386 13.698 18.6878 13.7463C18.6507 13.7821 18.6137 13.818 18.5755 13.8549C18.5372 13.8906 18.4988 13.9263 18.4593 13.9631C18.4217 13.9994 18.3841 14.0356 18.3453 14.0729C18.1816 14.2295 18.0159 14.3822 17.8422 14.528C17.5742 14.7563 17.3273 15.007 17.0774 15.2541C16.9894 15.341 16.9011 15.4278 16.8128 15.5145C16.7564 15.5701 16.7001 15.6257 16.6437 15.6813C16.6044 15.7199 16.6044 15.7199 16.5643 15.7593C16.4622 15.8605 16.3678 15.9572 16.2819 16.0725C16.2631 16.0964 16.2443 16.1204 16.225 16.1451C16.1947 16.1451 16.1645 16.1451 16.1333 16.1451C16.1232 16.1697 16.1132 16.1942 16.1029 16.2195C16.0371 16.3335 15.9565 16.4183 15.8635 16.5114C15.5725 16.8029 15.3859 17.0641 15.3341 17.4802C15.387 17.8899 15.5299 18.1105 15.8232 18.4091C15.9154 18.5034 16.0017 18.5976 16.0877 18.697C16.3011 18.938 16.5307 19.1627 16.7605 19.3886C16.8074 19.4349 16.8544 19.4812 16.9013 19.5275C16.9992 19.624 17.0972 19.7205 17.1952 19.8169C17.3199 19.9395 17.4444 20.0623 17.5689 20.1852C17.6656 20.2807 17.7625 20.3761 17.8594 20.4715C17.9053 20.5167 17.9512 20.562 17.9971 20.6072C18.2306 20.8378 18.4649 21.0638 18.7182 21.2735C18.9465 21.4769 19.052 21.7374 19.0751 22.0343C19.0785 22.163 19.079 22.2913 19.0785 22.4199C19.0787 22.493 19.0787 22.493 19.079 22.5676C19.0794 22.728 19.0791 22.8884 19.0788 23.0487C19.0789 23.1604 19.0789 23.272 19.0791 23.3836C19.0792 23.6172 19.079 23.8507 19.0786 24.0843C19.0781 24.384 19.0784 24.6838 19.0789 24.9835C19.0792 25.2138 19.0791 25.4441 19.0789 25.6744C19.0788 25.785 19.0789 25.8955 19.0791 26.0061C19.0794 26.1603 19.079 26.3144 19.0785 26.4686C19.0787 26.5145 19.0789 26.5604 19.079 26.6077C19.0788 26.6496 19.0785 26.6915 19.0783 26.7347C19.0782 26.7893 19.0782 26.7893 19.0782 26.8451C19.0666 26.9392 19.0666 26.9392 18.975 27.0747C18.8516 27.1002 18.8516 27.1002 18.7 27.0747C18.5801 26.9972 18.4829 26.9007 18.382 26.8008C18.3525 26.7727 18.3231 26.7446 18.2928 26.7156C18.1986 26.6253 18.1054 26.5339 18.0125 26.4424C17.9493 26.3807 17.8861 26.3191 17.8229 26.2575C17.6823 26.1199 17.5424 25.9816 17.4032 25.8427C17.3011 25.7412 17.1984 25.6402 17.0958 25.5391C15.0333 23.5067 15.0333 23.5067 14.9145 23.3896C14.8297 23.3061 14.7448 23.2226 14.6597 23.1394C14.5169 22.9994 14.3742 22.8593 14.2315 22.7192C14.1702 22.659 14.1089 22.5989 14.0475 22.5388C13.9583 22.4514 13.8691 22.3638 13.78 22.2762C13.7529 22.2497 13.7257 22.2231 13.6977 22.1958C13.5369 22.0374 13.3897 21.8736 13.2458 21.7002C13.1704 21.6239 13.094 21.5487 13.0166 21.4744C12.9728 21.4318 12.929 21.3892 12.8852 21.3465C12.8516 21.3137 12.8516 21.3137 12.8172 21.2802C12.6103 21.0779 12.41 20.8739 12.221 20.6551C12.1384 20.5628 12.0514 20.4768 11.9625 20.3905C11.8187 20.2506 11.6847 20.106 11.5534 19.9549C11.4756 19.8678 11.3965 19.7829 11.316 19.6984C11.2908 19.6719 11.2657 19.6455 11.2398 19.6183C11.1892 19.5653 11.1385 19.5124 11.0876 19.4597C10.9083 19.2713 10.9083 19.2713 10.9083 19.171C10.878 19.171 10.8478 19.171 10.8166 19.171C10.7376 19.0757 10.6648 18.9808 10.5932 18.8803C10.5725 18.8513 10.5518 18.8223 10.5304 18.7925C10.1827 18.2965 9.99944 17.7499 10.1062 17.1441C10.2429 16.545 10.5444 16.1404 10.9541 15.6934C10.9866 15.6579 10.9866 15.6579 11.0198 15.6217C11.1256 15.5067 11.232 15.3925 11.3391 15.2787C11.4449 15.1658 11.5493 15.0517 11.6531 14.937C12.0477 14.5041 12.4487 14.0741 12.8734 13.6696C12.9562 13.5856 13.0329 13.4999 13.1101 13.4109C13.3313 13.1599 13.573 12.929 13.813 12.6957C13.9042 12.6071 13.9952 12.5182 14.0862 12.4293C14.1461 12.371 14.1461 12.371 14.2073 12.3116C14.3017 12.2234 14.3017 12.2234 14.3458 12.1255C14.376 12.1255 14.4063 12.1255 14.4375 12.1255C14.4499 12.0986 14.4624 12.0716 14.4752 12.0438C14.528 11.9469 14.5794 11.884 14.6579 11.8066C14.6841 11.7805 14.7103 11.7544 14.7373 11.7275C14.766 11.6994 14.7946 11.6714 14.8242 11.6424C14.8544 11.6125 14.8847 11.5825 14.9159 11.5516C15.0159 11.4526 15.1163 11.354 15.2166 11.2554C15.2862 11.1868 15.3557 11.1182 15.4252 11.0496C15.5708 10.906 15.7167 10.7625 15.8626 10.6191C16.05 10.435 16.237 10.2504 16.4239 10.0657C16.5673 9.92402 16.711 9.78258 16.8547 9.6412C16.9238 9.5732 16.9928 9.50513 17.0617 9.437C17.1578 9.34205 17.2542 9.24739 17.3507 9.15281C17.3794 9.12438 17.4081 9.09594 17.4376 9.06665C17.6353 8.87376 17.6353 8.87376 17.7375 8.87376C17.7375 8.84395 17.7375 8.81414 17.7375 8.78343C17.7983 8.72451 17.7983 8.72451 17.8864 8.65359C18.0919 8.4826 18.2788 8.29689 18.465 8.106C18.7128 7.85613 18.7128 7.85613 18.9119 7.91686Z" fill="var(--fill-0, white)" fill-opacity="0.5"/>
<path id="Vector_9" d="M73.9291 8.73827C75.1693 8.73827 76.4096 8.73827 77.6874 8.73827C77.6874 14.521 77.6874 20.3037 77.6874 26.2617C76.4472 26.2617 75.2069 26.2617 73.9291 26.2617C73.8912 26.0753 73.8775 25.9281 73.8775 25.7405C73.8774 25.7113 73.8773 25.6821 73.8773 25.652C73.8771 25.554 73.8773 25.4561 73.8774 25.3581C73.8774 25.2872 73.8773 25.2163 73.8772 25.1455C73.877 24.9505 73.8771 24.7556 73.8773 24.5607C73.8774 24.3506 73.8772 24.1404 73.8771 23.9303C73.8769 23.5186 73.8769 23.1069 73.877 22.6952C73.8772 22.3607 73.8772 22.0262 73.8771 21.6918C73.8771 21.6442 73.8771 21.5966 73.8771 21.5476C73.8771 21.451 73.8771 21.3544 73.8771 21.2578C73.8769 20.3515 73.8771 19.4451 73.8773 18.5388C73.8775 17.7606 73.8775 16.9823 73.8773 16.204C73.877 15.3009 73.8769 14.3977 73.8771 13.4945C73.8771 13.3983 73.8771 13.302 73.8771 13.2058C73.8771 13.1585 73.8771 13.1111 73.8771 13.0623C73.8772 12.7281 73.8771 12.3938 73.877 12.0595C73.8769 11.6525 73.8769 11.2454 73.8772 10.8383C73.8773 10.6305 73.8773 10.4226 73.8772 10.2148C73.877 10.0248 73.8771 9.83472 73.8774 9.64468C73.8774 9.57573 73.8774 9.50677 73.8773 9.43782C73.8771 9.34449 73.8773 9.25116 73.8775 9.15783C73.8775 9.10587 73.8775 9.05391 73.8775 9.00038C73.8833 8.87376 73.8833 8.87376 73.9291 8.73827Z" fill="var(--fill-0, white)" fill-opacity="0.5"/>
<path id="Vector_10" d="M114.492 8.73827C115.732 8.73827 116.972 8.73827 118.25 8.73827C118.25 14.521 118.25 20.3037 118.25 26.2617C116.995 26.2617 115.739 26.2617 114.446 26.2617C114.461 20.479 114.476 14.6962 114.492 8.73827Z" fill="var(--fill-0, white)" fill-opacity="0.5"/>
</g>
</svg>
