<svg preserveAspectRatio="none" width="100%" height="100%" overflow="visible" style="display: block;" viewBox="0 0 40 51" fill="none" xmlns="http://www.w3.org/2000/svg">
<g id="Simplification" clip-path="url(#clip0_8066_21231)">
<path id="Vector" d="M16.34 3.52667C16.4307 3.62152 16.506 3.72225 16.5833 3.82809C16.6365 3.89609 16.6904 3.96354 16.7443 4.03098C16.7832 4.07974 16.822 4.12863 16.8605 4.17766C16.9993 4.35376 17.1435 4.52405 17.2917 4.69249C17.4772 4.90362 17.654 5.11977 17.8273 5.3408C17.9633 5.51328 18.1049 5.67996 18.25 5.84504C18.4153 6.03315 18.5747 6.22435 18.7292 6.42131C18.9061 6.64695 19.0905 6.86476 19.2798 7.08038C19.4304 7.25222 19.5751 7.42774 19.716 7.60745C19.8046 7.71266 19.9009 7.80761 20 7.90315C20.0227 7.87572 20.0454 7.84828 20.0688 7.82002C20.1355 7.73951 20.2022 7.65901 20.2689 7.57851C20.3336 7.50039 20.3983 7.42225 20.4629 7.34408C20.6808 7.08066 20.8996 6.818 21.1186 6.55547C21.253 6.39435 21.3871 6.23308 21.5208 6.07143C21.6801 5.87893 21.84 5.687 22 5.49516C22.2228 5.22805 22.4451 4.96054 22.6667 4.69249C22.7915 4.54146 22.9165 4.39052 23.0417 4.23971C23.0654 4.21106 23.0892 4.18242 23.1137 4.1529C23.1929 4.05745 23.2722 3.96206 23.3516 3.86668C23.3772 3.83576 23.4029 3.80485 23.4293 3.773C23.4534 3.74401 23.4776 3.71501 23.5024 3.68514C23.5241 3.65914 23.5457 3.63314 23.5679 3.60635C23.6945 3.45904 23.6945 3.45904 23.7883 3.44945C23.838 3.45111 23.838 3.45111 23.8887 3.4528C23.9272 3.45406 23.9657 3.45531 24.0053 3.4566C24.0483 3.45864 24.0912 3.46067 24.1354 3.46277C24.1812 3.46486 24.2271 3.46695 24.2743 3.4691C26.5575 3.589 28.8299 4.00924 31.0417 4.56901C31.09 4.58112 31.1383 4.59323 31.1881 4.60571C33.0468 5.07623 34.8304 5.73973 36.5833 6.50363C36.5088 6.70192 36.4079 6.84044 36.2734 7.00272C36.25 7.03104 36.2265 7.05936 36.2024 7.08854C35.7238 7.65428 35.1884 8.1709 34.5833 8.60291C34.5566 8.62244 34.5299 8.64197 34.5024 8.6621C34.0491 8.99362 33.5775 9.28163 33.0833 9.54964C33.0325 9.5772 33.0325 9.5772 32.9807 9.60533C31.8612 10.2082 31.8612 10.2082 31.625 10.2082C31.6151 10.1455 31.6151 10.1455 31.605 10.0815C31.4969 9.43559 31.2923 8.84628 30.75 8.42797C29.1771 7.38707 26.8943 7.56648 25.0833 7.53269C25.0764 7.58323 25.0764 7.58323 25.0693 7.6348C25.015 8.02159 24.9494 8.40573 24.8798 8.79007C24.8678 8.85708 24.8557 8.92408 24.8437 8.99109C24.8109 9.17361 24.7779 9.35611 24.7449 9.53861C24.7094 9.73562 24.6739 9.93265 24.6385 10.1297C24.577 10.471 24.5155 10.8123 24.454 11.1536C24.3637 11.654 24.2736 12.1544 24.1835 12.6548C24.1413 12.8891 24.0991 13.1233 24.0569 13.3575C24.0485 13.4043 24.0401 13.4511 24.0314 13.4994C23.971 13.835 23.9105 14.1706 23.85 14.5063C23.6246 15.757 23.3995 17.0078 23.1746 18.2587C23.1597 18.3417 23.1448 18.4248 23.1299 18.5078C23.0703 18.839 23.0108 19.1701 22.9512 19.5013C22.7866 20.4171 22.6219 21.3329 22.4572 22.2487C22.4497 22.2904 22.4422 22.3321 22.4345 22.375C22.0659 24.4241 21.6971 26.4731 21.3282 28.522C21.2785 28.7985 21.2287 29.0749 21.179 29.3514C21.147 29.5288 21.1151 29.7062 21.0832 29.8836C21.0675 29.9706 21.0518 30.0576 21.0362 30.1446C20.9538 30.6024 20.8713 31.0602 20.7887 31.5179C20.7674 31.6363 20.746 31.7547 20.7246 31.8731C20.7107 31.9503 20.6968 32.0276 20.6828 32.1049C20.5968 32.5818 20.5112 33.0587 20.4262 33.5357C20.3848 33.7675 20.3433 33.9992 20.3018 34.231C20.2695 34.4111 20.2374 34.5913 20.2055 34.7715C20.182 34.9044 20.1581 35.0371 20.1342 35.1699C20.1259 35.217 20.1177 35.2642 20.1092 35.3127C20.1015 35.3554 20.0937 35.398 20.0857 35.4419C20.0792 35.4787 20.0726 35.5156 20.0659 35.5535C20.0417 35.6465 20.0417 35.6465 19.9583 35.77C19.8769 35.4706 19.8223 35.1676 19.7675 34.8626C19.7568 34.8038 19.7461 34.745 19.7355 34.6862C19.7062 34.5252 19.6772 34.3642 19.6481 34.2031C19.6168 34.0296 19.5853 33.8561 19.5539 33.6826C19.4994 33.3818 19.445 33.081 19.3906 32.7802C19.311 32.3395 19.2313 31.8989 19.1515 31.4583C19.1142 31.2523 19.0768 31.0463 19.0395 30.8402C19.0321 30.7991 19.0246 30.7579 19.017 30.7155C18.9635 30.42 18.91 30.1246 18.8565 29.8291C18.6565 28.7236 18.4562 27.6182 18.2557 26.5128C18.2491 26.4765 18.2425 26.4402 18.2357 26.4027C18.1694 26.0373 18.1031 25.6718 18.0368 25.3064C17.9097 24.6057 17.7826 23.905 17.6555 23.2043C17.6218 23.0188 17.5882 22.8334 17.5546 22.648C17.3783 21.6762 17.202 20.7044 17.0258 19.7326C16.978 19.469 16.9302 19.2054 16.8824 18.9419C16.8757 18.9046 16.8689 18.8674 16.862 18.829C16.8347 18.6788 16.8075 18.5285 16.7802 18.3783C16.7061 17.9698 16.632 17.5613 16.558 17.1528C16.4786 16.7148 16.3991 16.2767 16.3197 15.8386C16.3131 15.8026 16.3066 15.7667 16.2999 15.7296C16.108 14.6717 15.9157 13.6139 15.7231 12.5562C15.6742 12.2876 15.6253 12.019 15.5764 11.7504C15.5696 11.7131 15.5628 11.6759 15.5558 11.6375C15.5288 11.4886 15.5017 11.3398 15.4746 11.191C15.3961 10.7596 15.3175 10.3282 15.2388 9.89686C15.1903 9.63123 15.1419 9.36559 15.0936 9.09993C15.0658 8.9472 15.038 8.79447 15.0101 8.64176C14.9799 8.47674 14.9499 8.3117 14.9199 8.14664C14.911 8.09821 14.9022 8.04978 14.893 7.99988C14.8851 7.95599 14.8771 7.9121 14.8689 7.86688C14.862 7.82889 14.8551 7.7909 14.8479 7.75176C14.8333 7.65617 14.8333 7.65617 14.8333 7.53269C11.6968 7.4315 11.6968 7.4315 8.95524 8.63651C8.54865 9.09195 8.4168 9.62761 8.29167 10.2082C6.91129 9.68839 5.61224 8.91118 4.54167 7.90315C4.48379 7.85394 4.42566 7.80502 4.36719 7.75651C4.06531 7.49571 3.81844 7.1915 3.58073 6.87409C3.56033 6.84695 3.53993 6.81981 3.51891 6.79185C3.375 6.59622 3.375 6.59622 3.375 6.50363C4.29195 6.09337 5.21778 5.72407 6.16667 5.39225C6.19478 5.38236 6.22289 5.37248 6.25185 5.36229C8.27724 4.65032 10.3788 4.16338 12.5 3.82809C12.5285 3.82353 12.5571 3.81898 12.5865 3.81428C13.3675 3.68986 14.1497 3.59827 14.9375 3.52709C14.9769 3.52349 15.0164 3.5199 15.057 3.51619C16.1929 3.41385 16.1929 3.41385 16.34 3.52667Z" fill="var(--fill-0, white)" fill-opacity="0.5"/>
<path id="Vector_2" d="M18.9927 -0.00836108C19.0653 -0.00865035 19.138 -0.00894206 19.2106 -0.009236C19.4416 -0.0100343 19.6726 -0.0102418 19.9036 -0.0102906C19.9431 -0.0103087 19.9826 -0.0103269 20.0232 -0.0103457C21.2839 -0.0106501 22.5354 0.0114585 23.7917 0.123487C23.8745 0.130632 23.9574 0.137767 24.0403 0.144892C26.56 0.364425 29.0412 0.775233 31.5 1.35835C31.5321 1.36594 31.5642 1.37353 31.5972 1.38135C33.8351 1.91207 36.0265 2.624 38.1667 3.45763C38.1436 3.62287 38.1081 3.76126 38.0382 3.91298C38.0112 3.97176 38.0112 3.97176 37.9837 4.03173C37.9642 4.07319 37.9446 4.11466 37.9245 4.15739C37.9044 4.20034 37.8844 4.24329 37.8637 4.28754C37.6516 4.73527 37.413 5.16796 37.1667 5.59806C36.846 5.4987 36.5369 5.37478 36.226 5.2496C32.9854 3.94841 29.6051 3.0632 22.375 2.26392C22.3027 2.26035 22.3027 2.26035 22.229 2.25671C20.433 2.17236 18.6278 2.20223 16.8333 2.30508C16.7984 2.30708 16.7635 2.30908 16.7276 2.31114C13.3173 2.51064 9.91249 3.15376 3.47495 5.35591C3.24931 5.4502 3.02982 5.54019 2.79167 5.59806C2.47146 5.04843 2.18506 4.48646 1.91667 3.91041C1.89643 3.86786 1.89643 3.86786 1.87579 3.82445C1.81325 3.68857 1.79167 3.61075 1.79167 3.45763C5.56334 2.00799 9.44947 0.97401 16.8918 0.0739634C16.9283 0.0712291 16.9647 0.0684948 17.0023 0.0656777C17.6655 0.0180955 18.3278 -0.00670619 18.9927 -0.00836108Z" fill="var(--fill-0, white)" fill-opacity="0.5"/>
<path id="Vector_3" d="M17.875 45.8959C19.7725 45.8959 21.67 45.8959 23.625 45.8959C23.4337 46.4 23.1915 46.6638 22.7034 46.9074C22.5268 46.9807 22.3653 46.9827 22.1758 46.9801C22.1404 46.9801 22.105 46.9802 22.0685 46.9802C21.9524 46.9801 21.8363 46.9791 21.7202 46.9782C21.6394 46.9779 21.5585 46.9778 21.4776 46.9776C21.2655 46.9772 21.0534 46.9759 20.8412 46.9746C20.6245 46.9733 20.4077 46.9728 20.191 46.9721C19.7662 46.9708 19.3414 46.9686 18.9167 46.9661C18.9167 47.2785 18.9167 47.5909 18.9167 47.9128C20.4567 47.9128 21.9967 47.9128 23.5833 47.9128C23.5833 48.9316 23.5833 49.9504 23.5833 51C21.6171 51 19.6508 51 17.625 51C17.8123 50.5374 18.1923 50.2893 18.6296 50.0708C18.8095 49.9959 18.976 49.9956 19.169 49.9981C19.2056 49.9981 19.2423 49.998 19.28 49.998C19.4002 49.9981 19.5203 49.9991 19.6405 50C19.7241 50.0003 19.8078 50.0005 19.8914 50.0006C20.111 50.001 20.3305 50.0023 20.5501 50.0036C20.7743 50.0049 20.9986 50.0055 21.2229 50.0061C21.6625 50.0074 22.1021 50.0096 22.5417 50.0121C22.5417 49.6725 22.5417 49.3329 22.5417 48.983C21.0017 48.983 19.4617 48.983 17.875 48.983C17.875 47.9643 17.875 46.9455 17.875 45.8959Z" fill="var(--fill-0, white)" fill-opacity="0.5"/>
<path id="Vector_4" d="M0 45.8959C2.1725 45.8959 4.345 45.8959 6.58333 45.8959C6.42424 46.3674 6.23666 46.6469 5.79167 46.8838C5.18434 47.1238 4.48725 46.9919 3.83333 47.0073C3.81958 48.3249 3.80583 49.6425 3.79167 51C3.44792 51 3.10417 51 2.75 51C2.73625 49.6824 2.7225 48.3648 2.70833 47.0073C2.13083 46.9937 1.55333 46.9801 0.958333 46.9661C0.500996 46.7402 0.16552 46.544 0 46.0605C0 46.0062 0 45.9519 0 45.8959Z" fill="var(--fill-0, white)" fill-opacity="0.5"/>
<path id="Vector_5" d="M34.125 47.9128C36.9506 47.9332 36.9506 47.9332 39.8333 47.954C39.8333 48.9592 39.8333 49.9644 39.8333 51C39.4896 51 39.1458 51 38.7917 51C38.7917 50.348 38.7917 49.696 38.7917 49.0242C37.5954 49.0242 36.3992 49.0242 35.1667 49.0242C35.1667 49.6762 35.1667 50.3282 35.1667 51C34.8229 51 34.4792 51 34.125 51C34.125 49.9812 34.125 48.9625 34.125 47.9128Z" fill="var(--fill-0, white)" fill-opacity="0.5"/>
<path id="Vector_6" d="M26.4167 45.8959C26.7604 45.8959 27.1042 45.8959 27.4583 45.8959C27.4583 47.2542 27.4583 48.6126 27.4583 50.0121C28.9571 50.0121 30.4558 50.0121 32 50.0121C31.8584 50.4784 31.8584 50.4784 31.7396 50.6218C31.717 50.6501 31.6945 50.6784 31.6712 50.7075C31.4329 50.9426 31.2819 51.0233 30.9463 51.0256C30.8793 51.0245 30.8793 51.0245 30.811 51.0234C30.7627 51.0234 30.7143 51.0234 30.6645 51.0234C30.5086 51.0233 30.3527 51.0217 30.1968 51.0201C30.1003 51.0198 30.0038 51.0196 29.9073 51.0195C29.5501 51.0184 29.193 51.0155 28.8359 51.0129C27.6384 51.0065 27.6384 51.0065 26.4167 51C26.4167 49.3156 26.4167 47.6313 26.4167 45.8959Z" fill="var(--fill-0, white)" fill-opacity="0.5"/>
<path id="Vector_7" d="M9 47.9128C10.98 47.9128 12.96 47.9128 15 47.9128C14.9419 48.3148 14.7716 48.5336 14.4676 48.7975C14.2064 48.9726 13.9865 49.0013 13.6782 49.0003C13.6386 49.0007 13.599 49.001 13.5582 49.0014C13.4278 49.0024 13.2975 49.0024 13.1672 49.0023C13.0761 49.0026 12.985 49.003 12.8939 49.0033C12.7032 49.0038 12.5125 49.0039 12.3218 49.0037C12.0782 49.0034 11.8346 49.0047 11.5909 49.0064C11.4029 49.0074 11.2148 49.0075 11.0268 49.0074C10.937 49.0075 10.8472 49.0079 10.7574 49.0086C10.6315 49.0095 10.5056 49.0091 10.3797 49.0084C10.3431 49.0089 10.3064 49.0095 10.2687 49.01C9.92379 49.0055 9.60538 48.8712 9.36198 48.6255C9.17929 48.4329 9 48.1842 9 47.9128Z" fill="var(--fill-0, white)" fill-opacity="0.5"/>
<path id="Vector_8" d="M33.9583 45.8959C35.9383 45.8959 37.9183 45.8959 39.9583 45.8959C39.8917 46.2911 39.7161 46.543 39.3934 46.782C39.1207 46.9445 38.9128 46.9844 38.5987 46.9834C38.5595 46.9837 38.5203 46.9841 38.4799 46.9844C38.3509 46.9854 38.2219 46.9854 38.0929 46.9854C38.0028 46.9857 37.9127 46.986 37.8225 46.9863C37.6338 46.9869 37.445 46.987 37.2563 46.9867C37.0152 46.9865 36.7741 46.9877 36.533 46.9894C36.3468 46.9905 36.1607 46.9906 35.9746 46.9904C35.8857 46.9905 35.7969 46.9909 35.708 46.9916C34.8175 46.9982 34.8175 46.9982 34.5 46.7603C34.4649 46.7347 34.4299 46.709 34.3937 46.6826C34.1836 46.4704 33.9583 46.2062 33.9583 45.8959Z" fill="var(--fill-0, white)" fill-opacity="0.5"/>
<path id="Vector_9" d="M9 45.8959C10.98 45.8959 12.96 45.8959 15 45.8959C14.9333 46.2911 14.7578 46.543 14.4351 46.782C14.1633 46.944 13.9566 46.9843 13.6435 46.9827C13.6046 46.983 13.5658 46.9833 13.5257 46.9836C13.3979 46.9843 13.2701 46.9842 13.1423 46.9839C13.053 46.9841 12.9637 46.9844 12.8744 46.9846C12.6874 46.985 12.5004 46.9849 12.3135 46.9845C12.0745 46.984 11.8356 46.9848 11.5966 46.986C11.4122 46.9868 11.2278 46.9868 11.0435 46.9865C10.9554 46.9865 10.8673 46.9868 10.7792 46.9873C10.6558 46.9879 10.5324 46.9875 10.409 46.9868C10.373 46.9871 10.337 46.9875 10.2999 46.988C9.9303 46.9836 9.63822 46.8449 9.36914 46.5982C9.17669 46.3873 9.05625 46.1737 9 45.8959Z" fill="var(--fill-0, white)" fill-opacity="0.5"/>
<path id="Vector_10" d="M9 50.0121C10.98 50.0121 12.96 50.0121 15 50.0121C14.9315 50.4182 14.7501 50.6668 14.4147 50.9063C14.2903 50.9867 14.2188 51.0053 14.0714 51.0066C14.0339 51.007 13.9964 51.0074 13.9578 51.0079C13.9165 51.0081 13.8752 51.0083 13.8327 51.0086C13.7894 51.009 13.746 51.0094 13.7013 51.0098C13.5573 51.011 13.4132 51.0119 13.2692 51.0127C13.2201 51.013 13.1709 51.0132 13.1203 51.0135C12.86 51.0149 12.5997 51.0159 12.3394 51.0167C12.124 51.0174 11.9086 51.0188 11.6932 51.0209C11.4332 51.0234 11.1732 51.0246 10.9132 51.025C10.8142 51.0254 10.7151 51.0262 10.6161 51.0274C10.4772 51.029 10.3385 51.029 10.1996 51.0287C10.1589 51.0295 10.1181 51.0303 10.0761 51.0312C9.74404 51.0277 9.5736 50.907 9.34349 50.6812C9.17791 50.5095 9 50.2574 9 50.0121Z" fill="var(--fill-0, white)" fill-opacity="0.5"/>
</g>
<defs>
<clipPath id="clip0_8066_21231">
<rect width="40" height="51" fill="white"/>
</clipPath>
</defs>
</svg>
